G04*
G04 #@! TF.GenerationSoftware,Altium Limited,Altium Designer,25.8.1 (18)*
G04*
G04 Layer_Color=128*
%FSLAX25Y25*%
%MOIN*%
G70*
G04*
G04 #@! TF.SameCoordinates,89EB4D55-A1BB-4405-A785-52806EBC1AC1*
G04*
G04*
G04 #@! TF.FilePolarity,Positive*
G04*
G01*
G75*
%ADD52C,0.00500*%
D52*
X286410Y121883D02*
X289953D01*
X288181Y120111D02*
Y123654D01*
X293910Y106883D02*
X297453D01*
X295681Y105111D02*
Y108654D01*
X323030Y16339D02*
X330117D01*
X326573Y12795D02*
Y19882D01*
X76732Y287402D02*
X80276D01*
X78504Y285630D02*
Y289173D01*
X183405Y180433D02*
X186949D01*
X185177Y178661D02*
Y182205D01*
X175906Y195433D02*
X179449D01*
X177677Y193661D02*
Y197205D01*
X61732Y279902D02*
X65276D01*
X63504Y278130D02*
Y281673D01*
X7480Y135827D02*
X19291D01*
X13386Y129921D02*
Y141732D01*
X259060Y16260D02*
X266147D01*
X262603Y12717D02*
Y19803D01*
X81732Y279902D02*
X85276D01*
X83504Y278130D02*
Y281673D01*
X289959Y37992D02*
X297046D01*
X293503Y34449D02*
Y41535D01*
X293910Y126883D02*
X297453D01*
X295681Y125111D02*
Y128654D01*
X183405Y200433D02*
X186949D01*
X185177Y198661D02*
Y202205D01*
X259060Y37913D02*
X266147D01*
X262603Y34370D02*
Y41457D01*
X256698Y-12480D02*
X268509D01*
X262603Y-18386D02*
Y-6575D01*
X289959Y16339D02*
X297046D01*
X293503Y12795D02*
Y19882D01*
X306495Y37992D02*
X313581D01*
X310038Y34449D02*
Y41535D01*
X323030Y37992D02*
X330117D01*
X326573Y34449D02*
Y41535D01*
X339566Y37992D02*
X346652D01*
X343109Y34449D02*
Y41535D01*
X306495Y16339D02*
X313581D01*
X310038Y12795D02*
Y19882D01*
X339566Y16339D02*
X346652D01*
X343109Y12795D02*
Y19882D01*
X71732Y279902D02*
X75276D01*
X73504Y278130D02*
Y281673D01*
X285827Y245079D02*
X291339D01*
X288583Y242323D02*
Y247835D01*
X293910Y116883D02*
X297453D01*
X295681Y115111D02*
Y118654D01*
X183405Y190433D02*
X186949D01*
X185177Y188661D02*
Y192205D01*
X285827Y223425D02*
X291339D01*
X288583Y220669D02*
Y226181D01*
X66732Y287402D02*
X70276D01*
X68504Y285630D02*
Y289173D01*
X46260Y326102D02*
X52165D01*
X49213Y323150D02*
Y329055D01*
X46260Y338307D02*
X52165D01*
X49213Y335354D02*
Y341260D01*
X46260Y350512D02*
X52165D01*
X49213Y347559D02*
Y353465D01*
X84842Y326102D02*
X90748D01*
X87795Y323150D02*
Y329055D01*
X84842Y338307D02*
X90748D01*
X87795Y335354D02*
Y341260D01*
X84842Y350512D02*
X90748D01*
X87795Y347559D02*
Y353465D01*
X175906Y185433D02*
X179449D01*
X177677Y183661D02*
Y187205D01*
X136024Y166142D02*
X141929D01*
X138976Y163189D02*
Y169095D01*
X123819Y166142D02*
X129724D01*
X126772Y163189D02*
Y169095D01*
X111614Y166142D02*
X117520D01*
X114567Y163189D02*
Y169095D01*
X136024Y204724D02*
X141929D01*
X138976Y201772D02*
Y207677D01*
X123819Y204724D02*
X129724D01*
X126772Y201772D02*
Y207677D01*
X111614Y204724D02*
X117520D01*
X114567Y201772D02*
Y207677D01*
X222118Y131174D02*
X228024D01*
X225071Y128221D02*
Y134127D01*
X234323Y131174D02*
X240229D01*
X237276Y128221D02*
Y134127D01*
X246528Y131174D02*
X252433D01*
X249481Y128221D02*
Y134127D01*
X222118Y92592D02*
X228024D01*
X225071Y89639D02*
Y95544D01*
X234323Y92592D02*
X240229D01*
X237276Y89639D02*
Y95544D01*
X246528Y92592D02*
X252433D01*
X249481Y89639D02*
Y95544D01*
X286410Y111883D02*
X289953D01*
X288181Y110111D02*
Y113654D01*
X13386Y19685D02*
X25984D01*
X19685Y13386D02*
Y25984D01*
X367717Y19685D02*
X380315D01*
X374016Y13386D02*
Y25984D01*
X367717Y374016D02*
X380315D01*
X374016Y367717D02*
Y380315D01*
X13386Y374016D02*
X25984D01*
X19685Y367717D02*
Y380315D01*
X225103Y66929D02*
X226284D01*
X225693Y66339D02*
Y67520D01*
X156561Y29478D02*
X157742D01*
X157151Y28887D02*
Y30068D01*
X163131Y31524D02*
X164312D01*
X163722Y30934D02*
Y32115D01*
X223154Y46063D02*
X224335D01*
X223745Y45472D02*
Y46654D01*
X105315Y21954D02*
X106496D01*
X105905Y21364D02*
Y22545D01*
X81693Y155118D02*
X82874D01*
X82284Y154528D02*
Y155709D01*
X321843Y127631D02*
X323024D01*
X322433Y127040D02*
Y128221D01*
X210827Y168898D02*
X212008D01*
X211417Y168307D02*
Y169488D01*
X210433Y200787D02*
X211614D01*
X211024Y200197D02*
Y201378D01*
X322236Y95741D02*
X323418D01*
X322827Y95151D02*
Y96332D01*
X82480Y253937D02*
X83661D01*
X83071Y253346D02*
Y254528D01*
X52165Y253937D02*
X53347D01*
X52756Y253346D02*
Y254528D01*
M02*
