G04*
G04 #@! TF.GenerationSoftware,Altium Limited,Altium Designer,25.8.1 (18)*
G04*
G04 Layer_Color=0*
%FSLAX25Y25*%
%MOIN*%
G70*
G04*
G04 #@! TF.SameCoordinates,89EB4D55-A1BB-4405-A785-52806EBC1AC1*
G04*
G04*
G04 #@! TF.FilePolarity,Positive*
G04*
G01*
G75*
%ADD48C,0.00394*%
%ADD50C,0.00197*%
D48*
X207665Y44155D02*
Y48092D01*
X205696Y46124D02*
X209633D01*
X240654Y66929D02*
X244591D01*
X242622Y64961D02*
Y68898D01*
X103937Y33465D02*
X107874D01*
X105905Y31496D02*
Y35433D01*
X161753Y42470D02*
X165690D01*
X163722Y40501D02*
Y44438D01*
X261422Y-13268D02*
X265359D01*
X263391Y-15236D02*
Y-11299D01*
X82284Y138583D02*
Y142520D01*
X80315Y140551D02*
X84252D01*
X318306Y-13780D02*
Y-9843D01*
X316337Y-11811D02*
X320274D01*
X68504Y326102D02*
Y330039D01*
X66536Y328071D02*
X70473D01*
X50787Y264961D02*
X54724D01*
X52756Y262992D02*
Y266929D01*
X81102Y264567D02*
X85039D01*
X83071Y262598D02*
Y266535D01*
X68110Y266535D02*
Y270472D01*
X66142Y268504D02*
X70079D01*
X135039Y185433D02*
X138976D01*
X137008Y183465D02*
Y187402D01*
X194882Y185039D02*
X198819D01*
X196850Y183071D02*
Y187008D01*
X200787Y166929D02*
Y170866D01*
X198819Y168898D02*
X202756D01*
X200787Y198819D02*
Y202756D01*
X198819Y200787D02*
X202756D01*
X247512Y109914D02*
Y113851D01*
X245544Y111883D02*
X249481D01*
X309048Y127631D02*
X312985D01*
X311016Y125662D02*
Y129599D01*
X310229Y93773D02*
Y97710D01*
X308260Y95741D02*
X312197D01*
X304717Y111489D02*
X308654D01*
X306685Y109521D02*
Y113458D01*
X288583Y234252D02*
Y238189D01*
X286614Y236221D02*
X290551D01*
D50*
X272441Y59055D02*
Y62992D01*
X270472Y61024D02*
X274409D01*
M02*
