G04*
G04 #@! TF.GenerationSoftware,Altium Limited,Altium Designer,25.8.1 (18)*
G04*
G04 Layer_Color=8388736*
%FSLAX25Y25*%
%MOIN*%
G70*
G04*
G04 #@! TF.SameCoordinates,89EB4D55-A1BB-4405-A785-52806EBC1AC1*
G04*
G04*
G04 #@! TF.FilePolarity,Negative*
G04*
G01*
G75*
%ADD15R,0.03764X0.06528*%
%ADD17R,0.06528X0.04352*%
%ADD18R,0.06717X0.04545*%
%ADD22R,0.05906X0.03937*%
%ADD23R,0.03740X0.06693*%
%ADD24R,0.06693X0.03740*%
%ADD25C,0.11811*%
%ADD27R,0.07099X0.06312*%
G04:AMPARAMS|DCode=28|XSize=67.06mil|YSize=86.74mil|CornerRadius=11.38mil|HoleSize=0mil|Usage=FLASHONLY|Rotation=270.000|XOffset=0mil|YOffset=0mil|HoleType=Round|Shape=RoundedRectangle|*
%AMROUNDEDRECTD28*
21,1,0.06706,0.06398,0,0,270.0*
21,1,0.04429,0.08674,0,0,270.0*
1,1,0.02276,-0.03199,-0.02215*
1,1,0.02276,-0.03199,0.02215*
1,1,0.02276,0.03199,0.02215*
1,1,0.02276,0.03199,-0.02215*
%
%ADD28ROUNDEDRECTD28*%
G04:AMPARAMS|DCode=29|XSize=157.61mil|YSize=86.74mil|CornerRadius=13.84mil|HoleSize=0mil|Usage=FLASHONLY|Rotation=270.000|XOffset=0mil|YOffset=0mil|HoleType=Round|Shape=RoundedRectangle|*
%AMROUNDEDRECTD29*
21,1,0.15761,0.05906,0,0,270.0*
21,1,0.12992,0.08674,0,0,270.0*
1,1,0.02769,-0.02953,-0.06496*
1,1,0.02769,-0.02953,0.06496*
1,1,0.02769,0.02953,0.06496*
1,1,0.02769,0.02953,-0.06496*
%
%ADD29ROUNDEDRECTD29*%
%ADD30R,0.03162X0.05918*%
%ADD31C,0.12611*%
%ADD32R,0.07690X0.04737*%
%ADD33C,0.05512*%
%ADD34C,0.10827*%
%ADD35R,0.16548X0.16548*%
%ADD36R,0.10827X0.10827*%
%ADD37R,0.05512X0.05512*%
%ADD38R,0.05512X0.05512*%
%ADD39C,0.08465*%
%ADD40R,0.08465X0.08465*%
G04:AMPARAMS|DCode=41|XSize=82.68mil|YSize=107.87mil|CornerRadius=41.34mil|HoleSize=0mil|Usage=FLASHONLY|Rotation=90.000|XOffset=0mil|YOffset=0mil|HoleType=Round|Shape=RoundedRectangle|*
%AMROUNDEDRECTD41*
21,1,0.08268,0.02520,0,0,90.0*
21,1,0.00000,0.10787,0,0,90.0*
1,1,0.08268,0.01260,0.00000*
1,1,0.08268,0.01260,0.00000*
1,1,0.08268,-0.01260,0.00000*
1,1,0.08268,-0.01260,0.00000*
%
%ADD41ROUNDEDRECTD41*%
G04:AMPARAMS|DCode=42|XSize=82.68mil|YSize=107.87mil|CornerRadius=41.34mil|HoleSize=0mil|Usage=FLASHONLY|Rotation=180.000|XOffset=0mil|YOffset=0mil|HoleType=Round|Shape=RoundedRectangle|*
%AMROUNDEDRECTD42*
21,1,0.08268,0.02520,0,0,180.0*
21,1,0.00000,0.10787,0,0,180.0*
1,1,0.08268,0.00000,0.01260*
1,1,0.08268,0.00000,0.01260*
1,1,0.08268,0.00000,-0.01260*
1,1,0.08268,0.00000,-0.01260*
%
%ADD42ROUNDEDRECTD42*%
%ADD43C,0.00800*%
D15*
X202444Y46124D02*
D03*
X212885D02*
D03*
X237402Y66929D02*
D03*
X247843D02*
D03*
D17*
X105905Y38490D02*
D03*
Y28440D02*
D03*
D18*
X163722Y47493D02*
D03*
Y37447D02*
D03*
D22*
X82284Y146850D02*
D03*
Y134252D02*
D03*
D23*
X316528Y127631D02*
D03*
X206299Y200787D02*
D03*
Y168898D02*
D03*
X315740Y95741D02*
D03*
X62598Y268504D02*
D03*
X305504Y127631D02*
D03*
X195276Y200787D02*
D03*
X73622Y268504D02*
D03*
X195276Y168898D02*
D03*
X304717Y95741D02*
D03*
D24*
X196850Y179528D02*
D03*
X306685Y105977D02*
D03*
X83071Y259055D02*
D03*
X52756Y259449D02*
D03*
X83071Y270079D02*
D03*
X306685Y117001D02*
D03*
X196850Y190551D02*
D03*
X52756Y270472D02*
D03*
D25*
X262603Y-12480D02*
D03*
D27*
X272441Y55118D02*
D03*
Y66929D02*
D03*
D28*
X148072Y38533D02*
D03*
Y47588D02*
D03*
Y29478D02*
D03*
D29*
X125041Y38533D02*
D03*
D30*
X187934Y46997D02*
D03*
X180454D02*
D03*
X184194Y38730D02*
D03*
D31*
X72441Y71654D02*
D03*
X28346Y193701D02*
D03*
X316528Y157946D02*
D03*
X232283Y204331D02*
D03*
D32*
X82284Y103543D02*
D03*
Y115354D02*
D03*
D33*
X288181Y121883D02*
D03*
X295681Y106883D02*
D03*
X78504Y287402D02*
D03*
X185177Y180433D02*
D03*
X177677Y195433D02*
D03*
X63504Y279902D02*
D03*
X73504D02*
D03*
X295681Y116883D02*
D03*
X185177Y190433D02*
D03*
X68504Y287402D02*
D03*
X177677Y185433D02*
D03*
X288181Y111883D02*
D03*
D34*
X326573Y16339D02*
D03*
X293503Y37992D02*
D03*
X262603Y37913D02*
D03*
X293503Y16339D02*
D03*
X310038Y37992D02*
D03*
X326573D02*
D03*
X343109D02*
D03*
X310038Y16339D02*
D03*
D35*
X13386Y135827D02*
D03*
D36*
X262603Y16260D02*
D03*
X343109Y16339D02*
D03*
D37*
X83504Y279902D02*
D03*
D38*
X295681Y126883D02*
D03*
X185177Y200433D02*
D03*
D39*
X288583Y245079D02*
D03*
D40*
Y223425D02*
D03*
D41*
X49213Y326102D02*
D03*
Y338307D02*
D03*
Y350512D02*
D03*
X87795Y326102D02*
D03*
Y338307D02*
D03*
Y350512D02*
D03*
D42*
X138976Y166142D02*
D03*
X126772D02*
D03*
X114567D02*
D03*
X138976Y204724D02*
D03*
X126772D02*
D03*
X114567D02*
D03*
X225071Y131174D02*
D03*
X237276D02*
D03*
X249481D02*
D03*
X225071Y92592D02*
D03*
X237276D02*
D03*
X249481D02*
D03*
D43*
X19685Y19685D02*
D03*
X374016D02*
D03*
Y374016D02*
D03*
X19685D02*
D03*
M02*
