G04*
G04 #@! TF.GenerationSoftware,Altium Limited,Altium Designer,25.8.1 (18)*
G04*
G04 Layer_Physical_Order=1*
G04 Layer_Color=255*
%FSLAX25Y25*%
%MOIN*%
G70*
G04*
G04 #@! TF.SameCoordinates,89EB4D55-A1BB-4405-A785-52806EBC1AC1*
G04*
G04*
G04 #@! TF.FilePolarity,Positive*
G04*
G01*
G75*
%ADD15R,0.03764X0.06528*%
%ADD16R,0.06299X0.05512*%
%ADD17R,0.06528X0.04352*%
%ADD18R,0.06717X0.04545*%
G04:AMPARAMS|DCode=19|XSize=59.06mil|YSize=78.74mil|CornerRadius=7.38mil|HoleSize=0mil|Usage=FLASHONLY|Rotation=270.000|XOffset=0mil|YOffset=0mil|HoleType=Round|Shape=RoundedRectangle|*
%AMROUNDEDRECTD19*
21,1,0.05906,0.06398,0,0,270.0*
21,1,0.04429,0.07874,0,0,270.0*
1,1,0.01476,-0.03199,-0.02215*
1,1,0.01476,-0.03199,0.02215*
1,1,0.01476,0.03199,0.02215*
1,1,0.01476,0.03199,-0.02215*
%
%ADD19ROUNDEDRECTD19*%
G04:AMPARAMS|DCode=20|XSize=149.61mil|YSize=78.74mil|CornerRadius=9.84mil|HoleSize=0mil|Usage=FLASHONLY|Rotation=270.000|XOffset=0mil|YOffset=0mil|HoleType=Round|Shape=RoundedRectangle|*
%AMROUNDEDRECTD20*
21,1,0.14961,0.05906,0,0,270.0*
21,1,0.12992,0.07874,0,0,270.0*
1,1,0.01968,-0.02953,-0.06496*
1,1,0.01968,-0.02953,0.06496*
1,1,0.01968,0.02953,0.06496*
1,1,0.01968,0.02953,-0.06496*
%
%ADD20ROUNDEDRECTD20*%
%ADD21R,0.02362X0.05118*%
%ADD22R,0.05906X0.03937*%
%ADD23R,0.03740X0.06693*%
%ADD24R,0.06693X0.03740*%
%ADD25C,0.11811*%
%ADD26R,0.06890X0.03937*%
%ADD33C,0.05512*%
%ADD34C,0.10827*%
%ADD36R,0.10827X0.10827*%
%ADD37R,0.05512X0.05512*%
%ADD38R,0.05512X0.05512*%
%ADD39C,0.08465*%
%ADD40R,0.08465X0.08465*%
G04:AMPARAMS|DCode=41|XSize=82.68mil|YSize=107.87mil|CornerRadius=41.34mil|HoleSize=0mil|Usage=FLASHONLY|Rotation=90.000|XOffset=0mil|YOffset=0mil|HoleType=Round|Shape=RoundedRectangle|*
%AMROUNDEDRECTD41*
21,1,0.08268,0.02520,0,0,90.0*
21,1,0.00000,0.10787,0,0,90.0*
1,1,0.08268,0.01260,0.00000*
1,1,0.08268,0.01260,0.00000*
1,1,0.08268,-0.01260,0.00000*
1,1,0.08268,-0.01260,0.00000*
%
%ADD41ROUNDEDRECTD41*%
G04:AMPARAMS|DCode=42|XSize=82.68mil|YSize=107.87mil|CornerRadius=41.34mil|HoleSize=0mil|Usage=FLASHONLY|Rotation=180.000|XOffset=0mil|YOffset=0mil|HoleType=Round|Shape=RoundedRectangle|*
%AMROUNDEDRECTD42*
21,1,0.08268,0.02520,0,0,180.0*
21,1,0.00000,0.10787,0,0,180.0*
1,1,0.08268,0.00000,0.01260*
1,1,0.08268,0.00000,0.01260*
1,1,0.08268,0.00000,-0.01260*
1,1,0.08268,0.00000,-0.01260*
%
%ADD42ROUNDEDRECTD42*%
%ADD44C,0.01181*%
%ADD45C,0.02362*%
%ADD46R,0.15748X0.15748*%
%ADD47C,0.02756*%
D15*
X202444Y46124D02*
D03*
X212885D02*
D03*
X237402Y66929D02*
D03*
X247843D02*
D03*
D16*
X272441Y55118D02*
D03*
Y66929D02*
D03*
D17*
X105905Y38490D02*
D03*
Y28440D02*
D03*
D18*
X163722Y47493D02*
D03*
Y37447D02*
D03*
D19*
X148072Y38533D02*
D03*
Y47588D02*
D03*
Y29478D02*
D03*
D20*
X125041Y38533D02*
D03*
D21*
X187934Y46997D02*
D03*
X180454D02*
D03*
X184194Y38730D02*
D03*
D22*
X82284Y146850D02*
D03*
Y134252D02*
D03*
D23*
X316528Y127631D02*
D03*
X206299Y200787D02*
D03*
Y168898D02*
D03*
X315740Y95741D02*
D03*
X62598Y268504D02*
D03*
X305504Y127631D02*
D03*
X195276Y200787D02*
D03*
X73622Y268504D02*
D03*
X195276Y168898D02*
D03*
X304717Y95741D02*
D03*
D24*
X196850Y179528D02*
D03*
X306685Y105977D02*
D03*
X83071Y259055D02*
D03*
X52756Y259449D02*
D03*
X83071Y270079D02*
D03*
X306685Y117001D02*
D03*
X196850Y190551D02*
D03*
X52756Y270472D02*
D03*
D25*
X72441Y71654D02*
D03*
X28346Y193701D02*
D03*
X316528Y157946D02*
D03*
X232283Y204331D02*
D03*
X262603Y-12480D02*
D03*
D26*
X82284Y103543D02*
D03*
Y115354D02*
D03*
D33*
X288181Y121883D02*
D03*
X295681Y106883D02*
D03*
X78504Y287402D02*
D03*
X185177Y180433D02*
D03*
X177677Y195433D02*
D03*
X63504Y279902D02*
D03*
X73504D02*
D03*
X295681Y116883D02*
D03*
X185177Y190433D02*
D03*
X68504Y287402D02*
D03*
X177677Y185433D02*
D03*
X288181Y111883D02*
D03*
D34*
X326573Y16339D02*
D03*
X293503Y37992D02*
D03*
X262603Y37913D02*
D03*
X293503Y16339D02*
D03*
X310038Y37992D02*
D03*
X326573D02*
D03*
X343109D02*
D03*
X310038Y16339D02*
D03*
D36*
X262603Y16260D02*
D03*
X343109Y16339D02*
D03*
D37*
X83504Y279902D02*
D03*
D38*
X295681Y126883D02*
D03*
X185177Y200433D02*
D03*
D39*
X288583Y245079D02*
D03*
D40*
Y223425D02*
D03*
D41*
X49213Y326102D02*
D03*
Y338307D02*
D03*
Y350512D02*
D03*
X87795Y326102D02*
D03*
Y338307D02*
D03*
Y350512D02*
D03*
D42*
X138976Y166142D02*
D03*
X126772D02*
D03*
X114567D02*
D03*
X138976Y204724D02*
D03*
X126772D02*
D03*
X114567D02*
D03*
X225071Y131174D02*
D03*
X237276D02*
D03*
X249481D02*
D03*
X225071Y92592D02*
D03*
X237276D02*
D03*
X249481D02*
D03*
D44*
X78346Y77559D02*
X82284D01*
X72441Y71654D02*
X78346Y77559D01*
X52430Y36139D02*
X71640Y16929D01*
X52430Y36139D02*
Y193701D01*
X28346D02*
X52430D01*
Y223160D02*
X57617Y228346D01*
X52430Y193701D02*
Y223160D01*
X295681Y106883D02*
X305780D01*
X306685Y105977D01*
X206299Y168898D02*
X211417D01*
X195945Y180433D02*
X196850Y179528D01*
X315740Y95741D02*
X322827D01*
X185177Y180433D02*
X195945D01*
X63504Y269409D02*
Y279902D01*
X62598Y268504D02*
X63504Y269409D01*
X52756Y253937D02*
Y259449D01*
X227165Y25197D02*
X284645D01*
X293503Y16339D01*
X218898Y16929D02*
X227165Y25197D01*
X71640Y16929D02*
X218898D01*
X232283Y190551D02*
Y204331D01*
Y190551D02*
Y190551D01*
X333465D01*
X196850D02*
X232283D01*
X288583Y245079D02*
X344685D01*
X361024Y34253D02*
Y228740D01*
X344685Y245079D02*
X361024Y228740D01*
X343109Y16339D02*
X361024Y34253D01*
X343109Y37992D02*
X351181Y46064D01*
Y207480D01*
X326573Y37992D02*
X342520Y53938D01*
Y181496D01*
X310038Y37992D02*
X330701Y58655D01*
Y117227D01*
X57617Y228346D02*
X69291D01*
X73622Y232677D02*
Y268504D01*
X69291Y228346D02*
X73622Y232677D01*
X73504Y268622D02*
X73622Y268504D01*
X73504Y268622D02*
Y279902D01*
X306567Y116883D02*
X306685Y117001D01*
X295681Y116883D02*
X306567D01*
X330701Y117227D02*
Y155519D01*
X328275Y157946D02*
X330701Y155519D01*
X316528Y157946D02*
X328275D01*
X306912Y117227D02*
X330701D01*
X306685Y117001D02*
X306912Y117227D01*
X196732Y190433D02*
X196850Y190551D01*
X185177Y190433D02*
X196732D01*
X333465Y190551D02*
X342520Y181496D01*
X288583Y223425D02*
X335236D01*
X351181Y207480D01*
X57874Y287402D02*
X68504D01*
X52756Y282283D02*
X57874Y287402D01*
X52756Y270472D02*
Y282283D01*
X177677Y176260D02*
X184646Y169291D01*
X177677Y176260D02*
Y185433D01*
X194882Y169291D02*
X195276Y168898D01*
X184646Y169291D02*
X194882D01*
X294874Y95741D02*
X304717D01*
X288181Y102434D02*
X294874Y95741D01*
X288181Y102434D02*
Y111883D01*
X288181Y111883D01*
D45*
X247843Y66929D02*
X272441D01*
Y47751D02*
Y55118D01*
X262603Y37913D02*
X272441Y47751D01*
X213057Y46091D02*
Y46124D01*
X213275Y46063D02*
X223745D01*
X225693Y66929D02*
X237402D01*
X184194Y37913D02*
X262603Y37913D01*
X161811Y209842D02*
X167717Y215748D01*
X161811Y109838D02*
Y209842D01*
X161417Y108661D02*
X252362D01*
X105905Y53150D02*
X161417Y108661D01*
X82284Y77559D02*
X105905Y53150D01*
Y259842D01*
X252362Y108661D02*
X283858Y140157D01*
X105905Y38490D02*
Y53150D01*
X252362Y108661D02*
X293503Y67521D01*
X105214Y260534D02*
X105905Y259842D01*
X95669Y270079D02*
X105214Y260534D01*
X82284Y77559D02*
Y103543D01*
X108447Y38533D02*
X125041D01*
X148072Y29478D02*
X157151D01*
Y29556D01*
X163722Y31524D02*
Y37447D01*
X163970Y47245D02*
X180454D01*
Y46997D02*
Y47245D01*
X184194Y37942D02*
Y38730D01*
X187934Y46561D02*
Y46997D01*
X201618Y46561D02*
X202054Y46124D01*
X213057D02*
X213275D01*
X148072Y47493D02*
Y47588D01*
Y47493D02*
X163722D01*
X163970Y47245D01*
X187956Y47666D02*
X201640D01*
X105905Y21954D02*
Y28440D01*
X317315Y127631D02*
X322433D01*
X206299Y200787D02*
X211024D01*
X83071Y253937D02*
Y259055D01*
X82284Y146850D02*
Y155118D01*
X83071Y270079D02*
X83287Y270295D01*
Y279685D01*
X83504Y279902D01*
X83071Y270079D02*
X95669D01*
X295681Y126883D02*
Y127631D01*
X185177Y200433D02*
X185354Y200610D01*
X195098D01*
X167717Y215748D02*
X188583D01*
X194882Y200827D02*
Y209449D01*
X188583Y215748D02*
X194882Y209449D01*
X305504Y127631D02*
Y135834D01*
X301181Y140157D02*
X305504Y135834D01*
X295681Y127631D02*
X305504D01*
X194882Y200827D02*
X195098Y200610D01*
X293503Y37992D02*
Y67521D01*
X283858Y140157D02*
X301181D01*
X82284Y115354D02*
Y134252D01*
D46*
X13386Y135827D02*
D03*
D47*
X225693Y66929D02*
D03*
X157151Y29478D02*
D03*
X163722Y31524D02*
D03*
X223745Y46063D02*
D03*
X105905Y21954D02*
D03*
X82284Y155118D02*
D03*
X322433Y127631D02*
D03*
X211417Y168898D02*
D03*
X211024Y200787D02*
D03*
X322827Y95741D02*
D03*
X83071Y253937D02*
D03*
X52756D02*
D03*
M02*
