G04*
G04 #@! TF.GenerationSoftware,Altium Limited,Altium Designer,25.8.1 (18)*
G04*
G04 Layer_Color=16711935*
%FSLAX25Y25*%
%MOIN*%
G70*
G04*
G04 #@! TF.SameCoordinates,89EB4D55-A1BB-4405-A785-52806EBC1AC1*
G04*
G04*
G04 #@! TF.FilePolarity,Positive*
G04*
G01*
G75*
%ADD13C,0.00787*%
G36*
X207665Y43605D02*
X206496D01*
X206467Y43609D01*
X206434D01*
X206358Y43612D01*
X206278Y43623D01*
X206190Y43634D01*
X206110Y43652D01*
X206070Y43663D01*
X206037Y43674D01*
X206034D01*
X206030Y43678D01*
X206008Y43689D01*
X205976Y43703D01*
X205936Y43729D01*
X205892Y43762D01*
X205845Y43805D01*
X205801Y43856D01*
X205757Y43914D01*
Y43918D01*
X205754Y43922D01*
X205739Y43944D01*
X205725Y43980D01*
X205703Y44027D01*
X205684Y44082D01*
X205666Y44147D01*
X205655Y44216D01*
X205652Y44293D01*
Y44297D01*
Y44304D01*
Y44318D01*
X205655Y44337D01*
Y44362D01*
X205659Y44388D01*
X205674Y44449D01*
X205695Y44522D01*
X205725Y44599D01*
X205768Y44675D01*
X205797Y44712D01*
X205826Y44748D01*
X205830Y44752D01*
X205834Y44755D01*
X205845Y44766D01*
X205859Y44777D01*
X205877Y44792D01*
X205899Y44806D01*
X205928Y44824D01*
X205957Y44846D01*
X205994Y44864D01*
X206034Y44883D01*
X206078Y44905D01*
X206125Y44923D01*
X206179Y44937D01*
X206234Y44955D01*
X206296Y44966D01*
X206362Y44977D01*
X206354Y44981D01*
X206340Y44988D01*
X206318Y45003D01*
X206289Y45017D01*
X206223Y45057D01*
X206190Y45083D01*
X206161Y45105D01*
X206154Y45112D01*
X206136Y45130D01*
X206107Y45159D01*
X206070Y45196D01*
X206030Y45247D01*
X205983Y45301D01*
X205936Y45367D01*
X205885Y45440D01*
X205451Y46124D01*
X205866D01*
X206198Y45600D01*
Y45596D01*
X206205Y45589D01*
X206212Y45578D01*
X206223Y45563D01*
X206249Y45523D01*
X206281Y45472D01*
X206321Y45418D01*
X206362Y45360D01*
X206401Y45305D01*
X206438Y45254D01*
X206442Y45250D01*
X206452Y45236D01*
X206471Y45214D01*
X206496Y45188D01*
X206551Y45134D01*
X206580Y45108D01*
X206609Y45087D01*
X206613Y45083D01*
X206620Y45079D01*
X206634Y45072D01*
X206656Y45061D01*
X206678Y45050D01*
X206704Y45039D01*
X206762Y45021D01*
X206766D01*
X206773Y45017D01*
X206787D01*
X206806Y45014D01*
X206831Y45010D01*
X206860D01*
X206900Y45006D01*
X207330D01*
Y46124D01*
X207665D01*
Y43605D01*
D02*
G37*
G36*
X205299Y46120D02*
Y46106D01*
Y46084D01*
X205295Y46055D01*
X205291Y46022D01*
X205284Y45986D01*
X205277Y45949D01*
X205262Y45909D01*
Y45906D01*
X205259Y45902D01*
X205251Y45880D01*
X205237Y45847D01*
X205215Y45804D01*
X205186Y45753D01*
X205149Y45694D01*
X205109Y45636D01*
X205058Y45574D01*
Y45571D01*
X205051Y45567D01*
X205033Y45545D01*
X205000Y45512D01*
X204953Y45465D01*
X204898Y45410D01*
X204829Y45345D01*
X204745Y45272D01*
X204654Y45196D01*
X204651Y45192D01*
X204636Y45181D01*
X204614Y45163D01*
X204589Y45141D01*
X204556Y45112D01*
X204516Y45079D01*
X204476Y45043D01*
X204429Y45003D01*
X204338Y44915D01*
X204247Y44828D01*
X204203Y44784D01*
X204163Y44741D01*
X204127Y44701D01*
X204097Y44661D01*
Y44657D01*
X204090Y44653D01*
X204083Y44642D01*
X204076Y44628D01*
X204050Y44588D01*
X204021Y44541D01*
X203995Y44482D01*
X203970Y44420D01*
X203955Y44351D01*
X203948Y44286D01*
Y44282D01*
Y44278D01*
X203952Y44257D01*
X203955Y44220D01*
X203966Y44180D01*
X203981Y44129D01*
X204006Y44078D01*
X204039Y44027D01*
X204083Y43976D01*
X204090Y43969D01*
X204108Y43954D01*
X204134Y43936D01*
X204174Y43911D01*
X204225Y43889D01*
X204283Y43867D01*
X204352Y43852D01*
X204429Y43849D01*
X204450D01*
X204465Y43852D01*
X204509Y43856D01*
X204560Y43867D01*
X204614Y43882D01*
X204676Y43907D01*
X204734Y43940D01*
X204789Y43984D01*
X204796Y43991D01*
X204811Y44009D01*
X204833Y44038D01*
X204854Y44082D01*
X204880Y44133D01*
X204902Y44198D01*
X204916Y44271D01*
X204924Y44355D01*
X205240Y44322D01*
Y44318D01*
X205237Y44308D01*
Y44289D01*
X205233Y44264D01*
X205226Y44235D01*
X205219Y44202D01*
X205208Y44162D01*
X205197Y44122D01*
X205168Y44034D01*
X205124Y43947D01*
X205098Y43903D01*
X205066Y43860D01*
X205033Y43820D01*
X204996Y43783D01*
X204993Y43780D01*
X204986Y43776D01*
X204975Y43765D01*
X204956Y43754D01*
X204935Y43740D01*
X204909Y43725D01*
X204880Y43707D01*
X204844Y43689D01*
X204804Y43670D01*
X204760Y43652D01*
X204713Y43638D01*
X204662Y43623D01*
X204607Y43612D01*
X204549Y43601D01*
X204487Y43598D01*
X204421Y43594D01*
X204385D01*
X204360Y43598D01*
X204330Y43601D01*
X204294Y43605D01*
X204254Y43612D01*
X204214Y43620D01*
X204119Y43645D01*
X204025Y43681D01*
X203977Y43703D01*
X203930Y43729D01*
X203886Y43762D01*
X203846Y43798D01*
X203843Y43802D01*
X203835Y43805D01*
X203828Y43820D01*
X203814Y43834D01*
X203795Y43852D01*
X203777Y43878D01*
X203759Y43903D01*
X203737Y43936D01*
X203701Y44005D01*
X203664Y44093D01*
X203650Y44136D01*
X203642Y44187D01*
X203635Y44238D01*
X203631Y44293D01*
Y44300D01*
Y44318D01*
X203635Y44348D01*
X203639Y44388D01*
X203646Y44431D01*
X203661Y44482D01*
X203675Y44537D01*
X203697Y44591D01*
X203701Y44599D01*
X203708Y44617D01*
X203723Y44646D01*
X203744Y44686D01*
X203773Y44730D01*
X203810Y44784D01*
X203854Y44839D01*
X203905Y44901D01*
X203912Y44908D01*
X203930Y44930D01*
X203948Y44948D01*
X203966Y44966D01*
X203988Y44988D01*
X204017Y45017D01*
X204046Y45046D01*
X204083Y45079D01*
X204119Y45116D01*
X204163Y45156D01*
X204210Y45196D01*
X204261Y45243D01*
X204319Y45290D01*
X204378Y45341D01*
X204381Y45345D01*
X204389Y45352D01*
X204403Y45363D01*
X204421Y45378D01*
X204443Y45399D01*
X204469Y45421D01*
X204527Y45469D01*
X204589Y45523D01*
X204647Y45578D01*
X204698Y45625D01*
X204720Y45643D01*
X204738Y45662D01*
X204742Y45665D01*
X204753Y45676D01*
X204767Y45691D01*
X204785Y45713D01*
X204804Y45738D01*
X204825Y45763D01*
X204869Y45825D01*
X203628D01*
Y46124D01*
X205299D01*
Y46120D01*
D02*
G37*
G36*
X245898Y69499D02*
X245946Y69492D01*
X246004Y69481D01*
X246069Y69463D01*
X246135Y69441D01*
X246200Y69412D01*
X246204D01*
X246208Y69408D01*
X246230Y69397D01*
X246262Y69375D01*
X246299Y69350D01*
X246342Y69313D01*
X246386Y69273D01*
X246430Y69226D01*
X246466Y69171D01*
X246470Y69164D01*
X246481Y69146D01*
X246495Y69113D01*
X246514Y69073D01*
X246532Y69026D01*
X246546Y68971D01*
X246557Y68909D01*
X246561Y68847D01*
Y68840D01*
Y68818D01*
X246557Y68789D01*
X246550Y68749D01*
X246539Y68702D01*
X246521Y68651D01*
X246499Y68600D01*
X246470Y68549D01*
X246466Y68542D01*
X246455Y68527D01*
X246433Y68502D01*
X246404Y68472D01*
X246368Y68440D01*
X246324Y68403D01*
X246273Y68370D01*
X246211Y68338D01*
X246215D01*
X246222Y68334D01*
X246233Y68331D01*
X246248Y68327D01*
X246288Y68312D01*
X246339Y68290D01*
X246397Y68261D01*
X246455Y68225D01*
X246510Y68178D01*
X246561Y68123D01*
X246564Y68116D01*
X246579Y68094D01*
X246601Y68058D01*
X246623Y68010D01*
X246644Y67952D01*
X246666Y67883D01*
X246681Y67803D01*
X246685Y67715D01*
Y67712D01*
Y67701D01*
Y67683D01*
X246681Y67661D01*
X246677Y67632D01*
X246670Y67599D01*
X246663Y67562D01*
X246656Y67522D01*
X246626Y67435D01*
X246604Y67388D01*
X246583Y67344D01*
X246553Y67297D01*
X246521Y67249D01*
X246484Y67202D01*
X246441Y67158D01*
X246437Y67155D01*
X246430Y67147D01*
X246415Y67137D01*
X246397Y67122D01*
X246375Y67104D01*
X246346Y67086D01*
X246313Y67064D01*
X246273Y67046D01*
X246233Y67024D01*
X246186Y67002D01*
X246139Y66984D01*
X246084Y66966D01*
X246026Y66951D01*
X245964Y66940D01*
X245902Y66933D01*
X245833Y66929D01*
X245800D01*
X245778Y66933D01*
X245749Y66936D01*
X245716Y66940D01*
X245680Y66947D01*
X245640Y66955D01*
X245552Y66976D01*
X245462Y67013D01*
X245414Y67035D01*
X245371Y67060D01*
X245327Y67093D01*
X245283Y67126D01*
X245280Y67129D01*
X245272Y67137D01*
X245261Y67147D01*
X245250Y67162D01*
X245232Y67180D01*
X245214Y67206D01*
X245192Y67231D01*
X245170Y67264D01*
X245148Y67300D01*
X245127Y67337D01*
X245087Y67424D01*
X245054Y67526D01*
X245043Y67581D01*
X245036Y67639D01*
X245345Y67679D01*
Y67675D01*
X245349Y67668D01*
X245352Y67653D01*
X245356Y67635D01*
X245360Y67613D01*
X245367Y67588D01*
X245385Y67533D01*
X245411Y67468D01*
X245443Y67406D01*
X245480Y67348D01*
X245523Y67297D01*
X245531Y67293D01*
X245545Y67278D01*
X245574Y67260D01*
X245611Y67242D01*
X245654Y67220D01*
X245709Y67202D01*
X245771Y67188D01*
X245836Y67184D01*
X245858D01*
X245873Y67188D01*
X245913Y67191D01*
X245964Y67202D01*
X246022Y67220D01*
X246084Y67246D01*
X246146Y67282D01*
X246204Y67333D01*
X246211Y67340D01*
X246230Y67362D01*
X246251Y67395D01*
X246281Y67439D01*
X246310Y67493D01*
X246332Y67555D01*
X246350Y67628D01*
X246357Y67708D01*
Y67712D01*
Y67719D01*
Y67730D01*
X246353Y67744D01*
X246350Y67785D01*
X246339Y67832D01*
X246324Y67890D01*
X246299Y67948D01*
X246262Y68006D01*
X246215Y68061D01*
X246208Y68068D01*
X246189Y68083D01*
X246160Y68105D01*
X246120Y68130D01*
X246069Y68156D01*
X246007Y68178D01*
X245938Y68192D01*
X245862Y68199D01*
X245829D01*
X245804Y68196D01*
X245771Y68192D01*
X245735Y68185D01*
X245691Y68178D01*
X245643Y68167D01*
X245680Y68440D01*
X245698D01*
X245713Y68436D01*
X245760D01*
X245800Y68443D01*
X245847Y68451D01*
X245902Y68462D01*
X245964Y68480D01*
X246022Y68505D01*
X246084Y68538D01*
X246088D01*
X246091Y68542D01*
X246110Y68556D01*
X246135Y68582D01*
X246164Y68614D01*
X246193Y68662D01*
X246219Y68716D01*
X246237Y68778D01*
X246244Y68815D01*
Y68855D01*
Y68858D01*
Y68862D01*
Y68884D01*
X246237Y68913D01*
X246230Y68953D01*
X246215Y68997D01*
X246197Y69044D01*
X246168Y69091D01*
X246128Y69135D01*
X246124Y69139D01*
X246106Y69153D01*
X246080Y69171D01*
X246048Y69193D01*
X246004Y69211D01*
X245953Y69230D01*
X245895Y69244D01*
X245829Y69248D01*
X245800D01*
X245767Y69240D01*
X245724Y69233D01*
X245676Y69219D01*
X245629Y69200D01*
X245578Y69171D01*
X245531Y69135D01*
X245527Y69131D01*
X245513Y69113D01*
X245491Y69088D01*
X245465Y69051D01*
X245440Y69004D01*
X245414Y68946D01*
X245392Y68876D01*
X245378Y68796D01*
X245068Y68851D01*
Y68855D01*
X245072Y68866D01*
X245076Y68880D01*
X245079Y68902D01*
X245087Y68927D01*
X245097Y68957D01*
X245119Y69026D01*
X245156Y69106D01*
X245199Y69186D01*
X245254Y69262D01*
X245323Y69332D01*
X245327Y69335D01*
X245334Y69339D01*
X245345Y69346D01*
X245360Y69357D01*
X245378Y69371D01*
X245403Y69386D01*
X245429Y69401D01*
X245462Y69419D01*
X245534Y69448D01*
X245618Y69477D01*
X245716Y69495D01*
X245767Y69503D01*
X245858D01*
X245898Y69499D01*
D02*
G37*
G36*
X243820Y69488D02*
X243853D01*
X243929Y69484D01*
X244009Y69473D01*
X244096Y69463D01*
X244177Y69444D01*
X244217Y69433D01*
X244249Y69423D01*
X244253D01*
X244257Y69419D01*
X244279Y69408D01*
X244311Y69393D01*
X244351Y69368D01*
X244395Y69335D01*
X244442Y69291D01*
X244486Y69240D01*
X244530Y69182D01*
Y69179D01*
X244533Y69175D01*
X244548Y69153D01*
X244562Y69117D01*
X244584Y69069D01*
X244602Y69015D01*
X244621Y68949D01*
X244632Y68880D01*
X244635Y68804D01*
Y68800D01*
Y68793D01*
Y68778D01*
X244632Y68760D01*
Y68735D01*
X244628Y68709D01*
X244613Y68647D01*
X244592Y68574D01*
X244562Y68498D01*
X244519Y68422D01*
X244490Y68385D01*
X244461Y68349D01*
X244457Y68345D01*
X244453Y68341D01*
X244442Y68331D01*
X244428Y68320D01*
X244410Y68305D01*
X244388Y68290D01*
X244359Y68272D01*
X244330Y68250D01*
X244293Y68232D01*
X244253Y68214D01*
X244209Y68192D01*
X244162Y68174D01*
X244108Y68159D01*
X244053Y68141D01*
X243991Y68130D01*
X243925Y68119D01*
X243933Y68116D01*
X243947Y68108D01*
X243969Y68094D01*
X243998Y68079D01*
X244064Y68039D01*
X244096Y68014D01*
X244126Y67992D01*
X244133Y67985D01*
X244151Y67967D01*
X244180Y67937D01*
X244217Y67901D01*
X244257Y67850D01*
X244304Y67795D01*
X244351Y67730D01*
X244402Y67657D01*
X244835Y66973D01*
X244421D01*
X244089Y67497D01*
Y67501D01*
X244082Y67508D01*
X244075Y67519D01*
X244064Y67533D01*
X244038Y67573D01*
X244005Y67624D01*
X243966Y67679D01*
X243925Y67737D01*
X243885Y67792D01*
X243849Y67843D01*
X243845Y67846D01*
X243834Y67861D01*
X243816Y67883D01*
X243791Y67908D01*
X243736Y67963D01*
X243707Y67988D01*
X243678Y68010D01*
X243674Y68014D01*
X243667Y68017D01*
X243652Y68025D01*
X243631Y68036D01*
X243609Y68047D01*
X243583Y68058D01*
X243525Y68076D01*
X243521D01*
X243514Y68079D01*
X243500D01*
X243481Y68083D01*
X243456Y68087D01*
X243427D01*
X243387Y68090D01*
X242957D01*
Y66973D01*
X242622D01*
Y69492D01*
X243791D01*
X243820Y69488D01*
D02*
G37*
G36*
X107292Y33461D02*
X107329D01*
X107365Y33457D01*
X107412Y33454D01*
X107460Y33446D01*
X107565Y33428D01*
X107682Y33403D01*
X107798Y33366D01*
X107911Y33315D01*
X107915Y33312D01*
X107926Y33308D01*
X107940Y33301D01*
X107958Y33286D01*
X107984Y33272D01*
X108013Y33253D01*
X108079Y33206D01*
X108151Y33144D01*
X108224Y33072D01*
X108297Y32988D01*
X108359Y32890D01*
X108362Y32886D01*
X108366Y32875D01*
X108373Y32860D01*
X108384Y32842D01*
X108395Y32813D01*
X108406Y32784D01*
X108421Y32748D01*
X108435Y32708D01*
X108450Y32664D01*
X108464Y32616D01*
X108486Y32515D01*
X108504Y32398D01*
X108512Y32278D01*
Y32242D01*
X108508Y32216D01*
X108504Y32183D01*
X108501Y32143D01*
X108497Y32103D01*
X108486Y32056D01*
X108464Y31958D01*
X108432Y31848D01*
X108410Y31794D01*
X108384Y31743D01*
X108352Y31692D01*
X108319Y31641D01*
X108315Y31637D01*
X108311Y31630D01*
X108301Y31615D01*
X108282Y31597D01*
X108264Y31579D01*
X108239Y31554D01*
X108210Y31528D01*
X108180Y31499D01*
X108144Y31470D01*
X108100Y31441D01*
X108057Y31408D01*
X108009Y31379D01*
X107955Y31353D01*
X107900Y31324D01*
X107842Y31302D01*
X107776Y31281D01*
X107700Y31608D01*
X107704D01*
X107711Y31612D01*
X107726Y31619D01*
X107744Y31626D01*
X107765Y31634D01*
X107795Y31645D01*
X107853Y31674D01*
X107918Y31710D01*
X107984Y31754D01*
X108046Y31808D01*
X108100Y31867D01*
X108108Y31874D01*
X108122Y31896D01*
X108140Y31932D01*
X108166Y31980D01*
X108188Y32041D01*
X108210Y32111D01*
X108224Y32194D01*
X108228Y32285D01*
Y32314D01*
X108224Y32333D01*
Y32358D01*
X108221Y32387D01*
X108210Y32456D01*
X108195Y32533D01*
X108170Y32613D01*
X108133Y32697D01*
X108086Y32773D01*
Y32777D01*
X108079Y32780D01*
X108060Y32806D01*
X108031Y32838D01*
X107988Y32879D01*
X107933Y32926D01*
X107871Y32970D01*
X107795Y33010D01*
X107711Y33046D01*
X107707D01*
X107700Y33050D01*
X107689Y33053D01*
X107671Y33057D01*
X107649Y33064D01*
X107624Y33072D01*
X107562Y33082D01*
X107489Y33097D01*
X107409Y33112D01*
X107321Y33119D01*
X107227Y33122D01*
X107223D01*
X107212D01*
X107194D01*
X107172D01*
X107147Y33119D01*
X107114D01*
X107078Y33115D01*
X107037Y33112D01*
X106950Y33101D01*
X106855Y33082D01*
X106761Y33061D01*
X106666Y33031D01*
X106663D01*
X106655Y33028D01*
X106644Y33020D01*
X106626Y33013D01*
X106582Y32991D01*
X106532Y32959D01*
X106473Y32919D01*
X106411Y32868D01*
X106357Y32809D01*
X106306Y32740D01*
Y32737D01*
X106302Y32729D01*
X106295Y32718D01*
X106288Y32704D01*
X106280Y32686D01*
X106270Y32664D01*
X106248Y32613D01*
X106226Y32547D01*
X106208Y32474D01*
X106193Y32394D01*
X106189Y32311D01*
Y32285D01*
X106193Y32263D01*
Y32238D01*
X106197Y32212D01*
X106211Y32147D01*
X106229Y32070D01*
X106258Y31994D01*
X106299Y31914D01*
X106320Y31874D01*
X106350Y31837D01*
X106353Y31834D01*
X106357Y31830D01*
X106368Y31819D01*
X106379Y31805D01*
X106397Y31790D01*
X106419Y31772D01*
X106441Y31750D01*
X106470Y31732D01*
X106502Y31710D01*
X106539Y31685D01*
X106575Y31663D01*
X106619Y31641D01*
X106666Y31623D01*
X106717Y31605D01*
X106772Y31586D01*
X106830Y31572D01*
X106746Y31237D01*
X106743D01*
X106728Y31241D01*
X106706Y31248D01*
X106677Y31259D01*
X106644Y31270D01*
X106604Y31284D01*
X106561Y31302D01*
X106513Y31324D01*
X106411Y31375D01*
X106309Y31441D01*
X106258Y31481D01*
X106208Y31521D01*
X106164Y31565D01*
X106120Y31615D01*
X106117Y31619D01*
X106109Y31626D01*
X106102Y31645D01*
X106088Y31663D01*
X106069Y31692D01*
X106051Y31721D01*
X106033Y31761D01*
X106015Y31801D01*
X105993Y31848D01*
X105975Y31899D01*
X105956Y31954D01*
X105938Y32012D01*
X105924Y32074D01*
X105916Y32140D01*
X105909Y32209D01*
X105905Y32282D01*
Y32322D01*
X105909Y32351D01*
Y32383D01*
X105913Y32424D01*
X105920Y32467D01*
X105927Y32518D01*
X105946Y32624D01*
X105975Y32733D01*
X106015Y32842D01*
X106040Y32893D01*
X106069Y32944D01*
X106073Y32948D01*
X106077Y32955D01*
X106088Y32970D01*
X106102Y32984D01*
X106117Y33006D01*
X106138Y33031D01*
X106164Y33061D01*
X106193Y33090D01*
X106226Y33119D01*
X106258Y33152D01*
X106342Y33217D01*
X106441Y33279D01*
X106550Y33334D01*
X106553D01*
X106564Y33341D01*
X106582Y33345D01*
X106604Y33355D01*
X106633Y33363D01*
X106670Y33374D01*
X106710Y33388D01*
X106754Y33399D01*
X106801Y33410D01*
X106855Y33425D01*
X106968Y33443D01*
X107096Y33457D01*
X107227Y33465D01*
X107230D01*
X107245D01*
X107267D01*
X107292Y33461D01*
D02*
G37*
G36*
X107846Y30713D02*
X107853Y30705D01*
X107857Y30691D01*
X107867Y30673D01*
X107878Y30651D01*
X107893Y30625D01*
X107929Y30564D01*
X107969Y30491D01*
X108020Y30418D01*
X108079Y30342D01*
X108140Y30265D01*
X108144Y30261D01*
X108148Y30258D01*
X108159Y30247D01*
X108170Y30232D01*
X108206Y30200D01*
X108250Y30156D01*
X108301Y30112D01*
X108359Y30065D01*
X108417Y30025D01*
X108479Y29988D01*
Y29788D01*
X105949D01*
Y30098D01*
X107918D01*
X107915Y30101D01*
X107900Y30119D01*
X107878Y30141D01*
X107853Y30178D01*
X107820Y30218D01*
X107784Y30269D01*
X107744Y30327D01*
X107704Y30393D01*
Y30396D01*
X107700Y30400D01*
X107685Y30422D01*
X107667Y30458D01*
X107645Y30502D01*
X107620Y30553D01*
X107594Y30607D01*
X107569Y30662D01*
X107547Y30716D01*
X107846D01*
Y30713D01*
D02*
G37*
G36*
Y28754D02*
X107853Y28747D01*
X107857Y28733D01*
X107867Y28714D01*
X107878Y28693D01*
X107893Y28667D01*
X107929Y28605D01*
X107969Y28532D01*
X108020Y28460D01*
X108079Y28383D01*
X108140Y28307D01*
X108144Y28303D01*
X108148Y28299D01*
X108159Y28288D01*
X108170Y28274D01*
X108206Y28241D01*
X108250Y28198D01*
X108301Y28154D01*
X108359Y28106D01*
X108417Y28067D01*
X108479Y28030D01*
Y27830D01*
X105949D01*
Y28139D01*
X107918D01*
X107915Y28143D01*
X107900Y28161D01*
X107878Y28183D01*
X107853Y28219D01*
X107820Y28259D01*
X107784Y28310D01*
X107744Y28369D01*
X107704Y28434D01*
Y28438D01*
X107700Y28441D01*
X107685Y28463D01*
X107667Y28500D01*
X107645Y28543D01*
X107620Y28594D01*
X107594Y28649D01*
X107569Y28703D01*
X107547Y28758D01*
X107846D01*
Y28754D01*
D02*
G37*
G36*
X165109Y42466D02*
X165145D01*
X165181Y42463D01*
X165229Y42459D01*
X165276Y42452D01*
X165382Y42434D01*
X165498Y42408D01*
X165614Y42372D01*
X165727Y42321D01*
X165731Y42317D01*
X165742Y42313D01*
X165756Y42306D01*
X165775Y42292D01*
X165800Y42277D01*
X165829Y42259D01*
X165895Y42211D01*
X165968Y42150D01*
X166040Y42077D01*
X166113Y41993D01*
X166175Y41895D01*
X166179Y41891D01*
X166182Y41880D01*
X166190Y41866D01*
X166200Y41848D01*
X166211Y41818D01*
X166222Y41789D01*
X166237Y41753D01*
X166251Y41713D01*
X166266Y41669D01*
X166281Y41622D01*
X166302Y41520D01*
X166321Y41403D01*
X166328Y41283D01*
Y41247D01*
X166324Y41221D01*
X166321Y41189D01*
X166317Y41149D01*
X166313Y41109D01*
X166302Y41061D01*
X166281Y40963D01*
X166248Y40854D01*
X166226Y40799D01*
X166200Y40748D01*
X166168Y40697D01*
X166135Y40646D01*
X166131Y40643D01*
X166128Y40635D01*
X166117Y40621D01*
X166099Y40603D01*
X166080Y40584D01*
X166055Y40559D01*
X166026Y40534D01*
X165997Y40504D01*
X165960Y40475D01*
X165917Y40446D01*
X165873Y40413D01*
X165826Y40384D01*
X165771Y40359D01*
X165716Y40330D01*
X165658Y40308D01*
X165593Y40286D01*
X165516Y40613D01*
X165520D01*
X165527Y40617D01*
X165542Y40624D01*
X165560Y40632D01*
X165582Y40639D01*
X165611Y40650D01*
X165669Y40679D01*
X165735Y40716D01*
X165800Y40759D01*
X165862Y40814D01*
X165917Y40872D01*
X165924Y40879D01*
X165938Y40901D01*
X165957Y40938D01*
X165982Y40985D01*
X166004Y41047D01*
X166026Y41116D01*
X166040Y41200D01*
X166044Y41291D01*
Y41320D01*
X166040Y41338D01*
Y41363D01*
X166037Y41392D01*
X166026Y41462D01*
X166011Y41538D01*
X165986Y41618D01*
X165949Y41702D01*
X165902Y41778D01*
Y41782D01*
X165895Y41786D01*
X165876Y41811D01*
X165847Y41844D01*
X165804Y41884D01*
X165749Y41931D01*
X165687Y41975D01*
X165611Y42015D01*
X165527Y42051D01*
X165523D01*
X165516Y42055D01*
X165505Y42059D01*
X165487Y42062D01*
X165465Y42070D01*
X165440Y42077D01*
X165378Y42088D01*
X165305Y42102D01*
X165225Y42117D01*
X165138Y42124D01*
X165043Y42128D01*
X165039D01*
X165028D01*
X165010D01*
X164988D01*
X164963Y42124D01*
X164930D01*
X164894Y42121D01*
X164854Y42117D01*
X164766Y42106D01*
X164672Y42088D01*
X164577Y42066D01*
X164482Y42037D01*
X164479D01*
X164471Y42033D01*
X164461Y42026D01*
X164442Y42019D01*
X164399Y41997D01*
X164348Y41964D01*
X164289Y41924D01*
X164228Y41873D01*
X164173Y41815D01*
X164122Y41746D01*
Y41742D01*
X164118Y41735D01*
X164111Y41724D01*
X164104Y41709D01*
X164097Y41691D01*
X164086Y41669D01*
X164064Y41618D01*
X164042Y41553D01*
X164024Y41480D01*
X164009Y41400D01*
X164006Y41316D01*
Y41291D01*
X164009Y41269D01*
Y41243D01*
X164013Y41218D01*
X164027Y41152D01*
X164046Y41076D01*
X164075Y40999D01*
X164115Y40919D01*
X164137Y40879D01*
X164166Y40843D01*
X164169Y40839D01*
X164173Y40836D01*
X164184Y40825D01*
X164195Y40810D01*
X164213Y40795D01*
X164235Y40777D01*
X164257Y40756D01*
X164286Y40737D01*
X164319Y40716D01*
X164355Y40690D01*
X164391Y40668D01*
X164435Y40646D01*
X164482Y40628D01*
X164533Y40610D01*
X164588Y40592D01*
X164646Y40577D01*
X164562Y40242D01*
X164559D01*
X164544Y40246D01*
X164522Y40253D01*
X164493Y40264D01*
X164461Y40275D01*
X164420Y40290D01*
X164377Y40308D01*
X164330Y40330D01*
X164228Y40381D01*
X164126Y40446D01*
X164075Y40486D01*
X164024Y40526D01*
X163980Y40570D01*
X163936Y40621D01*
X163933Y40624D01*
X163926Y40632D01*
X163918Y40650D01*
X163904Y40668D01*
X163885Y40697D01*
X163867Y40726D01*
X163849Y40766D01*
X163831Y40806D01*
X163809Y40854D01*
X163791Y40905D01*
X163773Y40959D01*
X163754Y41018D01*
X163740Y41080D01*
X163733Y41145D01*
X163725Y41214D01*
X163722Y41287D01*
Y41327D01*
X163725Y41356D01*
Y41389D01*
X163729Y41429D01*
X163736Y41473D01*
X163743Y41524D01*
X163762Y41629D01*
X163791Y41738D01*
X163831Y41848D01*
X163856Y41899D01*
X163885Y41949D01*
X163889Y41953D01*
X163893Y41960D01*
X163904Y41975D01*
X163918Y41989D01*
X163933Y42011D01*
X163955Y42037D01*
X163980Y42066D01*
X164009Y42095D01*
X164042Y42124D01*
X164075Y42157D01*
X164158Y42222D01*
X164257Y42284D01*
X164366Y42339D01*
X164370D01*
X164381Y42346D01*
X164399Y42350D01*
X164420Y42361D01*
X164450Y42368D01*
X164486Y42379D01*
X164526Y42393D01*
X164570Y42404D01*
X164617Y42415D01*
X164672Y42430D01*
X164785Y42448D01*
X164912Y42463D01*
X165043Y42470D01*
X165047D01*
X165061D01*
X165083D01*
X165109Y42466D01*
D02*
G37*
G36*
X165662Y39718D02*
X165669Y39711D01*
X165673Y39696D01*
X165684Y39678D01*
X165694Y39656D01*
X165709Y39631D01*
X165745Y39569D01*
X165786Y39496D01*
X165837Y39423D01*
X165895Y39347D01*
X165957Y39270D01*
X165960Y39267D01*
X165964Y39263D01*
X165975Y39252D01*
X165986Y39238D01*
X166022Y39205D01*
X166066Y39161D01*
X166117Y39118D01*
X166175Y39070D01*
X166233Y39030D01*
X166295Y38994D01*
Y38794D01*
X163765D01*
Y39103D01*
X165735D01*
X165731Y39107D01*
X165716Y39125D01*
X165694Y39147D01*
X165669Y39183D01*
X165636Y39223D01*
X165600Y39274D01*
X165560Y39332D01*
X165520Y39398D01*
Y39401D01*
X165516Y39405D01*
X165502Y39427D01*
X165483Y39463D01*
X165462Y39507D01*
X165436Y39558D01*
X165411Y39612D01*
X165385Y39667D01*
X165363Y39722D01*
X165662D01*
Y39718D01*
D02*
G37*
G36*
X165119Y37996D02*
X165163D01*
X165210Y37993D01*
X165265Y37989D01*
X165378Y37978D01*
X165498Y37960D01*
X165618Y37938D01*
X165673Y37924D01*
X165727Y37909D01*
X165731D01*
X165738Y37905D01*
X165753Y37898D01*
X165771Y37891D01*
X165796Y37883D01*
X165822Y37869D01*
X165884Y37840D01*
X165949Y37804D01*
X166018Y37756D01*
X166088Y37701D01*
X166146Y37636D01*
Y37632D01*
X166153Y37629D01*
X166160Y37618D01*
X166168Y37603D01*
X166182Y37585D01*
X166193Y37563D01*
X166222Y37509D01*
X166248Y37443D01*
X166273Y37367D01*
X166288Y37276D01*
X166295Y37177D01*
Y37145D01*
X166291Y37105D01*
X166284Y37057D01*
X166273Y37003D01*
X166259Y36944D01*
X166241Y36882D01*
X166211Y36824D01*
Y36821D01*
X166208Y36817D01*
X166197Y36799D01*
X166179Y36770D01*
X166153Y36733D01*
X166117Y36693D01*
X166077Y36650D01*
X166029Y36610D01*
X165975Y36569D01*
X165968Y36566D01*
X165949Y36551D01*
X165917Y36537D01*
X165869Y36511D01*
X165815Y36489D01*
X165753Y36460D01*
X165680Y36435D01*
X165600Y36413D01*
X165596D01*
X165589Y36409D01*
X165578Y36406D01*
X165560Y36402D01*
X165538Y36398D01*
X165513Y36395D01*
X165480Y36388D01*
X165443Y36384D01*
X165403Y36377D01*
X165360Y36373D01*
X165309Y36369D01*
X165258Y36362D01*
X165199Y36358D01*
X165141D01*
X165076Y36355D01*
X165007D01*
X165003D01*
X164988D01*
X164963D01*
X164934D01*
X164894Y36358D01*
X164850D01*
X164803Y36362D01*
X164752Y36366D01*
X164635Y36377D01*
X164515Y36395D01*
X164399Y36417D01*
X164344Y36431D01*
X164289Y36449D01*
X164286D01*
X164279Y36453D01*
X164264Y36460D01*
X164246Y36468D01*
X164220Y36475D01*
X164195Y36489D01*
X164133Y36518D01*
X164067Y36555D01*
X163995Y36602D01*
X163929Y36657D01*
X163867Y36722D01*
Y36726D01*
X163860Y36730D01*
X163853Y36741D01*
X163845Y36755D01*
X163835Y36773D01*
X163820Y36792D01*
X163794Y36846D01*
X163769Y36912D01*
X163743Y36988D01*
X163729Y37079D01*
X163722Y37177D01*
Y37214D01*
X163725Y37239D01*
X163729Y37268D01*
X163736Y37305D01*
X163743Y37345D01*
X163754Y37389D01*
X163769Y37432D01*
X163784Y37479D01*
X163805Y37527D01*
X163831Y37574D01*
X163860Y37622D01*
X163896Y37669D01*
X163936Y37712D01*
X163980Y37753D01*
X163984Y37756D01*
X163995Y37763D01*
X164013Y37774D01*
X164042Y37793D01*
X164075Y37811D01*
X164118Y37829D01*
X164169Y37854D01*
X164228Y37876D01*
X164293Y37898D01*
X164370Y37920D01*
X164453Y37942D01*
X164548Y37960D01*
X164650Y37978D01*
X164759Y37989D01*
X164879Y37996D01*
X165007Y38000D01*
X165010D01*
X165025D01*
X165050D01*
X165079D01*
X165119Y37996D01*
D02*
G37*
G36*
X264778Y1787D02*
Y1783D01*
Y1772D01*
Y1757D01*
Y1736D01*
X264774Y1706D01*
Y1677D01*
X264767Y1608D01*
X264759Y1528D01*
X264745Y1444D01*
X264723Y1368D01*
X264698Y1295D01*
Y1291D01*
X264694Y1288D01*
X264683Y1266D01*
X264665Y1237D01*
X264639Y1197D01*
X264603Y1157D01*
X264563Y1113D01*
X264512Y1069D01*
X264454Y1033D01*
X264446Y1029D01*
X264425Y1018D01*
X264392Y1004D01*
X264345Y989D01*
X264286Y971D01*
X264221Y957D01*
X264148Y946D01*
X264068Y942D01*
X264035D01*
X264013Y946D01*
X263984Y949D01*
X263955Y953D01*
X263879Y967D01*
X263799Y989D01*
X263715Y1022D01*
X263671Y1044D01*
X263631Y1069D01*
X263595Y1099D01*
X263558Y1131D01*
X263555Y1135D01*
X263551Y1139D01*
X263544Y1153D01*
X263533Y1168D01*
X263518Y1186D01*
X263504Y1211D01*
X263489Y1240D01*
X263471Y1273D01*
X263456Y1310D01*
X263442Y1353D01*
X263427Y1397D01*
X263413Y1448D01*
X263405Y1503D01*
X263394Y1564D01*
X263391Y1626D01*
Y1695D01*
X263693Y1739D01*
Y1736D01*
Y1728D01*
Y1714D01*
X263697Y1692D01*
X263700Y1670D01*
Y1644D01*
X263711Y1583D01*
X263722Y1517D01*
X263744Y1452D01*
X263766Y1393D01*
X263780Y1368D01*
X263799Y1346D01*
X263802Y1342D01*
X263817Y1331D01*
X263839Y1313D01*
X263868Y1295D01*
X263908Y1273D01*
X263951Y1259D01*
X264006Y1244D01*
X264064Y1240D01*
X264086D01*
X264108Y1244D01*
X264141Y1248D01*
X264174Y1255D01*
X264210Y1262D01*
X264246Y1277D01*
X264283Y1295D01*
X264286Y1299D01*
X264297Y1306D01*
X264312Y1321D01*
X264334Y1335D01*
X264352Y1361D01*
X264374Y1386D01*
X264392Y1415D01*
X264406Y1452D01*
Y1455D01*
X264414Y1470D01*
X264417Y1495D01*
X264425Y1528D01*
X264432Y1572D01*
X264436Y1626D01*
X264443Y1692D01*
Y1768D01*
Y3505D01*
X264778D01*
Y1787D01*
D02*
G37*
G36*
X266092Y3512D02*
X266121Y3508D01*
X266157Y3505D01*
X266197Y3497D01*
X266237Y3490D01*
X266332Y3464D01*
X266427Y3428D01*
X266474Y3406D01*
X266521Y3381D01*
X266565Y3348D01*
X266605Y3312D01*
X266609Y3308D01*
X266616Y3304D01*
X266623Y3290D01*
X266638Y3275D01*
X266656Y3257D01*
X266674Y3232D01*
X266692Y3206D01*
X266714Y3173D01*
X266751Y3104D01*
X266787Y3017D01*
X266802Y2973D01*
X266809Y2922D01*
X266816Y2871D01*
X266820Y2817D01*
Y2809D01*
Y2791D01*
X266816Y2762D01*
X266812Y2722D01*
X266805Y2678D01*
X266791Y2627D01*
X266776Y2573D01*
X266754Y2518D01*
X266751Y2511D01*
X266743Y2493D01*
X266729Y2464D01*
X266707Y2424D01*
X266678Y2380D01*
X266641Y2325D01*
X266598Y2271D01*
X266547Y2209D01*
X266540Y2201D01*
X266521Y2180D01*
X266503Y2161D01*
X266485Y2143D01*
X266463Y2121D01*
X266434Y2092D01*
X266405Y2063D01*
X266368Y2030D01*
X266332Y1994D01*
X266288Y1954D01*
X266241Y1914D01*
X266190Y1867D01*
X266132Y1819D01*
X266074Y1768D01*
X266070Y1765D01*
X266063Y1757D01*
X266048Y1746D01*
X266030Y1732D01*
X266008Y1710D01*
X265983Y1688D01*
X265924Y1641D01*
X265862Y1586D01*
X265804Y1532D01*
X265753Y1484D01*
X265731Y1466D01*
X265713Y1448D01*
X265710Y1444D01*
X265699Y1433D01*
X265684Y1419D01*
X265666Y1397D01*
X265648Y1371D01*
X265626Y1346D01*
X265582Y1284D01*
X266823D01*
Y986D01*
X265153D01*
Y989D01*
Y1004D01*
Y1026D01*
X265156Y1055D01*
X265160Y1088D01*
X265167Y1124D01*
X265175Y1160D01*
X265189Y1200D01*
Y1204D01*
X265193Y1208D01*
X265200Y1230D01*
X265215Y1262D01*
X265236Y1306D01*
X265265Y1357D01*
X265302Y1415D01*
X265342Y1473D01*
X265393Y1535D01*
Y1539D01*
X265400Y1543D01*
X265418Y1564D01*
X265451Y1597D01*
X265498Y1644D01*
X265553Y1699D01*
X265622Y1765D01*
X265706Y1837D01*
X265797Y1914D01*
X265801Y1918D01*
X265815Y1928D01*
X265837Y1947D01*
X265862Y1969D01*
X265895Y1998D01*
X265935Y2030D01*
X265975Y2067D01*
X266023Y2107D01*
X266114Y2194D01*
X266205Y2282D01*
X266248Y2325D01*
X266288Y2369D01*
X266325Y2409D01*
X266354Y2449D01*
Y2453D01*
X266361Y2456D01*
X266368Y2467D01*
X266376Y2482D01*
X266401Y2522D01*
X266430Y2569D01*
X266456Y2627D01*
X266481Y2689D01*
X266496Y2758D01*
X266503Y2824D01*
Y2827D01*
Y2831D01*
X266499Y2853D01*
X266496Y2889D01*
X266485Y2929D01*
X266470Y2980D01*
X266445Y3031D01*
X266412Y3082D01*
X266368Y3133D01*
X266361Y3141D01*
X266343Y3155D01*
X266318Y3173D01*
X266277Y3199D01*
X266227Y3221D01*
X266168Y3243D01*
X266099Y3257D01*
X266023Y3261D01*
X266001D01*
X265986Y3257D01*
X265943Y3253D01*
X265892Y3243D01*
X265837Y3228D01*
X265775Y3202D01*
X265717Y3170D01*
X265662Y3126D01*
X265655Y3119D01*
X265640Y3101D01*
X265619Y3071D01*
X265597Y3028D01*
X265571Y2977D01*
X265549Y2911D01*
X265535Y2838D01*
X265528Y2755D01*
X265211Y2788D01*
Y2791D01*
X265215Y2802D01*
Y2820D01*
X265218Y2846D01*
X265226Y2875D01*
X265233Y2908D01*
X265244Y2948D01*
X265255Y2988D01*
X265284Y3075D01*
X265327Y3162D01*
X265353Y3206D01*
X265386Y3250D01*
X265418Y3290D01*
X265455Y3326D01*
X265458Y3330D01*
X265466Y3334D01*
X265477Y3344D01*
X265495Y3355D01*
X265517Y3370D01*
X265542Y3384D01*
X265571Y3403D01*
X265608Y3421D01*
X265648Y3439D01*
X265691Y3457D01*
X265739Y3472D01*
X265790Y3486D01*
X265844Y3497D01*
X265902Y3508D01*
X265964Y3512D01*
X266030Y3515D01*
X266066D01*
X266092Y3512D01*
D02*
G37*
G36*
X84802Y139383D02*
X84799Y139354D01*
Y139321D01*
X84795Y139244D01*
X84784Y139164D01*
X84773Y139077D01*
X84755Y138997D01*
X84744Y138957D01*
X84733Y138924D01*
Y138920D01*
X84729Y138917D01*
X84719Y138895D01*
X84704Y138862D01*
X84679Y138822D01*
X84646Y138778D01*
X84602Y138731D01*
X84551Y138688D01*
X84493Y138644D01*
X84489D01*
X84486Y138640D01*
X84464Y138626D01*
X84427Y138611D01*
X84380Y138589D01*
X84325Y138571D01*
X84260Y138553D01*
X84191Y138542D01*
X84114Y138538D01*
X84111D01*
X84103D01*
X84089D01*
X84071Y138542D01*
X84045D01*
X84020Y138546D01*
X83958Y138560D01*
X83885Y138582D01*
X83809Y138611D01*
X83732Y138655D01*
X83696Y138684D01*
X83659Y138713D01*
X83656Y138717D01*
X83652Y138720D01*
X83641Y138731D01*
X83630Y138746D01*
X83616Y138764D01*
X83601Y138786D01*
X83583Y138815D01*
X83561Y138844D01*
X83543Y138881D01*
X83525Y138920D01*
X83503Y138964D01*
X83485Y139012D01*
X83470Y139066D01*
X83452Y139121D01*
X83441Y139183D01*
X83430Y139248D01*
X83426Y139241D01*
X83419Y139226D01*
X83404Y139204D01*
X83390Y139175D01*
X83350Y139110D01*
X83324Y139077D01*
X83303Y139048D01*
X83295Y139041D01*
X83277Y139022D01*
X83248Y138993D01*
X83212Y138957D01*
X83161Y138917D01*
X83106Y138870D01*
X83040Y138822D01*
X82968Y138771D01*
X82283Y138338D01*
Y138753D01*
X82808Y139084D01*
X82811D01*
X82819Y139092D01*
X82829Y139099D01*
X82844Y139110D01*
X82884Y139135D01*
X82935Y139168D01*
X82990Y139208D01*
X83048Y139248D01*
X83102Y139288D01*
X83153Y139324D01*
X83157Y139328D01*
X83172Y139339D01*
X83193Y139357D01*
X83219Y139383D01*
X83274Y139437D01*
X83299Y139467D01*
X83321Y139496D01*
X83324Y139499D01*
X83328Y139506D01*
X83335Y139521D01*
X83346Y139543D01*
X83357Y139565D01*
X83368Y139590D01*
X83386Y139648D01*
Y139652D01*
X83390Y139659D01*
Y139674D01*
X83394Y139692D01*
X83397Y139718D01*
Y139747D01*
X83401Y139787D01*
Y140216D01*
X82283D01*
Y140551D01*
X84802D01*
Y139383D01*
D02*
G37*
G36*
X84180Y137901D02*
X84187Y137894D01*
X84191Y137880D01*
X84202Y137861D01*
X84213Y137839D01*
X84227Y137814D01*
X84264Y137752D01*
X84304Y137679D01*
X84355Y137607D01*
X84413Y137530D01*
X84475Y137454D01*
X84478Y137450D01*
X84482Y137446D01*
X84493Y137435D01*
X84504Y137421D01*
X84540Y137388D01*
X84584Y137344D01*
X84635Y137301D01*
X84693Y137253D01*
X84751Y137213D01*
X84813Y137177D01*
Y136977D01*
X82283D01*
Y137286D01*
X84253D01*
X84249Y137290D01*
X84234Y137308D01*
X84213Y137330D01*
X84187Y137366D01*
X84154Y137406D01*
X84118Y137457D01*
X84078Y137515D01*
X84038Y137581D01*
Y137585D01*
X84034Y137588D01*
X84020Y137610D01*
X84001Y137646D01*
X83980Y137690D01*
X83954Y137741D01*
X83929Y137796D01*
X83903Y137850D01*
X83881Y137905D01*
X84180D01*
Y137901D01*
D02*
G37*
G36*
X319693Y2567D02*
Y2563D01*
Y2552D01*
Y2538D01*
Y2516D01*
X319689Y2487D01*
Y2458D01*
X319682Y2389D01*
X319674Y2308D01*
X319660Y2225D01*
X319638Y2148D01*
X319613Y2076D01*
Y2072D01*
X319609Y2068D01*
X319598Y2046D01*
X319580Y2017D01*
X319554Y1977D01*
X319518Y1937D01*
X319478Y1894D01*
X319427Y1850D01*
X319369Y1813D01*
X319361Y1810D01*
X319339Y1799D01*
X319307Y1784D01*
X319260Y1770D01*
X319201Y1752D01*
X319136Y1737D01*
X319063Y1726D01*
X318983Y1722D01*
X318950D01*
X318928Y1726D01*
X318899Y1730D01*
X318870Y1733D01*
X318794Y1748D01*
X318713Y1770D01*
X318630Y1802D01*
X318586Y1824D01*
X318546Y1850D01*
X318510Y1879D01*
X318473Y1912D01*
X318470Y1915D01*
X318466Y1919D01*
X318459Y1934D01*
X318448Y1948D01*
X318433Y1966D01*
X318419Y1992D01*
X318404Y2021D01*
X318386Y2054D01*
X318371Y2090D01*
X318357Y2134D01*
X318342Y2177D01*
X318328Y2228D01*
X318320Y2283D01*
X318309Y2345D01*
X318306Y2407D01*
Y2476D01*
X318608Y2520D01*
Y2516D01*
Y2509D01*
Y2494D01*
X318612Y2472D01*
X318615Y2451D01*
Y2425D01*
X318626Y2363D01*
X318637Y2298D01*
X318659Y2232D01*
X318681Y2174D01*
X318695Y2148D01*
X318713Y2127D01*
X318717Y2123D01*
X318732Y2112D01*
X318754Y2094D01*
X318783Y2076D01*
X318823Y2054D01*
X318866Y2039D01*
X318921Y2025D01*
X318979Y2021D01*
X319001D01*
X319023Y2025D01*
X319056Y2028D01*
X319088Y2035D01*
X319125Y2043D01*
X319161Y2057D01*
X319198Y2076D01*
X319201Y2079D01*
X319212Y2086D01*
X319227Y2101D01*
X319249Y2116D01*
X319267Y2141D01*
X319289Y2166D01*
X319307Y2196D01*
X319321Y2232D01*
Y2236D01*
X319329Y2250D01*
X319332Y2276D01*
X319339Y2308D01*
X319347Y2352D01*
X319351Y2407D01*
X319358Y2472D01*
Y2549D01*
Y4285D01*
X319693D01*
Y2567D01*
D02*
G37*
G36*
X321276Y1766D02*
X320967D01*
Y3735D01*
X320963Y3732D01*
X320945Y3717D01*
X320923Y3695D01*
X320886Y3670D01*
X320847Y3637D01*
X320795Y3601D01*
X320737Y3561D01*
X320672Y3521D01*
X320668D01*
X320665Y3517D01*
X320643Y3502D01*
X320606Y3484D01*
X320563Y3462D01*
X320512Y3437D01*
X320457Y3411D01*
X320402Y3386D01*
X320348Y3364D01*
Y3663D01*
X320352D01*
X320359Y3670D01*
X320373Y3673D01*
X320392Y3684D01*
X320413Y3695D01*
X320439Y3710D01*
X320501Y3746D01*
X320573Y3786D01*
X320646Y3837D01*
X320723Y3895D01*
X320799Y3957D01*
X320803Y3961D01*
X320807Y3965D01*
X320817Y3976D01*
X320832Y3986D01*
X320865Y4023D01*
X320908Y4067D01*
X320952Y4118D01*
X320999Y4176D01*
X321039Y4234D01*
X321076Y4296D01*
X321276D01*
Y1766D01*
D02*
G37*
G36*
X67772Y329305D02*
X67801Y329301D01*
X67834Y329294D01*
X67871Y329286D01*
X67911Y329279D01*
X67998Y329250D01*
X68045Y329228D01*
X68089Y329206D01*
X68136Y329177D01*
X68184Y329145D01*
X68231Y329108D01*
X68275Y329064D01*
X68278Y329061D01*
X68286Y329053D01*
X68296Y329039D01*
X68311Y329021D01*
X68329Y328999D01*
X68348Y328970D01*
X68369Y328937D01*
X68388Y328897D01*
X68409Y328857D01*
X68431Y328810D01*
X68449Y328762D01*
X68468Y328708D01*
X68482Y328649D01*
X68493Y328588D01*
X68500Y328526D01*
X68504Y328456D01*
Y328424D01*
X68500Y328402D01*
X68497Y328373D01*
X68493Y328340D01*
X68486Y328304D01*
X68479Y328264D01*
X68457Y328176D01*
X68420Y328085D01*
X68398Y328038D01*
X68373Y327994D01*
X68340Y327951D01*
X68307Y327907D01*
X68304Y327903D01*
X68296Y327896D01*
X68286Y327885D01*
X68271Y327874D01*
X68253Y327856D01*
X68227Y327838D01*
X68202Y327816D01*
X68169Y327794D01*
X68133Y327772D01*
X68096Y327750D01*
X68009Y327710D01*
X67907Y327677D01*
X67852Y327667D01*
X67794Y327659D01*
X67754Y327969D01*
X67758D01*
X67765Y327972D01*
X67780Y327976D01*
X67798Y327980D01*
X67820Y327983D01*
X67845Y327991D01*
X67900Y328009D01*
X67965Y328034D01*
X68027Y328067D01*
X68085Y328103D01*
X68136Y328147D01*
X68140Y328154D01*
X68155Y328169D01*
X68173Y328198D01*
X68191Y328235D01*
X68213Y328278D01*
X68231Y328333D01*
X68246Y328395D01*
X68249Y328460D01*
Y328482D01*
X68246Y328497D01*
X68242Y328537D01*
X68231Y328588D01*
X68213Y328646D01*
X68187Y328708D01*
X68151Y328769D01*
X68100Y328828D01*
X68093Y328835D01*
X68071Y328853D01*
X68038Y328875D01*
X67994Y328904D01*
X67940Y328933D01*
X67878Y328955D01*
X67805Y328973D01*
X67725Y328981D01*
X67721D01*
X67714D01*
X67703D01*
X67689Y328977D01*
X67649Y328973D01*
X67601Y328962D01*
X67543Y328948D01*
X67485Y328922D01*
X67427Y328886D01*
X67372Y328839D01*
X67365Y328831D01*
X67350Y328813D01*
X67328Y328784D01*
X67303Y328744D01*
X67277Y328693D01*
X67256Y328631D01*
X67241Y328562D01*
X67234Y328486D01*
Y328453D01*
X67237Y328427D01*
X67241Y328395D01*
X67248Y328358D01*
X67256Y328314D01*
X67266Y328267D01*
X66993Y328304D01*
Y328322D01*
X66997Y328336D01*
Y328384D01*
X66990Y328424D01*
X66983Y328471D01*
X66971Y328526D01*
X66953Y328588D01*
X66928Y328646D01*
X66895Y328708D01*
Y328711D01*
X66891Y328715D01*
X66877Y328733D01*
X66851Y328759D01*
X66819Y328788D01*
X66771Y328817D01*
X66717Y328842D01*
X66655Y328860D01*
X66619Y328868D01*
X66578D01*
X66575D01*
X66571D01*
X66549D01*
X66520Y328860D01*
X66480Y328853D01*
X66436Y328839D01*
X66389Y328820D01*
X66342Y328791D01*
X66298Y328751D01*
X66294Y328748D01*
X66280Y328730D01*
X66262Y328704D01*
X66240Y328671D01*
X66222Y328628D01*
X66203Y328577D01*
X66189Y328518D01*
X66185Y328453D01*
Y328424D01*
X66193Y328391D01*
X66200Y328347D01*
X66214Y328300D01*
X66233Y328253D01*
X66262Y328202D01*
X66298Y328154D01*
X66302Y328151D01*
X66320Y328136D01*
X66346Y328114D01*
X66382Y328089D01*
X66429Y328063D01*
X66487Y328038D01*
X66557Y328016D01*
X66637Y328001D01*
X66582Y327692D01*
X66578D01*
X66567Y327696D01*
X66553Y327699D01*
X66531Y327703D01*
X66506Y327710D01*
X66477Y327721D01*
X66407Y327743D01*
X66327Y327779D01*
X66247Y327823D01*
X66171Y327878D01*
X66102Y327947D01*
X66098Y327951D01*
X66094Y327958D01*
X66087Y327969D01*
X66076Y327983D01*
X66062Y328001D01*
X66047Y328027D01*
X66032Y328052D01*
X66014Y328085D01*
X65985Y328158D01*
X65956Y328242D01*
X65938Y328340D01*
X65930Y328391D01*
Y328482D01*
X65934Y328522D01*
X65941Y328569D01*
X65952Y328628D01*
X65970Y328693D01*
X65992Y328759D01*
X66022Y328824D01*
Y328828D01*
X66025Y328831D01*
X66036Y328853D01*
X66058Y328886D01*
X66083Y328922D01*
X66120Y328966D01*
X66160Y329010D01*
X66207Y329053D01*
X66262Y329090D01*
X66269Y329094D01*
X66287Y329104D01*
X66320Y329119D01*
X66360Y329137D01*
X66407Y329155D01*
X66462Y329170D01*
X66524Y329181D01*
X66586Y329185D01*
X66593D01*
X66615D01*
X66644Y329181D01*
X66684Y329174D01*
X66731Y329163D01*
X66782Y329145D01*
X66833Y329123D01*
X66884Y329094D01*
X66891Y329090D01*
X66906Y329079D01*
X66931Y329057D01*
X66961Y329028D01*
X66993Y328992D01*
X67030Y328948D01*
X67062Y328897D01*
X67095Y328835D01*
Y328839D01*
X67099Y328846D01*
X67103Y328857D01*
X67106Y328871D01*
X67121Y328911D01*
X67143Y328962D01*
X67172Y329021D01*
X67208Y329079D01*
X67256Y329134D01*
X67310Y329185D01*
X67317Y329188D01*
X67339Y329203D01*
X67376Y329224D01*
X67423Y329246D01*
X67481Y329268D01*
X67550Y329290D01*
X67630Y329305D01*
X67718Y329308D01*
X67721D01*
X67732D01*
X67751D01*
X67772Y329305D01*
D02*
G37*
G36*
X67492Y327222D02*
X67528D01*
X67572Y327219D01*
X67616Y327215D01*
X67714Y327204D01*
X67816Y327190D01*
X67914Y327168D01*
X67962Y327153D01*
X68005Y327139D01*
X68009D01*
X68016Y327135D01*
X68027Y327128D01*
X68042Y327121D01*
X68082Y327099D01*
X68133Y327066D01*
X68191Y327022D01*
X68249Y326971D01*
X68311Y326906D01*
X68366Y326826D01*
Y326822D01*
X68373Y326815D01*
X68377Y326804D01*
X68388Y326786D01*
X68398Y326764D01*
X68409Y326735D01*
X68420Y326706D01*
X68435Y326669D01*
X68449Y326629D01*
X68460Y326586D01*
X68471Y326538D01*
X68482Y326484D01*
X68489Y326429D01*
X68497Y326371D01*
X68504Y326240D01*
Y326207D01*
X68500Y326182D01*
Y326152D01*
X68497Y326116D01*
X68493Y326076D01*
X68489Y326036D01*
X68475Y325945D01*
X68453Y325847D01*
X68424Y325752D01*
X68384Y325661D01*
Y325657D01*
X68377Y325650D01*
X68369Y325639D01*
X68362Y325625D01*
X68333Y325585D01*
X68293Y325537D01*
X68242Y325483D01*
X68184Y325432D01*
X68111Y325381D01*
X68031Y325341D01*
X68027D01*
X68020Y325337D01*
X68005Y325333D01*
X67987Y325326D01*
X67965Y325319D01*
X67936Y325311D01*
X67903Y325301D01*
X67863Y325293D01*
X67820Y325286D01*
X67772Y325275D01*
X67721Y325268D01*
X67667Y325261D01*
X67605Y325253D01*
X67539Y325250D01*
X67470Y325246D01*
X67397D01*
X65941D01*
Y325581D01*
X67397D01*
X67401D01*
X67412D01*
X67430D01*
X67452D01*
X67478Y325585D01*
X67510D01*
X67579Y325588D01*
X67659Y325595D01*
X67740Y325606D01*
X67816Y325621D01*
X67849Y325628D01*
X67882Y325639D01*
X67889Y325643D01*
X67907Y325650D01*
X67932Y325668D01*
X67969Y325690D01*
X68005Y325716D01*
X68045Y325752D01*
X68085Y325796D01*
X68118Y325847D01*
X68122Y325854D01*
X68133Y325872D01*
X68144Y325905D01*
X68158Y325949D01*
X68176Y325999D01*
X68187Y326065D01*
X68198Y326134D01*
X68202Y326211D01*
Y326247D01*
X68198Y326269D01*
Y326302D01*
X68195Y326334D01*
X68180Y326414D01*
X68162Y326502D01*
X68133Y326586D01*
X68093Y326666D01*
X68067Y326702D01*
X68038Y326735D01*
X68034Y326738D01*
X68031Y326742D01*
X68020Y326749D01*
X68005Y326760D01*
X67984Y326771D01*
X67962Y326786D01*
X67929Y326800D01*
X67896Y326815D01*
X67856Y326829D01*
X67809Y326840D01*
X67754Y326855D01*
X67696Y326866D01*
X67630Y326877D01*
X67561Y326884D01*
X67481Y326891D01*
X67397D01*
X65941D01*
Y327226D01*
X67397D01*
X67401D01*
X67416D01*
X67434D01*
X67459D01*
X67492Y327222D01*
D02*
G37*
G36*
X54143Y264957D02*
X54179D01*
X54216Y264953D01*
X54263Y264950D01*
X54310Y264943D01*
X54416Y264924D01*
X54532Y264899D01*
X54649Y264862D01*
X54761Y264811D01*
X54765Y264808D01*
X54776Y264804D01*
X54791Y264797D01*
X54809Y264782D01*
X54834Y264768D01*
X54863Y264750D01*
X54929Y264702D01*
X55002Y264640D01*
X55075Y264567D01*
X55147Y264484D01*
X55209Y264386D01*
X55213Y264382D01*
X55216Y264371D01*
X55224Y264356D01*
X55235Y264338D01*
X55246Y264309D01*
X55256Y264280D01*
X55271Y264244D01*
X55286Y264204D01*
X55300Y264160D01*
X55315Y264112D01*
X55337Y264011D01*
X55355Y263894D01*
X55362Y263774D01*
Y263738D01*
X55358Y263712D01*
X55355Y263679D01*
X55351Y263639D01*
X55348Y263599D01*
X55337Y263552D01*
X55315Y263454D01*
X55282Y263345D01*
X55260Y263290D01*
X55235Y263239D01*
X55202Y263188D01*
X55169Y263137D01*
X55165Y263133D01*
X55162Y263126D01*
X55151Y263111D01*
X55133Y263093D01*
X55115Y263075D01*
X55089Y263050D01*
X55060Y263024D01*
X55031Y262995D01*
X54994Y262966D01*
X54951Y262937D01*
X54907Y262904D01*
X54860Y262875D01*
X54805Y262849D01*
X54751Y262820D01*
X54692Y262799D01*
X54627Y262777D01*
X54550Y263104D01*
X54554D01*
X54561Y263108D01*
X54576Y263115D01*
X54594Y263122D01*
X54616Y263130D01*
X54645Y263141D01*
X54703Y263170D01*
X54769Y263206D01*
X54834Y263250D01*
X54896Y263304D01*
X54951Y263363D01*
X54958Y263370D01*
X54973Y263392D01*
X54991Y263428D01*
X55016Y263475D01*
X55038Y263537D01*
X55060Y263607D01*
X55075Y263690D01*
X55078Y263781D01*
Y263810D01*
X55075Y263829D01*
Y263854D01*
X55071Y263883D01*
X55060Y263952D01*
X55045Y264029D01*
X55020Y264109D01*
X54984Y264193D01*
X54936Y264269D01*
Y264273D01*
X54929Y264276D01*
X54911Y264302D01*
X54882Y264335D01*
X54838Y264375D01*
X54783Y264422D01*
X54721Y264466D01*
X54645Y264506D01*
X54561Y264542D01*
X54558D01*
X54550Y264546D01*
X54540Y264549D01*
X54521Y264553D01*
X54499Y264560D01*
X54474Y264567D01*
X54412Y264579D01*
X54339Y264593D01*
X54259Y264608D01*
X54172Y264615D01*
X54077Y264618D01*
X54074D01*
X54063D01*
X54044D01*
X54023D01*
X53997Y264615D01*
X53964D01*
X53928Y264611D01*
X53888Y264608D01*
X53800Y264597D01*
X53706Y264579D01*
X53611Y264557D01*
X53517Y264528D01*
X53513D01*
X53506Y264524D01*
X53495Y264517D01*
X53477Y264509D01*
X53433Y264487D01*
X53382Y264455D01*
X53324Y264415D01*
X53262Y264364D01*
X53207Y264305D01*
X53156Y264236D01*
Y264233D01*
X53153Y264225D01*
X53145Y264214D01*
X53138Y264200D01*
X53131Y264182D01*
X53120Y264160D01*
X53098Y264109D01*
X53076Y264043D01*
X53058Y263971D01*
X53043Y263891D01*
X53040Y263807D01*
Y263781D01*
X53043Y263759D01*
Y263734D01*
X53047Y263708D01*
X53062Y263643D01*
X53080Y263566D01*
X53109Y263490D01*
X53149Y263410D01*
X53171Y263370D01*
X53200Y263334D01*
X53204Y263330D01*
X53207Y263326D01*
X53218Y263315D01*
X53229Y263301D01*
X53247Y263286D01*
X53269Y263268D01*
X53291Y263246D01*
X53320Y263228D01*
X53353Y263206D01*
X53389Y263181D01*
X53426Y263159D01*
X53469Y263137D01*
X53517Y263119D01*
X53568Y263101D01*
X53622Y263082D01*
X53680Y263068D01*
X53597Y262733D01*
X53593D01*
X53579Y262737D01*
X53557Y262744D01*
X53527Y262755D01*
X53495Y262766D01*
X53455Y262780D01*
X53411Y262799D01*
X53364Y262820D01*
X53262Y262871D01*
X53160Y262937D01*
X53109Y262977D01*
X53058Y263017D01*
X53014Y263061D01*
X52971Y263111D01*
X52967Y263115D01*
X52960Y263122D01*
X52952Y263141D01*
X52938Y263159D01*
X52920Y263188D01*
X52902Y263217D01*
X52883Y263257D01*
X52865Y263297D01*
X52843Y263345D01*
X52825Y263395D01*
X52807Y263450D01*
X52789Y263508D01*
X52774Y263570D01*
X52767Y263636D01*
X52759Y263705D01*
X52756Y263778D01*
Y263818D01*
X52759Y263847D01*
Y263880D01*
X52763Y263920D01*
X52770Y263963D01*
X52778Y264014D01*
X52796Y264120D01*
X52825Y264229D01*
X52865Y264338D01*
X52890Y264389D01*
X52920Y264440D01*
X52923Y264444D01*
X52927Y264451D01*
X52938Y264466D01*
X52952Y264480D01*
X52967Y264502D01*
X52989Y264528D01*
X53014Y264557D01*
X53043Y264586D01*
X53076Y264615D01*
X53109Y264648D01*
X53193Y264713D01*
X53291Y264775D01*
X53400Y264830D01*
X53404D01*
X53415Y264837D01*
X53433Y264841D01*
X53455Y264851D01*
X53484Y264859D01*
X53520Y264870D01*
X53560Y264884D01*
X53604Y264895D01*
X53651Y264906D01*
X53706Y264921D01*
X53819Y264939D01*
X53946Y264953D01*
X54077Y264961D01*
X54081D01*
X54095D01*
X54117D01*
X54143Y264957D01*
D02*
G37*
G36*
X54540Y262445D02*
X54572Y262442D01*
X54612Y262438D01*
X54652Y262431D01*
X54700Y262420D01*
X54794Y262394D01*
X54845Y262376D01*
X54900Y262354D01*
X54951Y262329D01*
X54998Y262296D01*
X55049Y262263D01*
X55093Y262223D01*
X55096Y262220D01*
X55104Y262212D01*
X55115Y262201D01*
X55129Y262183D01*
X55147Y262161D01*
X55169Y262132D01*
X55187Y262103D01*
X55213Y262067D01*
X55235Y262031D01*
X55253Y261987D01*
X55293Y261889D01*
X55308Y261838D01*
X55318Y261779D01*
X55326Y261721D01*
X55329Y261659D01*
Y261634D01*
X55326Y261615D01*
Y261597D01*
X55322Y261572D01*
X55311Y261510D01*
X55297Y261441D01*
X55271Y261364D01*
X55238Y261288D01*
X55195Y261211D01*
Y261208D01*
X55187Y261204D01*
X55180Y261193D01*
X55169Y261179D01*
X55140Y261142D01*
X55100Y261095D01*
X55045Y261048D01*
X54980Y260993D01*
X54904Y260946D01*
X54816Y260902D01*
X54813D01*
X54805Y260898D01*
X54791Y260891D01*
X54772Y260884D01*
X54747Y260877D01*
X54714Y260866D01*
X54678Y260858D01*
X54638Y260847D01*
X54590Y260837D01*
X54536Y260826D01*
X54478Y260818D01*
X54416Y260811D01*
X54347Y260804D01*
X54274Y260796D01*
X54194Y260793D01*
X54110D01*
X54106D01*
X54088D01*
X54063D01*
X54030D01*
X53990Y260796D01*
X53943D01*
X53888Y260800D01*
X53833Y260807D01*
X53710Y260818D01*
X53579Y260837D01*
X53455Y260862D01*
X53393Y260880D01*
X53338Y260898D01*
X53335D01*
X53327Y260902D01*
X53313Y260909D01*
X53291Y260917D01*
X53269Y260928D01*
X53240Y260942D01*
X53178Y260979D01*
X53109Y261022D01*
X53036Y261073D01*
X52967Y261139D01*
X52905Y261211D01*
Y261215D01*
X52898Y261222D01*
X52890Y261233D01*
X52883Y261248D01*
X52872Y261270D01*
X52858Y261292D01*
X52843Y261321D01*
X52832Y261350D01*
X52803Y261419D01*
X52778Y261503D01*
X52763Y261594D01*
X52756Y261696D01*
Y261725D01*
X52759Y261743D01*
Y261768D01*
X52763Y261797D01*
X52778Y261867D01*
X52796Y261943D01*
X52825Y262023D01*
X52865Y262103D01*
X52890Y262143D01*
X52920Y262180D01*
X52923Y262183D01*
X52927Y262187D01*
X52938Y262198D01*
X52949Y262209D01*
X52967Y262223D01*
X52989Y262242D01*
X53040Y262278D01*
X53105Y262314D01*
X53185Y262351D01*
X53276Y262380D01*
X53382Y262402D01*
X53407Y262103D01*
X53404D01*
X53396Y262100D01*
X53389D01*
X53375Y262096D01*
X53335Y262085D01*
X53291Y262070D01*
X53240Y262052D01*
X53189Y262027D01*
X53142Y261998D01*
X53102Y261961D01*
X53098Y261958D01*
X53087Y261943D01*
X53073Y261918D01*
X53058Y261889D01*
X53040Y261848D01*
X53025Y261801D01*
X53014Y261747D01*
X53011Y261688D01*
Y261663D01*
X53014Y261637D01*
X53018Y261605D01*
X53025Y261564D01*
X53036Y261525D01*
X53051Y261481D01*
X53073Y261441D01*
X53076Y261437D01*
X53083Y261423D01*
X53098Y261401D01*
X53120Y261379D01*
X53145Y261350D01*
X53175Y261321D01*
X53207Y261292D01*
X53247Y261262D01*
X53251Y261259D01*
X53269Y261251D01*
X53295Y261237D01*
X53327Y261222D01*
X53371Y261204D01*
X53422Y261186D01*
X53480Y261168D01*
X53546Y261150D01*
X53549D01*
X53553Y261146D01*
X53564D01*
X53579Y261142D01*
X53615Y261135D01*
X53662Y261124D01*
X53720Y261117D01*
X53782Y261109D01*
X53851Y261106D01*
X53924Y261102D01*
X53928D01*
X53939D01*
X53957D01*
X53986D01*
X53979Y261106D01*
X53961Y261120D01*
X53935Y261142D01*
X53899Y261168D01*
X53862Y261204D01*
X53822Y261248D01*
X53782Y261299D01*
X53746Y261357D01*
X53742Y261364D01*
X53731Y261386D01*
X53717Y261419D01*
X53702Y261459D01*
X53684Y261514D01*
X53670Y261572D01*
X53659Y261637D01*
X53655Y261706D01*
Y261736D01*
X53659Y261757D01*
X53662Y261787D01*
X53666Y261816D01*
X53673Y261852D01*
X53684Y261889D01*
X53710Y261972D01*
X53728Y262016D01*
X53750Y262060D01*
X53775Y262107D01*
X53808Y262151D01*
X53841Y262194D01*
X53881Y262234D01*
X53884Y262238D01*
X53891Y262245D01*
X53903Y262252D01*
X53921Y262267D01*
X53946Y262285D01*
X53972Y262303D01*
X54004Y262322D01*
X54041Y262340D01*
X54081Y262362D01*
X54124Y262380D01*
X54176Y262398D01*
X54226Y262416D01*
X54285Y262431D01*
X54347Y262438D01*
X54408Y262445D01*
X54478Y262449D01*
X54481D01*
X54496D01*
X54514D01*
X54540Y262445D01*
D02*
G37*
G36*
X84458Y264563D02*
X84494D01*
X84531Y264560D01*
X84578Y264556D01*
X84625Y264549D01*
X84731Y264530D01*
X84847Y264505D01*
X84964Y264469D01*
X85076Y264418D01*
X85080Y264414D01*
X85091Y264410D01*
X85106Y264403D01*
X85124Y264389D01*
X85149Y264374D01*
X85178Y264356D01*
X85244Y264309D01*
X85317Y264247D01*
X85390Y264174D01*
X85462Y264090D01*
X85524Y263992D01*
X85528Y263988D01*
X85532Y263977D01*
X85539Y263963D01*
X85550Y263945D01*
X85561Y263915D01*
X85571Y263886D01*
X85586Y263850D01*
X85601Y263810D01*
X85615Y263766D01*
X85630Y263719D01*
X85652Y263617D01*
X85670Y263500D01*
X85677Y263380D01*
Y263344D01*
X85673Y263318D01*
X85670Y263286D01*
X85666Y263246D01*
X85663Y263206D01*
X85652Y263158D01*
X85630Y263060D01*
X85597Y262951D01*
X85575Y262896D01*
X85550Y262845D01*
X85517Y262794D01*
X85484Y262743D01*
X85480Y262740D01*
X85477Y262732D01*
X85466Y262718D01*
X85448Y262700D01*
X85430Y262681D01*
X85404Y262656D01*
X85375Y262631D01*
X85346Y262601D01*
X85309Y262572D01*
X85266Y262543D01*
X85222Y262510D01*
X85175Y262481D01*
X85120Y262456D01*
X85066Y262427D01*
X85007Y262405D01*
X84942Y262383D01*
X84865Y262711D01*
X84869D01*
X84876Y262714D01*
X84891Y262721D01*
X84909Y262729D01*
X84931Y262736D01*
X84960Y262747D01*
X85018Y262776D01*
X85084Y262812D01*
X85149Y262856D01*
X85211Y262911D01*
X85266Y262969D01*
X85273Y262976D01*
X85288Y262998D01*
X85306Y263035D01*
X85331Y263082D01*
X85353Y263144D01*
X85375Y263213D01*
X85390Y263297D01*
X85393Y263388D01*
Y263417D01*
X85390Y263435D01*
Y263460D01*
X85386Y263490D01*
X85375Y263559D01*
X85360Y263635D01*
X85335Y263715D01*
X85299Y263799D01*
X85251Y263875D01*
Y263879D01*
X85244Y263883D01*
X85226Y263908D01*
X85197Y263941D01*
X85153Y263981D01*
X85098Y264028D01*
X85036Y264072D01*
X84960Y264112D01*
X84876Y264148D01*
X84873D01*
X84865Y264152D01*
X84854Y264156D01*
X84836Y264159D01*
X84814Y264167D01*
X84789Y264174D01*
X84727Y264185D01*
X84654Y264199D01*
X84574Y264214D01*
X84487Y264221D01*
X84392Y264225D01*
X84389D01*
X84378D01*
X84359D01*
X84338D01*
X84312Y264221D01*
X84279D01*
X84243Y264217D01*
X84203Y264214D01*
X84115Y264203D01*
X84021Y264185D01*
X83926Y264163D01*
X83832Y264134D01*
X83828D01*
X83821Y264130D01*
X83810Y264123D01*
X83792Y264116D01*
X83748Y264094D01*
X83697Y264061D01*
X83639Y264021D01*
X83577Y263970D01*
X83522Y263912D01*
X83471Y263843D01*
Y263839D01*
X83468Y263832D01*
X83460Y263821D01*
X83453Y263806D01*
X83446Y263788D01*
X83435Y263766D01*
X83413Y263715D01*
X83391Y263650D01*
X83373Y263577D01*
X83358Y263497D01*
X83355Y263413D01*
Y263388D01*
X83358Y263366D01*
Y263340D01*
X83362Y263315D01*
X83377Y263249D01*
X83395Y263173D01*
X83424Y263096D01*
X83464Y263016D01*
X83486Y262976D01*
X83515Y262940D01*
X83518Y262936D01*
X83522Y262933D01*
X83533Y262922D01*
X83544Y262907D01*
X83562Y262893D01*
X83584Y262874D01*
X83606Y262853D01*
X83635Y262834D01*
X83668Y262812D01*
X83704Y262787D01*
X83741Y262765D01*
X83784Y262743D01*
X83832Y262725D01*
X83882Y262707D01*
X83937Y262689D01*
X83995Y262674D01*
X83912Y262339D01*
X83908D01*
X83894Y262343D01*
X83872Y262350D01*
X83842Y262361D01*
X83810Y262372D01*
X83770Y262387D01*
X83726Y262405D01*
X83679Y262427D01*
X83577Y262478D01*
X83475Y262543D01*
X83424Y262583D01*
X83373Y262623D01*
X83329Y262667D01*
X83286Y262718D01*
X83282Y262721D01*
X83275Y262729D01*
X83267Y262747D01*
X83253Y262765D01*
X83235Y262794D01*
X83216Y262823D01*
X83198Y262863D01*
X83180Y262903D01*
X83158Y262951D01*
X83140Y263002D01*
X83122Y263056D01*
X83104Y263115D01*
X83089Y263176D01*
X83082Y263242D01*
X83074Y263311D01*
X83071Y263384D01*
Y263424D01*
X83074Y263453D01*
Y263486D01*
X83078Y263526D01*
X83085Y263570D01*
X83093Y263621D01*
X83111Y263726D01*
X83140Y263835D01*
X83180Y263945D01*
X83205Y263996D01*
X83235Y264046D01*
X83238Y264050D01*
X83242Y264057D01*
X83253Y264072D01*
X83267Y264087D01*
X83282Y264108D01*
X83304Y264134D01*
X83329Y264163D01*
X83358Y264192D01*
X83391Y264221D01*
X83424Y264254D01*
X83508Y264319D01*
X83606Y264381D01*
X83715Y264436D01*
X83719D01*
X83730Y264443D01*
X83748Y264447D01*
X83770Y264458D01*
X83799Y264465D01*
X83835Y264476D01*
X83875Y264491D01*
X83919Y264501D01*
X83966Y264512D01*
X84021Y264527D01*
X84134Y264545D01*
X84261Y264560D01*
X84392Y264567D01*
X84396D01*
X84410D01*
X84432D01*
X84458Y264563D01*
D02*
G37*
G36*
X85601Y260403D02*
X85357D01*
X85353Y260406D01*
X85346Y260414D01*
X85331Y260428D01*
X85309Y260443D01*
X85284Y260465D01*
X85255Y260494D01*
X85218Y260523D01*
X85175Y260556D01*
X85131Y260588D01*
X85080Y260629D01*
X85022Y260668D01*
X84964Y260709D01*
X84898Y260752D01*
X84829Y260796D01*
X84753Y260840D01*
X84676Y260883D01*
X84672Y260887D01*
X84658Y260894D01*
X84636Y260905D01*
X84603Y260923D01*
X84563Y260942D01*
X84519Y260963D01*
X84469Y260989D01*
X84410Y261014D01*
X84345Y261043D01*
X84279Y261076D01*
X84206Y261105D01*
X84130Y261134D01*
X83973Y261193D01*
X83806Y261247D01*
X83802D01*
X83792Y261251D01*
X83773Y261255D01*
X83751Y261262D01*
X83722Y261269D01*
X83686Y261276D01*
X83646Y261287D01*
X83602Y261295D01*
X83551Y261305D01*
X83497Y261316D01*
X83380Y261335D01*
X83253Y261353D01*
X83114Y261364D01*
Y261680D01*
X83118D01*
X83129D01*
X83144D01*
X83166Y261677D01*
X83195D01*
X83231Y261673D01*
X83271Y261669D01*
X83315Y261666D01*
X83366Y261659D01*
X83417Y261651D01*
X83478Y261640D01*
X83540Y261630D01*
X83606Y261619D01*
X83679Y261604D01*
X83828Y261568D01*
X83832D01*
X83846Y261564D01*
X83868Y261557D01*
X83901Y261546D01*
X83937Y261535D01*
X83981Y261520D01*
X84032Y261506D01*
X84086Y261484D01*
X84148Y261462D01*
X84210Y261440D01*
X84348Y261386D01*
X84494Y261320D01*
X84640Y261247D01*
X84643Y261244D01*
X84658Y261236D01*
X84676Y261225D01*
X84705Y261211D01*
X84738Y261193D01*
X84778Y261167D01*
X84822Y261142D01*
X84869Y261113D01*
X84974Y261043D01*
X85084Y260971D01*
X85197Y260887D01*
X85302Y260800D01*
Y262034D01*
X85601D01*
Y260403D01*
D02*
G37*
G36*
X69359Y271107D02*
X69392Y271103D01*
X69432Y271099D01*
X69472Y271096D01*
X69519Y271085D01*
X69617Y271063D01*
X69726Y271030D01*
X69781Y271008D01*
X69832Y270983D01*
X69883Y270950D01*
X69934Y270917D01*
X69937Y270914D01*
X69945Y270910D01*
X69959Y270899D01*
X69977Y270881D01*
X69996Y270863D01*
X70021Y270837D01*
X70047Y270808D01*
X70076Y270779D01*
X70105Y270743D01*
X70134Y270699D01*
X70167Y270655D01*
X70196Y270608D01*
X70221Y270553D01*
X70250Y270499D01*
X70272Y270440D01*
X70294Y270375D01*
X69967Y270298D01*
Y270302D01*
X69963Y270309D01*
X69956Y270324D01*
X69948Y270342D01*
X69941Y270364D01*
X69930Y270393D01*
X69901Y270451D01*
X69865Y270517D01*
X69821Y270582D01*
X69766Y270644D01*
X69708Y270699D01*
X69701Y270706D01*
X69679Y270721D01*
X69643Y270739D01*
X69595Y270764D01*
X69533Y270786D01*
X69464Y270808D01*
X69381Y270823D01*
X69289Y270826D01*
X69260D01*
X69242Y270823D01*
X69217D01*
X69188Y270819D01*
X69118Y270808D01*
X69042Y270793D01*
X68962Y270768D01*
X68878Y270732D01*
X68802Y270684D01*
X68798D01*
X68795Y270677D01*
X68769Y270659D01*
X68736Y270630D01*
X68696Y270586D01*
X68649Y270531D01*
X68605Y270469D01*
X68565Y270393D01*
X68529Y270309D01*
Y270306D01*
X68525Y270298D01*
X68521Y270287D01*
X68518Y270269D01*
X68511Y270247D01*
X68503Y270222D01*
X68492Y270160D01*
X68478Y270087D01*
X68463Y270007D01*
X68456Y269920D01*
X68452Y269825D01*
Y269822D01*
Y269811D01*
Y269792D01*
Y269771D01*
X68456Y269745D01*
Y269712D01*
X68460Y269676D01*
X68463Y269636D01*
X68474Y269549D01*
X68492Y269454D01*
X68514Y269359D01*
X68543Y269265D01*
Y269261D01*
X68547Y269254D01*
X68554Y269243D01*
X68562Y269225D01*
X68583Y269181D01*
X68616Y269130D01*
X68656Y269072D01*
X68707Y269010D01*
X68765Y268955D01*
X68835Y268904D01*
X68838D01*
X68845Y268901D01*
X68856Y268893D01*
X68871Y268886D01*
X68889Y268879D01*
X68911Y268868D01*
X68962Y268846D01*
X69028Y268824D01*
X69100Y268806D01*
X69180Y268791D01*
X69264Y268788D01*
X69289D01*
X69311Y268791D01*
X69337D01*
X69362Y268795D01*
X69428Y268810D01*
X69504Y268828D01*
X69581Y268857D01*
X69661Y268897D01*
X69701Y268919D01*
X69737Y268948D01*
X69741Y268952D01*
X69745Y268955D01*
X69756Y268966D01*
X69770Y268977D01*
X69785Y268995D01*
X69803Y269017D01*
X69825Y269039D01*
X69843Y269068D01*
X69865Y269101D01*
X69890Y269137D01*
X69912Y269174D01*
X69934Y269217D01*
X69952Y269265D01*
X69970Y269316D01*
X69988Y269370D01*
X70003Y269428D01*
X70338Y269345D01*
Y269341D01*
X70334Y269326D01*
X70327Y269305D01*
X70316Y269276D01*
X70305Y269243D01*
X70290Y269203D01*
X70272Y269159D01*
X70250Y269112D01*
X70200Y269010D01*
X70134Y268908D01*
X70094Y268857D01*
X70054Y268806D01*
X70010Y268762D01*
X69959Y268719D01*
X69956Y268715D01*
X69948Y268708D01*
X69930Y268700D01*
X69912Y268686D01*
X69883Y268668D01*
X69854Y268650D01*
X69814Y268631D01*
X69774Y268613D01*
X69726Y268591D01*
X69675Y268573D01*
X69621Y268555D01*
X69563Y268537D01*
X69501Y268522D01*
X69435Y268515D01*
X69366Y268508D01*
X69293Y268504D01*
X69253D01*
X69224Y268508D01*
X69191D01*
X69151Y268511D01*
X69108Y268518D01*
X69057Y268526D01*
X68951Y268544D01*
X68842Y268573D01*
X68733Y268613D01*
X68682Y268639D01*
X68631Y268668D01*
X68627Y268671D01*
X68620Y268675D01*
X68605Y268686D01*
X68591Y268700D01*
X68569Y268715D01*
X68543Y268737D01*
X68514Y268762D01*
X68485Y268791D01*
X68456Y268824D01*
X68423Y268857D01*
X68358Y268941D01*
X68296Y269039D01*
X68241Y269148D01*
Y269152D01*
X68234Y269163D01*
X68230Y269181D01*
X68219Y269203D01*
X68212Y269232D01*
X68201Y269268D01*
X68187Y269308D01*
X68176Y269352D01*
X68165Y269399D01*
X68150Y269454D01*
X68132Y269567D01*
X68117Y269694D01*
X68110Y269825D01*
Y269829D01*
Y269843D01*
Y269865D01*
X68114Y269891D01*
Y269927D01*
X68117Y269964D01*
X68121Y270011D01*
X68128Y270058D01*
X68147Y270164D01*
X68172Y270280D01*
X68208Y270397D01*
X68259Y270510D01*
X68263Y270513D01*
X68267Y270524D01*
X68274Y270539D01*
X68288Y270557D01*
X68303Y270582D01*
X68321Y270611D01*
X68369Y270677D01*
X68431Y270750D01*
X68503Y270823D01*
X68587Y270895D01*
X68685Y270957D01*
X68689Y270961D01*
X68700Y270965D01*
X68714Y270972D01*
X68733Y270983D01*
X68762Y270994D01*
X68791Y271005D01*
X68827Y271019D01*
X68867Y271034D01*
X68911Y271048D01*
X68958Y271063D01*
X69060Y271085D01*
X69177Y271103D01*
X69297Y271110D01*
X69333D01*
X69359Y271107D01*
D02*
G37*
G36*
X71495Y271074D02*
X71525Y271070D01*
X71557Y271066D01*
X71594Y271063D01*
X71630Y271052D01*
X71717Y271030D01*
X71805Y270997D01*
X71848Y270975D01*
X71892Y270950D01*
X71932Y270917D01*
X71972Y270884D01*
X71976Y270881D01*
X71979Y270877D01*
X71990Y270866D01*
X72005Y270852D01*
X72020Y270830D01*
X72038Y270808D01*
X72074Y270753D01*
X72111Y270684D01*
X72143Y270604D01*
X72169Y270513D01*
X72172Y270466D01*
X72176Y270415D01*
Y270411D01*
Y270408D01*
Y270386D01*
X72172Y270353D01*
X72165Y270313D01*
X72154Y270262D01*
X72136Y270211D01*
X72114Y270160D01*
X72081Y270109D01*
X72078Y270102D01*
X72063Y270087D01*
X72041Y270065D01*
X72012Y270036D01*
X71972Y270004D01*
X71925Y269971D01*
X71870Y269938D01*
X71805Y269909D01*
X71808D01*
X71816Y269905D01*
X71827Y269902D01*
X71841Y269894D01*
X71885Y269876D01*
X71936Y269851D01*
X71990Y269814D01*
X72049Y269774D01*
X72103Y269723D01*
X72154Y269665D01*
Y269661D01*
X72158Y269658D01*
X72172Y269636D01*
X72194Y269600D01*
X72216Y269552D01*
X72238Y269494D01*
X72260Y269425D01*
X72274Y269348D01*
X72278Y269265D01*
Y269261D01*
Y269250D01*
Y269232D01*
X72274Y269210D01*
X72271Y269185D01*
X72267Y269152D01*
X72260Y269115D01*
X72249Y269075D01*
X72223Y268992D01*
X72205Y268944D01*
X72180Y268901D01*
X72154Y268853D01*
X72125Y268810D01*
X72089Y268766D01*
X72049Y268722D01*
X72045Y268719D01*
X72038Y268711D01*
X72027Y268700D01*
X72009Y268689D01*
X71983Y268671D01*
X71958Y268653D01*
X71925Y268635D01*
X71889Y268613D01*
X71848Y268591D01*
X71801Y268573D01*
X71750Y268555D01*
X71699Y268537D01*
X71641Y268526D01*
X71579Y268515D01*
X71517Y268508D01*
X71448Y268504D01*
X71412D01*
X71386Y268508D01*
X71353Y268511D01*
X71317Y268515D01*
X71277Y268522D01*
X71233Y268533D01*
X71135Y268559D01*
X71084Y268577D01*
X71037Y268595D01*
X70986Y268620D01*
X70935Y268650D01*
X70888Y268682D01*
X70844Y268722D01*
X70840Y268726D01*
X70833Y268733D01*
X70822Y268744D01*
X70807Y268762D01*
X70793Y268784D01*
X70771Y268810D01*
X70753Y268839D01*
X70731Y268875D01*
X70709Y268912D01*
X70691Y268955D01*
X70654Y269046D01*
X70640Y269101D01*
X70629Y269155D01*
X70622Y269214D01*
X70618Y269272D01*
Y269276D01*
Y269283D01*
Y269297D01*
X70622Y269312D01*
Y269334D01*
X70625Y269359D01*
X70633Y269418D01*
X70647Y269483D01*
X70669Y269549D01*
X70702Y269618D01*
X70742Y269683D01*
Y269687D01*
X70749Y269690D01*
X70764Y269709D01*
X70793Y269738D01*
X70833Y269774D01*
X70884Y269811D01*
X70946Y269851D01*
X71015Y269883D01*
X71099Y269909D01*
X71095D01*
X71091Y269913D01*
X71080Y269916D01*
X71066Y269923D01*
X71033Y269938D01*
X70989Y269960D01*
X70942Y269989D01*
X70895Y270025D01*
X70851Y270065D01*
X70811Y270109D01*
X70807Y270116D01*
X70797Y270131D01*
X70782Y270160D01*
X70767Y270197D01*
X70749Y270244D01*
X70735Y270298D01*
X70724Y270360D01*
X70720Y270426D01*
Y270429D01*
Y270437D01*
Y270451D01*
X70724Y270473D01*
X70727Y270495D01*
X70731Y270524D01*
X70746Y270586D01*
X70767Y270659D01*
X70804Y270735D01*
X70826Y270775D01*
X70851Y270815D01*
X70884Y270852D01*
X70917Y270888D01*
X70920Y270892D01*
X70928Y270895D01*
X70938Y270906D01*
X70953Y270917D01*
X70971Y270932D01*
X70997Y270946D01*
X71026Y270965D01*
X71055Y270983D01*
X71091Y271001D01*
X71131Y271019D01*
X71175Y271034D01*
X71222Y271048D01*
X71324Y271070D01*
X71383Y271074D01*
X71441Y271077D01*
X71474D01*
X71495Y271074D01*
D02*
G37*
G36*
X138897Y185430D02*
X138926D01*
X138963Y185426D01*
X139003Y185422D01*
X139043Y185419D01*
X139134Y185404D01*
X139232Y185382D01*
X139327Y185353D01*
X139418Y185313D01*
X139421D01*
X139429Y185306D01*
X139440Y185299D01*
X139454Y185291D01*
X139494Y185262D01*
X139541Y185222D01*
X139596Y185171D01*
X139647Y185113D01*
X139698Y185040D01*
X139738Y184960D01*
Y184956D01*
X139742Y184949D01*
X139745Y184934D01*
X139753Y184916D01*
X139760Y184894D01*
X139767Y184865D01*
X139778Y184833D01*
X139785Y184792D01*
X139793Y184749D01*
X139804Y184702D01*
X139811Y184651D01*
X139818Y184596D01*
X139825Y184534D01*
X139829Y184468D01*
X139833Y184399D01*
Y184327D01*
Y182871D01*
X139498D01*
Y184327D01*
Y184330D01*
Y184341D01*
Y184359D01*
Y184381D01*
X139494Y184407D01*
Y184439D01*
X139491Y184509D01*
X139483Y184589D01*
X139472Y184669D01*
X139458Y184745D01*
X139451Y184778D01*
X139440Y184811D01*
X139436Y184818D01*
X139429Y184836D01*
X139410Y184862D01*
X139389Y184898D01*
X139363Y184934D01*
X139327Y184975D01*
X139283Y185014D01*
X139232Y185047D01*
X139225Y185051D01*
X139207Y185062D01*
X139174Y185073D01*
X139130Y185087D01*
X139079Y185106D01*
X139014Y185117D01*
X138945Y185127D01*
X138868Y185131D01*
X138832D01*
X138810Y185127D01*
X138777D01*
X138744Y185124D01*
X138664Y185109D01*
X138577Y185091D01*
X138493Y185062D01*
X138413Y185022D01*
X138377Y184996D01*
X138344Y184967D01*
X138340Y184964D01*
X138337Y184960D01*
X138329Y184949D01*
X138319Y184934D01*
X138307Y184913D01*
X138293Y184891D01*
X138278Y184858D01*
X138264Y184825D01*
X138249Y184785D01*
X138238Y184738D01*
X138224Y184683D01*
X138213Y184625D01*
X138202Y184560D01*
X138195Y184490D01*
X138187Y184410D01*
Y184327D01*
Y182871D01*
X137853D01*
Y184327D01*
Y184330D01*
Y184345D01*
Y184363D01*
Y184388D01*
X137856Y184421D01*
Y184458D01*
X137860Y184501D01*
X137864Y184545D01*
X137874Y184643D01*
X137889Y184745D01*
X137911Y184844D01*
X137925Y184891D01*
X137940Y184934D01*
Y184938D01*
X137944Y184945D01*
X137951Y184956D01*
X137958Y184971D01*
X137980Y185011D01*
X138013Y185062D01*
X138056Y185120D01*
X138107Y185178D01*
X138173Y185240D01*
X138253Y185295D01*
X138257D01*
X138264Y185302D01*
X138275Y185306D01*
X138293Y185317D01*
X138315Y185328D01*
X138344Y185338D01*
X138373Y185349D01*
X138409Y185364D01*
X138450Y185379D01*
X138493Y185389D01*
X138540Y185400D01*
X138595Y185411D01*
X138650Y185419D01*
X138708Y185426D01*
X138839Y185433D01*
X138872D01*
X138897Y185430D01*
D02*
G37*
G36*
X137467Y185386D02*
Y185371D01*
Y185349D01*
X137463Y185320D01*
X137459Y185287D01*
X137452Y185251D01*
X137445Y185215D01*
X137430Y185175D01*
Y185171D01*
X137427Y185167D01*
X137419Y185146D01*
X137405Y185113D01*
X137383Y185069D01*
X137354Y185018D01*
X137318Y184960D01*
X137277Y184902D01*
X137226Y184840D01*
Y184836D01*
X137219Y184833D01*
X137201Y184811D01*
X137168Y184778D01*
X137121Y184731D01*
X137066Y184676D01*
X136997Y184610D01*
X136913Y184538D01*
X136822Y184461D01*
X136819Y184458D01*
X136804Y184447D01*
X136782Y184429D01*
X136757Y184407D01*
X136724Y184378D01*
X136684Y184345D01*
X136644Y184308D01*
X136597Y184268D01*
X136506Y184181D01*
X136415Y184094D01*
X136371Y184050D01*
X136331Y184006D01*
X136295Y183966D01*
X136266Y183926D01*
Y183923D01*
X136258Y183919D01*
X136251Y183908D01*
X136244Y183893D01*
X136218Y183853D01*
X136189Y183806D01*
X136164Y183748D01*
X136138Y183686D01*
X136124Y183617D01*
X136116Y183551D01*
Y183548D01*
Y183544D01*
X136120Y183522D01*
X136124Y183486D01*
X136135Y183446D01*
X136149Y183395D01*
X136174Y183344D01*
X136207Y183293D01*
X136251Y183242D01*
X136258Y183235D01*
X136276Y183220D01*
X136302Y183202D01*
X136342Y183176D01*
X136393Y183154D01*
X136451Y183133D01*
X136520Y183118D01*
X136597Y183115D01*
X136619D01*
X136633Y183118D01*
X136677Y183122D01*
X136728Y183133D01*
X136782Y183147D01*
X136844Y183173D01*
X136902Y183205D01*
X136957Y183249D01*
X136964Y183256D01*
X136979Y183275D01*
X137001Y183304D01*
X137023Y183347D01*
X137048Y183398D01*
X137070Y183464D01*
X137084Y183537D01*
X137092Y183620D01*
X137408Y183588D01*
Y183584D01*
X137405Y183573D01*
Y183555D01*
X137401Y183529D01*
X137394Y183500D01*
X137387Y183467D01*
X137376Y183428D01*
X137365Y183387D01*
X137336Y183300D01*
X137292Y183213D01*
X137267Y183169D01*
X137234Y183125D01*
X137201Y183085D01*
X137165Y183049D01*
X137161Y183045D01*
X137154Y183042D01*
X137143Y183031D01*
X137125Y183020D01*
X137103Y183005D01*
X137077Y182991D01*
X137048Y182973D01*
X137012Y182954D01*
X136972Y182936D01*
X136928Y182918D01*
X136881Y182903D01*
X136830Y182889D01*
X136775Y182878D01*
X136717Y182867D01*
X136655Y182863D01*
X136590Y182860D01*
X136553D01*
X136528Y182863D01*
X136498Y182867D01*
X136462Y182871D01*
X136422Y182878D01*
X136382Y182885D01*
X136287Y182911D01*
X136193Y182947D01*
X136145Y182969D01*
X136098Y182994D01*
X136054Y183027D01*
X136014Y183063D01*
X136011Y183067D01*
X136003Y183071D01*
X135996Y183085D01*
X135982Y183100D01*
X135963Y183118D01*
X135945Y183144D01*
X135927Y183169D01*
X135905Y183202D01*
X135869Y183271D01*
X135832Y183358D01*
X135818Y183402D01*
X135810Y183453D01*
X135803Y183504D01*
X135800Y183558D01*
Y183566D01*
Y183584D01*
X135803Y183613D01*
X135807Y183653D01*
X135814Y183697D01*
X135829Y183748D01*
X135843Y183802D01*
X135865Y183857D01*
X135869Y183864D01*
X135876Y183882D01*
X135891Y183912D01*
X135912Y183952D01*
X135942Y183995D01*
X135978Y184050D01*
X136022Y184105D01*
X136073Y184166D01*
X136080Y184174D01*
X136098Y184195D01*
X136116Y184214D01*
X136135Y184232D01*
X136156Y184254D01*
X136185Y184283D01*
X136215Y184312D01*
X136251Y184345D01*
X136287Y184381D01*
X136331Y184421D01*
X136378Y184461D01*
X136429Y184509D01*
X136488Y184556D01*
X136546Y184607D01*
X136549Y184610D01*
X136557Y184618D01*
X136571Y184629D01*
X136590Y184643D01*
X136611Y184665D01*
X136637Y184687D01*
X136695Y184734D01*
X136757Y184789D01*
X136815Y184844D01*
X136866Y184891D01*
X136888Y184909D01*
X136906Y184927D01*
X136910Y184931D01*
X136921Y184942D01*
X136935Y184956D01*
X136953Y184978D01*
X136972Y185004D01*
X136994Y185029D01*
X137037Y185091D01*
X135796D01*
Y185389D01*
X137467D01*
Y185386D01*
D02*
G37*
G36*
X196013Y189218D02*
X196042Y189214D01*
X196075Y189211D01*
X196115Y189204D01*
X196155Y189196D01*
X196250Y189174D01*
X196348Y189138D01*
X196399Y189116D01*
X196446Y189087D01*
X196497Y189058D01*
X196545Y189022D01*
X196548Y189018D01*
X196559Y189011D01*
X196574Y188996D01*
X196592Y188978D01*
X196614Y188952D01*
X196643Y188923D01*
X196668Y188887D01*
X196697Y188847D01*
X196727Y188803D01*
X196752Y188752D01*
X196778Y188698D01*
X196803Y188639D01*
X196821Y188577D01*
X196836Y188508D01*
X196847Y188435D01*
X196850Y188359D01*
Y188326D01*
X196847Y188301D01*
X196843Y188272D01*
X196839Y188239D01*
X196836Y188199D01*
X196825Y188159D01*
X196803Y188068D01*
X196770Y187977D01*
X196748Y187929D01*
X196723Y187882D01*
X196694Y187838D01*
X196661Y187795D01*
X196658Y187791D01*
X196654Y187784D01*
X196639Y187777D01*
X196625Y187762D01*
X196607Y187744D01*
X196585Y187726D01*
X196556Y187704D01*
X196523Y187686D01*
X196490Y187664D01*
X196450Y187642D01*
X196363Y187602D01*
X196261Y187569D01*
X196206Y187558D01*
X196148Y187551D01*
X196122Y187875D01*
X196126D01*
X196133D01*
X196144Y187879D01*
X196162Y187882D01*
X196203Y187893D01*
X196257Y187908D01*
X196312Y187929D01*
X196374Y187959D01*
X196428Y187995D01*
X196479Y188039D01*
X196483Y188046D01*
X196497Y188060D01*
X196516Y188090D01*
X196537Y188130D01*
X196559Y188173D01*
X196577Y188228D01*
X196592Y188290D01*
X196596Y188359D01*
Y188381D01*
X196592Y188395D01*
X196588Y188439D01*
X196574Y188490D01*
X196556Y188552D01*
X196527Y188614D01*
X196483Y188679D01*
X196457Y188708D01*
X196428Y188738D01*
X196424Y188741D01*
X196421Y188745D01*
X196410Y188752D01*
X196399Y188763D01*
X196359Y188788D01*
X196308Y188818D01*
X196246Y188843D01*
X196170Y188869D01*
X196079Y188887D01*
X196031Y188894D01*
X195981D01*
X195977D01*
X195969D01*
X195955D01*
X195937Y188891D01*
X195915D01*
X195889Y188887D01*
X195831Y188876D01*
X195762Y188858D01*
X195693Y188832D01*
X195627Y188796D01*
X195565Y188745D01*
X195562D01*
X195558Y188738D01*
X195540Y188719D01*
X195515Y188687D01*
X195485Y188643D01*
X195460Y188585D01*
X195434Y188519D01*
X195416Y188443D01*
X195409Y188399D01*
Y188330D01*
X195413Y188301D01*
X195416Y188264D01*
X195427Y188221D01*
X195438Y188177D01*
X195456Y188130D01*
X195478Y188082D01*
X195482Y188079D01*
X195489Y188064D01*
X195507Y188042D01*
X195526Y188013D01*
X195551Y187984D01*
X195584Y187955D01*
X195616Y187922D01*
X195657Y187897D01*
X195616Y187606D01*
X194321Y187849D01*
Y189102D01*
X194615D01*
Y188093D01*
X195296Y187959D01*
X195292Y187962D01*
X195289Y187970D01*
X195282Y187980D01*
X195271Y187999D01*
X195260Y188021D01*
X195245Y188046D01*
X195216Y188104D01*
X195187Y188177D01*
X195161Y188257D01*
X195143Y188345D01*
X195136Y188388D01*
Y188468D01*
X195140Y188490D01*
X195143Y188519D01*
X195147Y188552D01*
X195154Y188588D01*
X195165Y188628D01*
X195191Y188716D01*
X195209Y188763D01*
X195234Y188810D01*
X195260Y188858D01*
X195289Y188905D01*
X195325Y188949D01*
X195365Y188992D01*
X195369Y188996D01*
X195376Y189003D01*
X195387Y189014D01*
X195405Y189029D01*
X195431Y189047D01*
X195456Y189065D01*
X195489Y189087D01*
X195526Y189109D01*
X195565Y189127D01*
X195609Y189149D01*
X195660Y189167D01*
X195711Y189185D01*
X195766Y189200D01*
X195828Y189211D01*
X195889Y189218D01*
X195955Y189222D01*
X195959D01*
X195969D01*
X195988D01*
X196013Y189218D01*
D02*
G37*
G36*
X196028Y187263D02*
X196050Y187256D01*
X196079Y187245D01*
X196112Y187234D01*
X196151Y187220D01*
X196195Y187201D01*
X196242Y187180D01*
X196344Y187129D01*
X196446Y187063D01*
X196497Y187023D01*
X196548Y186983D01*
X196592Y186939D01*
X196636Y186889D01*
X196639Y186885D01*
X196647Y186878D01*
X196654Y186859D01*
X196668Y186841D01*
X196687Y186812D01*
X196705Y186783D01*
X196723Y186743D01*
X196741Y186703D01*
X196763Y186655D01*
X196781Y186604D01*
X196800Y186550D01*
X196818Y186492D01*
X196832Y186430D01*
X196839Y186364D01*
X196847Y186295D01*
X196850Y186222D01*
Y186182D01*
X196847Y186153D01*
Y186120D01*
X196843Y186080D01*
X196836Y186037D01*
X196829Y185986D01*
X196810Y185880D01*
X196781Y185771D01*
X196741Y185662D01*
X196716Y185611D01*
X196687Y185560D01*
X196683Y185556D01*
X196679Y185549D01*
X196668Y185534D01*
X196654Y185520D01*
X196639Y185498D01*
X196617Y185473D01*
X196592Y185443D01*
X196563Y185414D01*
X196530Y185385D01*
X196497Y185352D01*
X196414Y185287D01*
X196315Y185225D01*
X196206Y185170D01*
X196203D01*
X196192Y185163D01*
X196173Y185160D01*
X196151Y185149D01*
X196122Y185141D01*
X196086Y185130D01*
X196046Y185116D01*
X196002Y185105D01*
X195955Y185094D01*
X195900Y185079D01*
X195788Y185061D01*
X195660Y185047D01*
X195529Y185039D01*
X195526D01*
X195511D01*
X195489D01*
X195464Y185043D01*
X195427D01*
X195391Y185047D01*
X195343Y185050D01*
X195296Y185057D01*
X195191Y185076D01*
X195074Y185101D01*
X194958Y185138D01*
X194845Y185189D01*
X194841Y185192D01*
X194830Y185196D01*
X194816Y185203D01*
X194798Y185218D01*
X194772Y185232D01*
X194743Y185250D01*
X194677Y185298D01*
X194605Y185360D01*
X194532Y185433D01*
X194459Y185516D01*
X194397Y185615D01*
X194393Y185618D01*
X194390Y185629D01*
X194383Y185644D01*
X194372Y185662D01*
X194361Y185691D01*
X194350Y185720D01*
X194335Y185756D01*
X194321Y185796D01*
X194306Y185840D01*
X194291Y185888D01*
X194270Y185989D01*
X194252Y186106D01*
X194244Y186226D01*
Y186262D01*
X194248Y186288D01*
X194252Y186321D01*
X194255Y186361D01*
X194259Y186401D01*
X194270Y186448D01*
X194291Y186546D01*
X194324Y186655D01*
X194346Y186710D01*
X194372Y186761D01*
X194404Y186812D01*
X194437Y186863D01*
X194441Y186867D01*
X194444Y186874D01*
X194455Y186889D01*
X194474Y186907D01*
X194492Y186925D01*
X194517Y186950D01*
X194546Y186976D01*
X194575Y187005D01*
X194612Y187034D01*
X194656Y187063D01*
X194699Y187096D01*
X194746Y187125D01*
X194801Y187151D01*
X194856Y187180D01*
X194914Y187201D01*
X194980Y187223D01*
X195056Y186896D01*
X195052D01*
X195045Y186892D01*
X195030Y186885D01*
X195012Y186878D01*
X194990Y186870D01*
X194961Y186859D01*
X194903Y186830D01*
X194837Y186794D01*
X194772Y186750D01*
X194710Y186696D01*
X194656Y186637D01*
X194648Y186630D01*
X194634Y186608D01*
X194615Y186572D01*
X194590Y186524D01*
X194568Y186463D01*
X194546Y186393D01*
X194532Y186310D01*
X194528Y186219D01*
Y186190D01*
X194532Y186171D01*
Y186146D01*
X194535Y186117D01*
X194546Y186048D01*
X194561Y185971D01*
X194586Y185891D01*
X194623Y185807D01*
X194670Y185731D01*
Y185727D01*
X194677Y185724D01*
X194695Y185698D01*
X194725Y185665D01*
X194768Y185625D01*
X194823Y185578D01*
X194885Y185534D01*
X194961Y185494D01*
X195045Y185458D01*
X195049D01*
X195056Y185454D01*
X195067Y185451D01*
X195085Y185447D01*
X195107Y185440D01*
X195132Y185433D01*
X195194Y185422D01*
X195267Y185407D01*
X195347Y185392D01*
X195434Y185385D01*
X195529Y185381D01*
X195533D01*
X195544D01*
X195562D01*
X195584D01*
X195609Y185385D01*
X195642D01*
X195678Y185389D01*
X195718Y185392D01*
X195806Y185403D01*
X195900Y185422D01*
X195995Y185443D01*
X196090Y185473D01*
X196093D01*
X196101Y185476D01*
X196112Y185483D01*
X196130Y185491D01*
X196173Y185512D01*
X196224Y185545D01*
X196283Y185585D01*
X196344Y185636D01*
X196399Y185695D01*
X196450Y185764D01*
Y185767D01*
X196454Y185775D01*
X196461Y185785D01*
X196468Y185800D01*
X196476Y185818D01*
X196486Y185840D01*
X196508Y185891D01*
X196530Y185957D01*
X196548Y186029D01*
X196563Y186109D01*
X196566Y186193D01*
Y186219D01*
X196563Y186240D01*
Y186266D01*
X196559Y186292D01*
X196545Y186357D01*
X196527Y186433D01*
X196497Y186510D01*
X196457Y186590D01*
X196435Y186630D01*
X196406Y186666D01*
X196403Y186670D01*
X196399Y186674D01*
X196388Y186685D01*
X196377Y186699D01*
X196359Y186714D01*
X196337Y186732D01*
X196315Y186754D01*
X196286Y186772D01*
X196254Y186794D01*
X196217Y186819D01*
X196181Y186841D01*
X196137Y186863D01*
X196090Y186881D01*
X196039Y186899D01*
X195984Y186918D01*
X195926Y186932D01*
X196010Y187267D01*
X196013D01*
X196028Y187263D01*
D02*
G37*
G36*
X204242Y171467D02*
X204267D01*
X204296Y171464D01*
X204365Y171449D01*
X204442Y171431D01*
X204522Y171402D01*
X204602Y171358D01*
X204642Y171333D01*
X204679Y171304D01*
X204682Y171300D01*
X204686Y171296D01*
X204697Y171285D01*
X204708Y171274D01*
X204726Y171256D01*
X204740Y171235D01*
X204780Y171184D01*
X204820Y171118D01*
X204857Y171038D01*
X204890Y170947D01*
X204911Y170845D01*
X204602Y170819D01*
Y170823D01*
X204598Y170827D01*
X204595Y170849D01*
X204584Y170881D01*
X204569Y170921D01*
X204555Y170965D01*
X204533Y171009D01*
X204507Y171049D01*
X204482Y171082D01*
X204475Y171089D01*
X204460Y171103D01*
X204435Y171125D01*
X204398Y171151D01*
X204351Y171173D01*
X204300Y171194D01*
X204238Y171209D01*
X204172Y171216D01*
X204147D01*
X204118Y171213D01*
X204085Y171205D01*
X204042Y171194D01*
X203998Y171180D01*
X203954Y171162D01*
X203910Y171133D01*
X203903Y171129D01*
X203885Y171114D01*
X203859Y171089D01*
X203827Y171053D01*
X203790Y171009D01*
X203750Y170958D01*
X203714Y170892D01*
X203678Y170819D01*
Y170816D01*
X203674Y170809D01*
X203670Y170798D01*
X203663Y170783D01*
X203659Y170761D01*
X203652Y170736D01*
X203645Y170707D01*
X203638Y170670D01*
X203626Y170630D01*
X203619Y170587D01*
X203612Y170539D01*
X203608Y170488D01*
X203601Y170430D01*
X203597Y170372D01*
X203594Y170306D01*
Y170241D01*
X203597Y170244D01*
X203612Y170266D01*
X203638Y170295D01*
X203670Y170332D01*
X203707Y170375D01*
X203754Y170415D01*
X203805Y170456D01*
X203863Y170492D01*
X203867D01*
X203870Y170496D01*
X203892Y170507D01*
X203925Y170517D01*
X203969Y170536D01*
X204020Y170550D01*
X204078Y170561D01*
X204140Y170572D01*
X204205Y170576D01*
X204234D01*
X204256Y170572D01*
X204285Y170568D01*
X204314Y170565D01*
X204351Y170557D01*
X204387Y170546D01*
X204471Y170521D01*
X204515Y170503D01*
X204558Y170477D01*
X204602Y170452D01*
X204649Y170423D01*
X204693Y170386D01*
X204733Y170346D01*
X204737Y170343D01*
X204744Y170335D01*
X204755Y170325D01*
X204766Y170306D01*
X204784Y170281D01*
X204802Y170255D01*
X204820Y170223D01*
X204842Y170186D01*
X204864Y170146D01*
X204882Y170102D01*
X204901Y170052D01*
X204919Y170001D01*
X204930Y169946D01*
X204941Y169884D01*
X204948Y169822D01*
X204952Y169757D01*
Y169753D01*
Y169746D01*
Y169735D01*
Y169717D01*
X204948Y169695D01*
Y169673D01*
X204937Y169615D01*
X204926Y169545D01*
X204908Y169473D01*
X204882Y169393D01*
X204846Y169316D01*
Y169313D01*
X204842Y169309D01*
X204835Y169298D01*
X204828Y169283D01*
X204806Y169247D01*
X204773Y169200D01*
X204733Y169149D01*
X204686Y169098D01*
X204627Y169047D01*
X204566Y169003D01*
X204562D01*
X204558Y169000D01*
X204548Y168992D01*
X204533Y168989D01*
X204497Y168970D01*
X204449Y168952D01*
X204387Y168930D01*
X204318Y168916D01*
X204242Y168901D01*
X204158Y168898D01*
X204140D01*
X204122Y168901D01*
X204093D01*
X204060Y168905D01*
X204023Y168912D01*
X203980Y168923D01*
X203936Y168934D01*
X203885Y168949D01*
X203834Y168967D01*
X203783Y168989D01*
X203729Y169018D01*
X203678Y169051D01*
X203626Y169087D01*
X203576Y169131D01*
X203528Y169182D01*
X203525Y169185D01*
X203517Y169196D01*
X203506Y169211D01*
X203492Y169236D01*
X203470Y169269D01*
X203452Y169305D01*
X203430Y169353D01*
X203408Y169404D01*
X203383Y169465D01*
X203361Y169535D01*
X203343Y169611D01*
X203324Y169695D01*
X203306Y169789D01*
X203295Y169891D01*
X203288Y170001D01*
X203284Y170117D01*
Y170121D01*
Y170124D01*
Y170135D01*
Y170150D01*
X203288Y170186D01*
Y170237D01*
X203292Y170295D01*
X203299Y170364D01*
X203306Y170441D01*
X203317Y170525D01*
X203332Y170608D01*
X203350Y170699D01*
X203372Y170787D01*
X203397Y170874D01*
X203430Y170958D01*
X203466Y171038D01*
X203506Y171114D01*
X203554Y171180D01*
X203557Y171184D01*
X203565Y171191D01*
X203579Y171205D01*
X203597Y171227D01*
X203619Y171249D01*
X203648Y171271D01*
X203685Y171300D01*
X203721Y171326D01*
X203765Y171351D01*
X203812Y171380D01*
X203867Y171402D01*
X203921Y171427D01*
X203983Y171446D01*
X204049Y171460D01*
X204118Y171467D01*
X204191Y171471D01*
X204220D01*
X204242Y171467D01*
D02*
G37*
G36*
X202036Y171500D02*
X202069Y171497D01*
X202109Y171493D01*
X202149Y171489D01*
X202196Y171478D01*
X202294Y171457D01*
X202403Y171424D01*
X202458Y171402D01*
X202509Y171376D01*
X202560Y171344D01*
X202611Y171311D01*
X202615Y171307D01*
X202622Y171304D01*
X202637Y171293D01*
X202655Y171274D01*
X202673Y171256D01*
X202698Y171231D01*
X202724Y171202D01*
X202753Y171173D01*
X202782Y171136D01*
X202811Y171092D01*
X202844Y171049D01*
X202873Y171002D01*
X202899Y170947D01*
X202928Y170892D01*
X202950Y170834D01*
X202971Y170769D01*
X202644Y170692D01*
Y170696D01*
X202640Y170703D01*
X202633Y170718D01*
X202625Y170736D01*
X202618Y170758D01*
X202607Y170787D01*
X202578Y170845D01*
X202542Y170911D01*
X202498Y170976D01*
X202444Y171038D01*
X202385Y171092D01*
X202378Y171100D01*
X202356Y171114D01*
X202320Y171133D01*
X202273Y171158D01*
X202211Y171180D01*
X202141Y171202D01*
X202058Y171216D01*
X201967Y171220D01*
X201938D01*
X201919Y171216D01*
X201894D01*
X201865Y171213D01*
X201796Y171202D01*
X201719Y171187D01*
X201639Y171162D01*
X201555Y171125D01*
X201479Y171078D01*
X201475D01*
X201472Y171071D01*
X201446Y171053D01*
X201413Y171023D01*
X201373Y170980D01*
X201326Y170925D01*
X201282Y170863D01*
X201242Y170787D01*
X201206Y170703D01*
Y170699D01*
X201202Y170692D01*
X201199Y170681D01*
X201195Y170663D01*
X201188Y170641D01*
X201181Y170616D01*
X201169Y170554D01*
X201155Y170481D01*
X201140Y170401D01*
X201133Y170314D01*
X201130Y170219D01*
Y170215D01*
Y170204D01*
Y170186D01*
Y170164D01*
X201133Y170139D01*
Y170106D01*
X201137Y170070D01*
X201140Y170030D01*
X201151Y169942D01*
X201169Y169848D01*
X201191Y169753D01*
X201220Y169658D01*
Y169655D01*
X201224Y169647D01*
X201231Y169636D01*
X201239Y169618D01*
X201260Y169575D01*
X201293Y169524D01*
X201333Y169465D01*
X201384Y169404D01*
X201443Y169349D01*
X201512Y169298D01*
X201515D01*
X201523Y169294D01*
X201534Y169287D01*
X201548Y169280D01*
X201566Y169272D01*
X201588Y169262D01*
X201639Y169240D01*
X201705Y169218D01*
X201777Y169200D01*
X201857Y169185D01*
X201941Y169182D01*
X201967D01*
X201989Y169185D01*
X202014D01*
X202040Y169189D01*
X202105Y169203D01*
X202182Y169222D01*
X202258Y169251D01*
X202338Y169291D01*
X202378Y169313D01*
X202414Y169342D01*
X202418Y169345D01*
X202422Y169349D01*
X202433Y169360D01*
X202447Y169371D01*
X202462Y169389D01*
X202480Y169411D01*
X202502Y169433D01*
X202520Y169462D01*
X202542Y169495D01*
X202567Y169531D01*
X202589Y169567D01*
X202611Y169611D01*
X202629Y169658D01*
X202647Y169709D01*
X202666Y169764D01*
X202680Y169822D01*
X203015Y169738D01*
Y169735D01*
X203011Y169720D01*
X203004Y169698D01*
X202993Y169669D01*
X202982Y169636D01*
X202968Y169597D01*
X202950Y169553D01*
X202928Y169506D01*
X202877Y169404D01*
X202811Y169302D01*
X202771Y169251D01*
X202731Y169200D01*
X202687Y169156D01*
X202637Y169112D01*
X202633Y169109D01*
X202625Y169101D01*
X202607Y169094D01*
X202589Y169080D01*
X202560Y169061D01*
X202531Y169043D01*
X202491Y169025D01*
X202451Y169007D01*
X202403Y168985D01*
X202352Y168967D01*
X202298Y168949D01*
X202240Y168930D01*
X202178Y168916D01*
X202112Y168909D01*
X202043Y168901D01*
X201970Y168898D01*
X201930D01*
X201901Y168901D01*
X201868D01*
X201828Y168905D01*
X201785Y168912D01*
X201734Y168919D01*
X201628Y168938D01*
X201519Y168967D01*
X201410Y169007D01*
X201359Y169032D01*
X201308Y169061D01*
X201304Y169065D01*
X201297Y169069D01*
X201282Y169080D01*
X201268Y169094D01*
X201246Y169109D01*
X201220Y169131D01*
X201191Y169156D01*
X201162Y169185D01*
X201133Y169218D01*
X201100Y169251D01*
X201035Y169334D01*
X200973Y169433D01*
X200918Y169542D01*
Y169545D01*
X200911Y169556D01*
X200907Y169575D01*
X200897Y169597D01*
X200889Y169626D01*
X200878Y169662D01*
X200864Y169702D01*
X200853Y169746D01*
X200842Y169793D01*
X200827Y169848D01*
X200809Y169960D01*
X200795Y170088D01*
X200787Y170219D01*
Y170223D01*
Y170237D01*
Y170259D01*
X200791Y170284D01*
Y170321D01*
X200795Y170357D01*
X200798Y170405D01*
X200805Y170452D01*
X200824Y170557D01*
X200849Y170674D01*
X200886Y170790D01*
X200937Y170903D01*
X200940Y170907D01*
X200944Y170918D01*
X200951Y170932D01*
X200966Y170951D01*
X200980Y170976D01*
X200998Y171005D01*
X201046Y171071D01*
X201108Y171143D01*
X201181Y171216D01*
X201264Y171289D01*
X201362Y171351D01*
X201366Y171355D01*
X201377Y171358D01*
X201392Y171365D01*
X201410Y171376D01*
X201439Y171387D01*
X201468Y171398D01*
X201504Y171413D01*
X201544Y171427D01*
X201588Y171442D01*
X201636Y171457D01*
X201737Y171478D01*
X201854Y171497D01*
X201974Y171504D01*
X202010D01*
X202036Y171500D01*
D02*
G37*
G36*
Y203390D02*
X202069Y203386D01*
X202109Y203383D01*
X202149Y203379D01*
X202196Y203368D01*
X202294Y203346D01*
X202403Y203313D01*
X202458Y203292D01*
X202509Y203266D01*
X202560Y203233D01*
X202611Y203201D01*
X202615Y203197D01*
X202622Y203193D01*
X202637Y203183D01*
X202655Y203164D01*
X202673Y203146D01*
X202698Y203121D01*
X202724Y203092D01*
X202753Y203062D01*
X202782Y203026D01*
X202811Y202982D01*
X202844Y202939D01*
X202873Y202891D01*
X202899Y202837D01*
X202928Y202782D01*
X202950Y202724D01*
X202971Y202658D01*
X202644Y202582D01*
Y202586D01*
X202640Y202593D01*
X202633Y202607D01*
X202625Y202626D01*
X202618Y202647D01*
X202607Y202677D01*
X202578Y202735D01*
X202542Y202800D01*
X202498Y202866D01*
X202444Y202928D01*
X202385Y202982D01*
X202378Y202990D01*
X202356Y203004D01*
X202320Y203022D01*
X202273Y203048D01*
X202211Y203070D01*
X202141Y203092D01*
X202058Y203106D01*
X201967Y203110D01*
X201938D01*
X201919Y203106D01*
X201894D01*
X201865Y203102D01*
X201796Y203092D01*
X201719Y203077D01*
X201639Y203051D01*
X201555Y203015D01*
X201479Y202968D01*
X201475D01*
X201472Y202960D01*
X201446Y202942D01*
X201413Y202913D01*
X201373Y202869D01*
X201326Y202815D01*
X201282Y202753D01*
X201242Y202677D01*
X201206Y202593D01*
Y202589D01*
X201202Y202582D01*
X201199Y202571D01*
X201195Y202553D01*
X201188Y202531D01*
X201181Y202505D01*
X201169Y202444D01*
X201155Y202371D01*
X201140Y202291D01*
X201133Y202203D01*
X201130Y202109D01*
Y202105D01*
Y202094D01*
Y202076D01*
Y202054D01*
X201133Y202029D01*
Y201996D01*
X201137Y201959D01*
X201140Y201919D01*
X201151Y201832D01*
X201169Y201737D01*
X201191Y201643D01*
X201220Y201548D01*
Y201544D01*
X201224Y201537D01*
X201231Y201526D01*
X201239Y201508D01*
X201260Y201464D01*
X201293Y201413D01*
X201333Y201355D01*
X201384Y201293D01*
X201443Y201239D01*
X201512Y201188D01*
X201515D01*
X201523Y201184D01*
X201534Y201177D01*
X201548Y201170D01*
X201566Y201162D01*
X201588Y201151D01*
X201639Y201130D01*
X201705Y201108D01*
X201777Y201090D01*
X201857Y201075D01*
X201941Y201071D01*
X201967D01*
X201989Y201075D01*
X202014D01*
X202040Y201079D01*
X202105Y201093D01*
X202182Y201111D01*
X202258Y201140D01*
X202338Y201181D01*
X202378Y201202D01*
X202414Y201231D01*
X202418Y201235D01*
X202422Y201239D01*
X202433Y201250D01*
X202447Y201261D01*
X202462Y201279D01*
X202480Y201301D01*
X202502Y201322D01*
X202520Y201352D01*
X202542Y201384D01*
X202567Y201421D01*
X202589Y201457D01*
X202611Y201501D01*
X202629Y201548D01*
X202647Y201599D01*
X202666Y201654D01*
X202680Y201712D01*
X203015Y201628D01*
Y201625D01*
X203011Y201610D01*
X203004Y201588D01*
X202993Y201559D01*
X202982Y201526D01*
X202968Y201486D01*
X202950Y201443D01*
X202928Y201395D01*
X202877Y201293D01*
X202811Y201191D01*
X202771Y201140D01*
X202731Y201090D01*
X202687Y201046D01*
X202637Y201002D01*
X202633Y200998D01*
X202625Y200991D01*
X202607Y200984D01*
X202589Y200969D01*
X202560Y200951D01*
X202531Y200933D01*
X202491Y200915D01*
X202451Y200897D01*
X202403Y200875D01*
X202352Y200856D01*
X202298Y200838D01*
X202240Y200820D01*
X202178Y200806D01*
X202112Y200798D01*
X202043Y200791D01*
X201970Y200787D01*
X201930D01*
X201901Y200791D01*
X201868D01*
X201828Y200795D01*
X201785Y200802D01*
X201734Y200809D01*
X201628Y200827D01*
X201519Y200856D01*
X201410Y200897D01*
X201359Y200922D01*
X201308Y200951D01*
X201304Y200955D01*
X201297Y200958D01*
X201282Y200969D01*
X201268Y200984D01*
X201246Y200998D01*
X201220Y201020D01*
X201191Y201046D01*
X201162Y201075D01*
X201133Y201108D01*
X201100Y201140D01*
X201035Y201224D01*
X200973Y201322D01*
X200918Y201432D01*
Y201435D01*
X200911Y201446D01*
X200907Y201464D01*
X200897Y201486D01*
X200889Y201515D01*
X200878Y201552D01*
X200864Y201592D01*
X200853Y201636D01*
X200842Y201683D01*
X200827Y201737D01*
X200809Y201850D01*
X200795Y201978D01*
X200787Y202109D01*
Y202112D01*
Y202127D01*
Y202149D01*
X200791Y202174D01*
Y202211D01*
X200795Y202247D01*
X200798Y202294D01*
X200805Y202342D01*
X200824Y202447D01*
X200849Y202564D01*
X200886Y202680D01*
X200937Y202793D01*
X200940Y202797D01*
X200944Y202808D01*
X200951Y202822D01*
X200966Y202840D01*
X200980Y202866D01*
X200998Y202895D01*
X201046Y202960D01*
X201108Y203033D01*
X201181Y203106D01*
X201264Y203179D01*
X201362Y203241D01*
X201366Y203244D01*
X201377Y203248D01*
X201392Y203255D01*
X201410Y203266D01*
X201439Y203277D01*
X201468Y203288D01*
X201504Y203303D01*
X201544Y203317D01*
X201588Y203332D01*
X201636Y203346D01*
X201737Y203368D01*
X201854Y203386D01*
X201974Y203394D01*
X202010D01*
X202036Y203390D01*
D02*
G37*
G36*
X204598Y201719D02*
X204941D01*
Y201435D01*
X204598D01*
Y200831D01*
X204289D01*
Y201435D01*
X203193D01*
Y201719D01*
X204347Y203350D01*
X204598D01*
Y201719D01*
D02*
G37*
G36*
X249401Y111879D02*
X249431D01*
X249467Y111875D01*
X249507Y111872D01*
X249547Y111868D01*
X249638Y111854D01*
X249736Y111832D01*
X249831Y111803D01*
X249922Y111763D01*
X249926D01*
X249933Y111755D01*
X249944Y111748D01*
X249958Y111741D01*
X249998Y111712D01*
X250046Y111672D01*
X250100Y111621D01*
X250151Y111563D01*
X250202Y111490D01*
X250242Y111410D01*
Y111406D01*
X250246Y111399D01*
X250250Y111384D01*
X250257Y111366D01*
X250264Y111344D01*
X250271Y111315D01*
X250282Y111282D01*
X250290Y111242D01*
X250297Y111198D01*
X250308Y111151D01*
X250315Y111100D01*
X250322Y111046D01*
X250330Y110984D01*
X250333Y110918D01*
X250337Y110849D01*
Y110776D01*
Y109320D01*
X250002D01*
Y110776D01*
Y110780D01*
Y110791D01*
Y110809D01*
Y110831D01*
X249998Y110856D01*
Y110889D01*
X249995Y110958D01*
X249988Y111038D01*
X249977Y111118D01*
X249962Y111195D01*
X249955Y111228D01*
X249944Y111260D01*
X249940Y111268D01*
X249933Y111286D01*
X249915Y111311D01*
X249893Y111348D01*
X249867Y111384D01*
X249831Y111424D01*
X249787Y111464D01*
X249736Y111497D01*
X249729Y111501D01*
X249711Y111512D01*
X249678Y111522D01*
X249634Y111537D01*
X249584Y111555D01*
X249518Y111566D01*
X249449Y111577D01*
X249372Y111581D01*
X249336D01*
X249314Y111577D01*
X249281D01*
X249249Y111573D01*
X249168Y111559D01*
X249081Y111541D01*
X248997Y111512D01*
X248917Y111471D01*
X248881Y111446D01*
X248848Y111417D01*
X248845Y111413D01*
X248841Y111410D01*
X248834Y111399D01*
X248823Y111384D01*
X248812Y111362D01*
X248797Y111340D01*
X248783Y111308D01*
X248768Y111275D01*
X248754Y111235D01*
X248743Y111188D01*
X248728Y111133D01*
X248717Y111075D01*
X248706Y111009D01*
X248699Y110940D01*
X248692Y110860D01*
Y110776D01*
Y109320D01*
X248357D01*
Y110776D01*
Y110780D01*
Y110794D01*
Y110813D01*
Y110838D01*
X248360Y110871D01*
Y110907D01*
X248364Y110951D01*
X248368Y110995D01*
X248379Y111093D01*
X248393Y111195D01*
X248415Y111293D01*
X248430Y111340D01*
X248444Y111384D01*
Y111388D01*
X248448Y111395D01*
X248455Y111406D01*
X248462Y111421D01*
X248484Y111461D01*
X248517Y111512D01*
X248561Y111570D01*
X248612Y111628D01*
X248677Y111690D01*
X248757Y111744D01*
X248761D01*
X248768Y111752D01*
X248779Y111755D01*
X248797Y111766D01*
X248819Y111777D01*
X248848Y111788D01*
X248877Y111799D01*
X248914Y111814D01*
X248954Y111828D01*
X248997Y111839D01*
X249045Y111850D01*
X249099Y111861D01*
X249154Y111868D01*
X249212Y111875D01*
X249343Y111883D01*
X249376D01*
X249401Y111879D01*
D02*
G37*
G36*
X247072Y109870D02*
X247076Y109874D01*
X247094Y109888D01*
X247116Y109910D01*
X247152Y109935D01*
X247192Y109968D01*
X247243Y110005D01*
X247301Y110045D01*
X247367Y110085D01*
X247370D01*
X247374Y110088D01*
X247396Y110103D01*
X247432Y110121D01*
X247476Y110143D01*
X247527Y110168D01*
X247582Y110194D01*
X247636Y110219D01*
X247691Y110241D01*
Y109943D01*
X247687D01*
X247680Y109935D01*
X247665Y109932D01*
X247647Y109921D01*
X247625Y109910D01*
X247600Y109895D01*
X247538Y109859D01*
X247465Y109819D01*
X247392Y109768D01*
X247316Y109710D01*
X247239Y109648D01*
X247236Y109644D01*
X247232Y109641D01*
X247221Y109630D01*
X247207Y109619D01*
X247174Y109582D01*
X247130Y109539D01*
X247086Y109488D01*
X247039Y109430D01*
X246999Y109371D01*
X246963Y109309D01*
X246762D01*
Y111839D01*
X247072D01*
Y109870D01*
D02*
G37*
G36*
X312264Y130233D02*
X312297Y130230D01*
X312337Y130226D01*
X312377Y130222D01*
X312425Y130211D01*
X312523Y130190D01*
X312632Y130157D01*
X312687Y130135D01*
X312738Y130110D01*
X312789Y130077D01*
X312840Y130044D01*
X312843Y130041D01*
X312851Y130037D01*
X312865Y130026D01*
X312883Y130008D01*
X312901Y129990D01*
X312927Y129964D01*
X312952Y129935D01*
X312982Y129906D01*
X313011Y129869D01*
X313040Y129826D01*
X313073Y129782D01*
X313102Y129735D01*
X313127Y129680D01*
X313156Y129625D01*
X313178Y129567D01*
X313200Y129502D01*
X312872Y129425D01*
Y129429D01*
X312869Y129436D01*
X312861Y129451D01*
X312854Y129469D01*
X312847Y129491D01*
X312836Y129520D01*
X312807Y129578D01*
X312771Y129644D01*
X312727Y129709D01*
X312672Y129771D01*
X312614Y129826D01*
X312607Y129833D01*
X312585Y129848D01*
X312548Y129866D01*
X312501Y129891D01*
X312439Y129913D01*
X312370Y129935D01*
X312286Y129949D01*
X312195Y129953D01*
X312166D01*
X312148Y129949D01*
X312123D01*
X312093Y129946D01*
X312024Y129935D01*
X311948Y129920D01*
X311868Y129895D01*
X311784Y129858D01*
X311708Y129811D01*
X311704D01*
X311700Y129804D01*
X311675Y129786D01*
X311642Y129756D01*
X311602Y129713D01*
X311555Y129658D01*
X311511Y129596D01*
X311471Y129520D01*
X311435Y129436D01*
Y129433D01*
X311431Y129425D01*
X311427Y129414D01*
X311424Y129396D01*
X311416Y129374D01*
X311409Y129349D01*
X311398Y129287D01*
X311384Y129214D01*
X311369Y129134D01*
X311362Y129047D01*
X311358Y128952D01*
Y128948D01*
Y128937D01*
Y128919D01*
Y128898D01*
X311362Y128872D01*
Y128839D01*
X311366Y128803D01*
X311369Y128763D01*
X311380Y128675D01*
X311398Y128581D01*
X311420Y128486D01*
X311449Y128392D01*
Y128388D01*
X311453Y128381D01*
X311460Y128370D01*
X311467Y128351D01*
X311489Y128308D01*
X311522Y128257D01*
X311562Y128199D01*
X311613Y128137D01*
X311671Y128082D01*
X311740Y128031D01*
X311744D01*
X311751Y128027D01*
X311762Y128020D01*
X311777Y128013D01*
X311795Y128006D01*
X311817Y127995D01*
X311868Y127973D01*
X311933Y127951D01*
X312006Y127933D01*
X312086Y127918D01*
X312170Y127915D01*
X312195D01*
X312217Y127918D01*
X312243D01*
X312268Y127922D01*
X312334Y127936D01*
X312410Y127955D01*
X312487Y127984D01*
X312567Y128024D01*
X312607Y128046D01*
X312643Y128075D01*
X312647Y128078D01*
X312650Y128082D01*
X312661Y128093D01*
X312676Y128104D01*
X312690Y128122D01*
X312709Y128144D01*
X312731Y128166D01*
X312749Y128195D01*
X312771Y128228D01*
X312796Y128264D01*
X312818Y128300D01*
X312840Y128344D01*
X312858Y128392D01*
X312876Y128443D01*
X312894Y128497D01*
X312909Y128555D01*
X313244Y128472D01*
Y128468D01*
X313240Y128453D01*
X313233Y128432D01*
X313222Y128402D01*
X313211Y128370D01*
X313196Y128330D01*
X313178Y128286D01*
X313156Y128239D01*
X313105Y128137D01*
X313040Y128035D01*
X313000Y127984D01*
X312960Y127933D01*
X312916Y127889D01*
X312865Y127846D01*
X312861Y127842D01*
X312854Y127835D01*
X312836Y127827D01*
X312818Y127813D01*
X312789Y127795D01*
X312760Y127776D01*
X312719Y127758D01*
X312680Y127740D01*
X312632Y127718D01*
X312581Y127700D01*
X312527Y127682D01*
X312468Y127664D01*
X312406Y127649D01*
X312341Y127642D01*
X312272Y127634D01*
X312199Y127631D01*
X312159D01*
X312130Y127634D01*
X312097D01*
X312057Y127638D01*
X312013Y127645D01*
X311962Y127653D01*
X311857Y127671D01*
X311748Y127700D01*
X311638Y127740D01*
X311588Y127766D01*
X311537Y127795D01*
X311533Y127798D01*
X311526Y127802D01*
X311511Y127813D01*
X311496Y127827D01*
X311475Y127842D01*
X311449Y127864D01*
X311420Y127889D01*
X311391Y127918D01*
X311362Y127951D01*
X311329Y127984D01*
X311263Y128068D01*
X311202Y128166D01*
X311147Y128275D01*
Y128279D01*
X311140Y128290D01*
X311136Y128308D01*
X311125Y128330D01*
X311118Y128359D01*
X311107Y128395D01*
X311092Y128435D01*
X311082Y128479D01*
X311071Y128526D01*
X311056Y128581D01*
X311038Y128694D01*
X311023Y128821D01*
X311016Y128952D01*
Y128956D01*
Y128970D01*
Y128992D01*
X311020Y129018D01*
Y129054D01*
X311023Y129090D01*
X311027Y129138D01*
X311034Y129185D01*
X311052Y129291D01*
X311078Y129407D01*
X311114Y129524D01*
X311165Y129636D01*
X311169Y129640D01*
X311173Y129651D01*
X311180Y129666D01*
X311194Y129684D01*
X311209Y129709D01*
X311227Y129738D01*
X311274Y129804D01*
X311336Y129877D01*
X311409Y129949D01*
X311493Y130022D01*
X311591Y130084D01*
X311595Y130088D01*
X311606Y130091D01*
X311620Y130099D01*
X311638Y130110D01*
X311668Y130121D01*
X311697Y130131D01*
X311733Y130146D01*
X311773Y130161D01*
X311817Y130175D01*
X311864Y130190D01*
X311966Y130211D01*
X312083Y130230D01*
X312203Y130237D01*
X312239D01*
X312264Y130233D01*
D02*
G37*
G36*
X314692Y127674D02*
X314383D01*
Y129644D01*
X314379Y129640D01*
X314361Y129625D01*
X314339Y129604D01*
X314303Y129578D01*
X314263Y129545D01*
X314212Y129509D01*
X314154Y129469D01*
X314088Y129429D01*
X314085D01*
X314081Y129425D01*
X314059Y129411D01*
X314023Y129393D01*
X313979Y129371D01*
X313928Y129345D01*
X313873Y129320D01*
X313819Y129294D01*
X313764Y129272D01*
Y129571D01*
X313768D01*
X313775Y129578D01*
X313790Y129582D01*
X313808Y129593D01*
X313830Y129604D01*
X313855Y129618D01*
X313917Y129655D01*
X313990Y129695D01*
X314063Y129746D01*
X314139Y129804D01*
X314216Y129866D01*
X314219Y129869D01*
X314223Y129873D01*
X314234Y129884D01*
X314248Y129895D01*
X314281Y129931D01*
X314325Y129975D01*
X314368Y130026D01*
X314416Y130084D01*
X314456Y130142D01*
X314492Y130204D01*
X314692D01*
Y127674D01*
D02*
G37*
G36*
X311477Y98344D02*
X311510Y98340D01*
X311550Y98336D01*
X311590Y98333D01*
X311637Y98322D01*
X311736Y98300D01*
X311845Y98267D01*
X311899Y98245D01*
X311950Y98220D01*
X312001Y98187D01*
X312052Y98154D01*
X312056Y98151D01*
X312063Y98147D01*
X312078Y98136D01*
X312096Y98118D01*
X312114Y98100D01*
X312140Y98074D01*
X312165Y98045D01*
X312194Y98016D01*
X312223Y97980D01*
X312252Y97936D01*
X312285Y97892D01*
X312314Y97845D01*
X312340Y97790D01*
X312369Y97736D01*
X312391Y97677D01*
X312413Y97612D01*
X312085Y97536D01*
Y97539D01*
X312081Y97546D01*
X312074Y97561D01*
X312067Y97579D01*
X312059Y97601D01*
X312049Y97630D01*
X312019Y97688D01*
X311983Y97754D01*
X311939Y97819D01*
X311885Y97881D01*
X311827Y97936D01*
X311819Y97943D01*
X311797Y97958D01*
X311761Y97976D01*
X311714Y98001D01*
X311652Y98023D01*
X311583Y98045D01*
X311499Y98060D01*
X311408Y98063D01*
X311379D01*
X311361Y98060D01*
X311335D01*
X311306Y98056D01*
X311237Y98045D01*
X311160Y98031D01*
X311080Y98005D01*
X310997Y97969D01*
X310920Y97921D01*
X310917D01*
X310913Y97914D01*
X310887Y97896D01*
X310855Y97867D01*
X310815Y97823D01*
X310767Y97768D01*
X310724Y97707D01*
X310684Y97630D01*
X310647Y97546D01*
Y97543D01*
X310644Y97536D01*
X310640Y97525D01*
X310636Y97506D01*
X310629Y97485D01*
X310622Y97459D01*
X310611Y97397D01*
X310596Y97324D01*
X310582Y97244D01*
X310574Y97157D01*
X310571Y97062D01*
Y97059D01*
Y97048D01*
Y97030D01*
Y97008D01*
X310574Y96982D01*
Y96949D01*
X310578Y96913D01*
X310582Y96873D01*
X310593Y96786D01*
X310611Y96691D01*
X310633Y96596D01*
X310662Y96502D01*
Y96498D01*
X310665Y96491D01*
X310673Y96480D01*
X310680Y96462D01*
X310702Y96418D01*
X310735Y96367D01*
X310775Y96309D01*
X310826Y96247D01*
X310884Y96192D01*
X310953Y96141D01*
X310957D01*
X310964Y96138D01*
X310975Y96131D01*
X310989Y96123D01*
X311008Y96116D01*
X311029Y96105D01*
X311080Y96083D01*
X311146Y96061D01*
X311219Y96043D01*
X311299Y96029D01*
X311383Y96025D01*
X311408D01*
X311430Y96029D01*
X311455D01*
X311481Y96032D01*
X311546Y96047D01*
X311623Y96065D01*
X311699Y96094D01*
X311779Y96134D01*
X311819Y96156D01*
X311856Y96185D01*
X311859Y96189D01*
X311863Y96192D01*
X311874Y96203D01*
X311889Y96214D01*
X311903Y96232D01*
X311921Y96254D01*
X311943Y96276D01*
X311961Y96305D01*
X311983Y96338D01*
X312009Y96374D01*
X312030Y96411D01*
X312052Y96454D01*
X312070Y96502D01*
X312089Y96553D01*
X312107Y96607D01*
X312121Y96666D01*
X312456Y96582D01*
Y96578D01*
X312453Y96564D01*
X312445Y96542D01*
X312435Y96513D01*
X312423Y96480D01*
X312409Y96440D01*
X312391Y96396D01*
X312369Y96349D01*
X312318Y96247D01*
X312252Y96145D01*
X312212Y96094D01*
X312172Y96043D01*
X312129Y95999D01*
X312078Y95956D01*
X312074Y95952D01*
X312067Y95945D01*
X312049Y95938D01*
X312030Y95923D01*
X312001Y95905D01*
X311972Y95887D01*
X311932Y95868D01*
X311892Y95850D01*
X311845Y95828D01*
X311794Y95810D01*
X311739Y95792D01*
X311681Y95774D01*
X311619Y95759D01*
X311554Y95752D01*
X311484Y95745D01*
X311412Y95741D01*
X311372D01*
X311343Y95745D01*
X311310D01*
X311270Y95748D01*
X311226Y95756D01*
X311175Y95763D01*
X311069Y95781D01*
X310960Y95810D01*
X310851Y95850D01*
X310800Y95876D01*
X310749Y95905D01*
X310746Y95908D01*
X310738Y95912D01*
X310724Y95923D01*
X310709Y95938D01*
X310687Y95952D01*
X310662Y95974D01*
X310633Y95999D01*
X310603Y96029D01*
X310574Y96061D01*
X310542Y96094D01*
X310476Y96178D01*
X310414Y96276D01*
X310360Y96385D01*
Y96389D01*
X310352Y96400D01*
X310349Y96418D01*
X310338Y96440D01*
X310331Y96469D01*
X310320Y96505D01*
X310305Y96545D01*
X310294Y96589D01*
X310283Y96636D01*
X310269Y96691D01*
X310250Y96804D01*
X310236Y96931D01*
X310229Y97062D01*
Y97066D01*
Y97080D01*
Y97102D01*
X310232Y97128D01*
Y97164D01*
X310236Y97201D01*
X310240Y97248D01*
X310247Y97295D01*
X310265Y97401D01*
X310291Y97517D01*
X310327Y97634D01*
X310378Y97747D01*
X310382Y97750D01*
X310385Y97761D01*
X310392Y97776D01*
X310407Y97794D01*
X310421Y97819D01*
X310440Y97849D01*
X310487Y97914D01*
X310549Y97987D01*
X310622Y98060D01*
X310705Y98132D01*
X310804Y98194D01*
X310807Y98198D01*
X310818Y98202D01*
X310833Y98209D01*
X310851Y98220D01*
X310880Y98231D01*
X310909Y98242D01*
X310946Y98256D01*
X310986Y98271D01*
X311029Y98285D01*
X311077Y98300D01*
X311179Y98322D01*
X311295Y98340D01*
X311415Y98347D01*
X311452D01*
X311477Y98344D01*
D02*
G37*
G36*
X313607Y98311D02*
X313654Y98304D01*
X313712Y98293D01*
X313778Y98274D01*
X313843Y98253D01*
X313909Y98224D01*
X313912D01*
X313916Y98220D01*
X313938Y98209D01*
X313970Y98187D01*
X314007Y98162D01*
X314051Y98125D01*
X314094Y98085D01*
X314138Y98038D01*
X314174Y97983D01*
X314178Y97976D01*
X314189Y97958D01*
X314204Y97925D01*
X314222Y97885D01*
X314240Y97838D01*
X314254Y97783D01*
X314265Y97721D01*
X314269Y97659D01*
Y97652D01*
Y97630D01*
X314265Y97601D01*
X314258Y97561D01*
X314247Y97514D01*
X314229Y97463D01*
X314207Y97412D01*
X314178Y97361D01*
X314174Y97354D01*
X314163Y97339D01*
X314142Y97313D01*
X314112Y97284D01*
X314076Y97252D01*
X314032Y97215D01*
X313981Y97182D01*
X313920Y97150D01*
X313923D01*
X313931Y97146D01*
X313941Y97142D01*
X313956Y97139D01*
X313996Y97124D01*
X314047Y97102D01*
X314105Y97073D01*
X314163Y97037D01*
X314218Y96990D01*
X314269Y96935D01*
X314273Y96928D01*
X314287Y96906D01*
X314309Y96869D01*
X314331Y96822D01*
X314353Y96764D01*
X314375Y96695D01*
X314389Y96615D01*
X314393Y96527D01*
Y96524D01*
Y96513D01*
Y96495D01*
X314389Y96473D01*
X314386Y96443D01*
X314378Y96411D01*
X314371Y96374D01*
X314364Y96334D01*
X314335Y96247D01*
X314313Y96200D01*
X314291Y96156D01*
X314262Y96109D01*
X314229Y96061D01*
X314193Y96014D01*
X314149Y95970D01*
X314145Y95967D01*
X314138Y95959D01*
X314123Y95948D01*
X314105Y95934D01*
X314083Y95916D01*
X314054Y95898D01*
X314021Y95876D01*
X313981Y95858D01*
X313941Y95836D01*
X313894Y95814D01*
X313847Y95796D01*
X313792Y95777D01*
X313734Y95763D01*
X313672Y95752D01*
X313610Y95745D01*
X313541Y95741D01*
X313508D01*
X313486Y95745D01*
X313457Y95748D01*
X313424Y95752D01*
X313388Y95759D01*
X313348Y95767D01*
X313261Y95788D01*
X313170Y95825D01*
X313122Y95847D01*
X313079Y95872D01*
X313035Y95905D01*
X312991Y95938D01*
X312988Y95941D01*
X312981Y95948D01*
X312969Y95959D01*
X312959Y95974D01*
X312940Y95992D01*
X312922Y96018D01*
X312900Y96043D01*
X312878Y96076D01*
X312857Y96112D01*
X312835Y96149D01*
X312795Y96236D01*
X312762Y96338D01*
X312751Y96393D01*
X312744Y96451D01*
X313053Y96491D01*
Y96487D01*
X313057Y96480D01*
X313060Y96465D01*
X313064Y96447D01*
X313068Y96425D01*
X313075Y96400D01*
X313093Y96345D01*
X313119Y96280D01*
X313152Y96218D01*
X313188Y96160D01*
X313232Y96109D01*
X313239Y96105D01*
X313253Y96090D01*
X313283Y96072D01*
X313319Y96054D01*
X313363Y96032D01*
X313417Y96014D01*
X313479Y95999D01*
X313545Y95996D01*
X313566D01*
X313581Y95999D01*
X313621Y96003D01*
X313672Y96014D01*
X313730Y96032D01*
X313792Y96058D01*
X313854Y96094D01*
X313912Y96145D01*
X313920Y96152D01*
X313938Y96174D01*
X313960Y96207D01*
X313989Y96251D01*
X314018Y96305D01*
X314040Y96367D01*
X314058Y96440D01*
X314065Y96520D01*
Y96524D01*
Y96531D01*
Y96542D01*
X314061Y96556D01*
X314058Y96596D01*
X314047Y96644D01*
X314032Y96702D01*
X314007Y96760D01*
X313970Y96818D01*
X313923Y96873D01*
X313916Y96880D01*
X313898Y96895D01*
X313869Y96917D01*
X313829Y96942D01*
X313778Y96968D01*
X313716Y96990D01*
X313647Y97004D01*
X313570Y97011D01*
X313537D01*
X313512Y97008D01*
X313479Y97004D01*
X313443Y96997D01*
X313399Y96990D01*
X313352Y96979D01*
X313388Y97252D01*
X313406D01*
X313421Y97248D01*
X313468D01*
X313508Y97255D01*
X313556Y97263D01*
X313610Y97273D01*
X313672Y97292D01*
X313730Y97317D01*
X313792Y97350D01*
X313796D01*
X313799Y97354D01*
X313818Y97368D01*
X313843Y97394D01*
X313872Y97426D01*
X313901Y97474D01*
X313927Y97528D01*
X313945Y97590D01*
X313952Y97627D01*
Y97667D01*
Y97670D01*
Y97674D01*
Y97696D01*
X313945Y97725D01*
X313938Y97765D01*
X313923Y97808D01*
X313905Y97856D01*
X313876Y97903D01*
X313836Y97947D01*
X313832Y97951D01*
X313814Y97965D01*
X313789Y97983D01*
X313756Y98005D01*
X313712Y98023D01*
X313661Y98041D01*
X313603Y98056D01*
X313537Y98060D01*
X313508D01*
X313475Y98052D01*
X313432Y98045D01*
X313385Y98031D01*
X313337Y98012D01*
X313286Y97983D01*
X313239Y97947D01*
X313235Y97943D01*
X313221Y97925D01*
X313199Y97900D01*
X313173Y97863D01*
X313148Y97816D01*
X313122Y97758D01*
X313101Y97688D01*
X313086Y97608D01*
X312777Y97663D01*
Y97667D01*
X312780Y97677D01*
X312784Y97692D01*
X312788Y97714D01*
X312795Y97739D01*
X312806Y97768D01*
X312828Y97838D01*
X312864Y97918D01*
X312908Y97998D01*
X312962Y98074D01*
X313031Y98143D01*
X313035Y98147D01*
X313042Y98151D01*
X313053Y98158D01*
X313068Y98169D01*
X313086Y98184D01*
X313111Y98198D01*
X313137Y98213D01*
X313170Y98231D01*
X313243Y98260D01*
X313326Y98289D01*
X313424Y98307D01*
X313475Y98314D01*
X313566D01*
X313607Y98311D01*
D02*
G37*
G36*
X306642Y113957D02*
X306638D01*
X306624D01*
X306602D01*
X306573Y113961D01*
X306540Y113964D01*
X306503Y113971D01*
X306467Y113979D01*
X306427Y113993D01*
X306423D01*
X306420Y113997D01*
X306398Y114004D01*
X306365Y114019D01*
X306321Y114041D01*
X306270Y114070D01*
X306212Y114106D01*
X306154Y114146D01*
X306092Y114197D01*
X306088D01*
X306085Y114205D01*
X306063Y114223D01*
X306030Y114255D01*
X305983Y114303D01*
X305928Y114357D01*
X305863Y114427D01*
X305790Y114510D01*
X305714Y114601D01*
X305710Y114605D01*
X305699Y114619D01*
X305681Y114641D01*
X305659Y114667D01*
X305630Y114699D01*
X305597Y114740D01*
X305561Y114780D01*
X305521Y114827D01*
X305433Y114918D01*
X305346Y115009D01*
X305302Y115053D01*
X305258Y115093D01*
X305219Y115129D01*
X305178Y115158D01*
X305175D01*
X305171Y115165D01*
X305160Y115173D01*
X305146Y115180D01*
X305106Y115206D01*
X305058Y115235D01*
X305000Y115260D01*
X304938Y115286D01*
X304869Y115300D01*
X304803Y115307D01*
X304800D01*
X304796D01*
X304774Y115304D01*
X304738Y115300D01*
X304698Y115289D01*
X304647Y115275D01*
X304596Y115249D01*
X304545Y115216D01*
X304494Y115173D01*
X304487Y115165D01*
X304472Y115147D01*
X304454Y115122D01*
X304429Y115082D01*
X304407Y115031D01*
X304385Y114972D01*
X304370Y114903D01*
X304367Y114827D01*
Y114805D01*
X304370Y114790D01*
X304374Y114747D01*
X304385Y114696D01*
X304399Y114641D01*
X304425Y114579D01*
X304458Y114521D01*
X304501Y114467D01*
X304509Y114459D01*
X304527Y114445D01*
X304556Y114423D01*
X304600Y114401D01*
X304651Y114375D01*
X304716Y114354D01*
X304789Y114339D01*
X304873Y114332D01*
X304840Y114015D01*
X304836D01*
X304825Y114019D01*
X304807D01*
X304782Y114023D01*
X304753Y114030D01*
X304720Y114037D01*
X304680Y114048D01*
X304640Y114059D01*
X304552Y114088D01*
X304465Y114132D01*
X304421Y114157D01*
X304378Y114190D01*
X304338Y114223D01*
X304301Y114259D01*
X304298Y114263D01*
X304294Y114270D01*
X304283Y114281D01*
X304272Y114299D01*
X304257Y114321D01*
X304243Y114346D01*
X304225Y114375D01*
X304207Y114412D01*
X304188Y114452D01*
X304170Y114496D01*
X304156Y114543D01*
X304141Y114594D01*
X304130Y114649D01*
X304119Y114707D01*
X304116Y114769D01*
X304112Y114834D01*
Y114871D01*
X304116Y114896D01*
X304119Y114925D01*
X304123Y114962D01*
X304130Y115002D01*
X304137Y115042D01*
X304163Y115136D01*
X304199Y115231D01*
X304221Y115278D01*
X304247Y115326D01*
X304279Y115369D01*
X304316Y115409D01*
X304319Y115413D01*
X304323Y115420D01*
X304338Y115427D01*
X304352Y115442D01*
X304370Y115460D01*
X304396Y115479D01*
X304421Y115497D01*
X304454Y115518D01*
X304523Y115555D01*
X304611Y115591D01*
X304654Y115606D01*
X304705Y115613D01*
X304756Y115620D01*
X304811Y115624D01*
X304818D01*
X304836D01*
X304865Y115620D01*
X304905Y115617D01*
X304949Y115610D01*
X305000Y115595D01*
X305055Y115580D01*
X305109Y115559D01*
X305117Y115555D01*
X305135Y115548D01*
X305164Y115533D01*
X305204Y115511D01*
X305248Y115482D01*
X305302Y115446D01*
X305357Y115402D01*
X305419Y115351D01*
X305426Y115344D01*
X305448Y115326D01*
X305466Y115307D01*
X305484Y115289D01*
X305506Y115267D01*
X305535Y115238D01*
X305564Y115209D01*
X305597Y115173D01*
X305633Y115136D01*
X305674Y115093D01*
X305714Y115045D01*
X305761Y114994D01*
X305808Y114936D01*
X305859Y114878D01*
X305863Y114874D01*
X305870Y114867D01*
X305881Y114852D01*
X305895Y114834D01*
X305917Y114812D01*
X305939Y114787D01*
X305986Y114729D01*
X306041Y114667D01*
X306096Y114609D01*
X306143Y114558D01*
X306161Y114536D01*
X306179Y114517D01*
X306183Y114514D01*
X306194Y114503D01*
X306209Y114488D01*
X306230Y114470D01*
X306256Y114452D01*
X306281Y114430D01*
X306343Y114386D01*
Y115628D01*
X306642D01*
Y113957D01*
D02*
G37*
G36*
X305863Y113713D02*
X305885Y113706D01*
X305914Y113695D01*
X305946Y113684D01*
X305986Y113669D01*
X306030Y113651D01*
X306078Y113629D01*
X306179Y113578D01*
X306281Y113513D01*
X306332Y113473D01*
X306383Y113433D01*
X306427Y113389D01*
X306471Y113338D01*
X306474Y113335D01*
X306482Y113327D01*
X306489Y113309D01*
X306503Y113291D01*
X306522Y113262D01*
X306540Y113233D01*
X306558Y113193D01*
X306576Y113153D01*
X306598Y113105D01*
X306616Y113054D01*
X306634Y113000D01*
X306653Y112941D01*
X306667Y112880D01*
X306675Y112814D01*
X306682Y112745D01*
X306685Y112672D01*
Y112632D01*
X306682Y112603D01*
Y112570D01*
X306678Y112530D01*
X306671Y112486D01*
X306663Y112435D01*
X306645Y112330D01*
X306616Y112221D01*
X306576Y112111D01*
X306551Y112060D01*
X306522Y112010D01*
X306518Y112006D01*
X306514Y111999D01*
X306503Y111984D01*
X306489Y111969D01*
X306474Y111948D01*
X306452Y111922D01*
X306427Y111893D01*
X306398Y111864D01*
X306365Y111835D01*
X306332Y111802D01*
X306249Y111737D01*
X306150Y111675D01*
X306041Y111620D01*
X306037D01*
X306027Y111613D01*
X306008Y111609D01*
X305986Y111598D01*
X305957Y111591D01*
X305921Y111580D01*
X305881Y111565D01*
X305837Y111555D01*
X305790Y111544D01*
X305735Y111529D01*
X305623Y111511D01*
X305495Y111496D01*
X305364Y111489D01*
X305360D01*
X305346D01*
X305324D01*
X305298Y111493D01*
X305262D01*
X305226Y111496D01*
X305178Y111500D01*
X305131Y111507D01*
X305026Y111525D01*
X304909Y111551D01*
X304793Y111587D01*
X304680Y111638D01*
X304676Y111642D01*
X304665Y111646D01*
X304651Y111653D01*
X304632Y111667D01*
X304607Y111682D01*
X304578Y111700D01*
X304512Y111748D01*
X304439Y111809D01*
X304367Y111882D01*
X304294Y111966D01*
X304232Y112064D01*
X304228Y112068D01*
X304225Y112079D01*
X304218Y112093D01*
X304207Y112111D01*
X304196Y112141D01*
X304185Y112170D01*
X304170Y112206D01*
X304156Y112246D01*
X304141Y112290D01*
X304127Y112337D01*
X304105Y112439D01*
X304086Y112556D01*
X304079Y112676D01*
Y112712D01*
X304083Y112738D01*
X304086Y112770D01*
X304090Y112810D01*
X304094Y112850D01*
X304105Y112898D01*
X304127Y112996D01*
X304159Y113105D01*
X304181Y113160D01*
X304207Y113211D01*
X304239Y113262D01*
X304272Y113313D01*
X304276Y113316D01*
X304279Y113324D01*
X304290Y113338D01*
X304309Y113356D01*
X304327Y113374D01*
X304352Y113400D01*
X304381Y113426D01*
X304410Y113455D01*
X304447Y113484D01*
X304490Y113513D01*
X304534Y113546D01*
X304581Y113575D01*
X304636Y113600D01*
X304691Y113629D01*
X304749Y113651D01*
X304814Y113673D01*
X304891Y113345D01*
X304887D01*
X304880Y113342D01*
X304865Y113335D01*
X304847Y113327D01*
X304825Y113320D01*
X304796Y113309D01*
X304738Y113280D01*
X304673Y113243D01*
X304607Y113200D01*
X304545Y113145D01*
X304490Y113087D01*
X304483Y113080D01*
X304469Y113058D01*
X304450Y113022D01*
X304425Y112974D01*
X304403Y112912D01*
X304381Y112843D01*
X304367Y112759D01*
X304363Y112668D01*
Y112639D01*
X304367Y112621D01*
Y112596D01*
X304370Y112566D01*
X304381Y112497D01*
X304396Y112421D01*
X304421Y112341D01*
X304458Y112257D01*
X304505Y112181D01*
Y112177D01*
X304512Y112173D01*
X304531Y112148D01*
X304560Y112115D01*
X304603Y112075D01*
X304658Y112028D01*
X304720Y111984D01*
X304796Y111944D01*
X304880Y111908D01*
X304884D01*
X304891Y111904D01*
X304902Y111900D01*
X304920Y111897D01*
X304942Y111889D01*
X304967Y111882D01*
X305029Y111871D01*
X305102Y111857D01*
X305182Y111842D01*
X305269Y111835D01*
X305364Y111831D01*
X305368D01*
X305379D01*
X305397D01*
X305419D01*
X305444Y111835D01*
X305477D01*
X305513Y111838D01*
X305553Y111842D01*
X305641Y111853D01*
X305735Y111871D01*
X305830Y111893D01*
X305925Y111922D01*
X305928D01*
X305936Y111926D01*
X305946Y111933D01*
X305965Y111940D01*
X306008Y111962D01*
X306059Y111995D01*
X306118Y112035D01*
X306179Y112086D01*
X306234Y112144D01*
X306285Y112213D01*
Y112217D01*
X306289Y112224D01*
X306296Y112235D01*
X306303Y112250D01*
X306311Y112268D01*
X306321Y112290D01*
X306343Y112341D01*
X306365Y112406D01*
X306383Y112479D01*
X306398Y112559D01*
X306401Y112643D01*
Y112668D01*
X306398Y112690D01*
Y112716D01*
X306394Y112741D01*
X306380Y112807D01*
X306361Y112883D01*
X306332Y112960D01*
X306292Y113040D01*
X306270Y113080D01*
X306241Y113116D01*
X306238Y113120D01*
X306234Y113123D01*
X306223Y113134D01*
X306212Y113149D01*
X306194Y113163D01*
X306172Y113182D01*
X306150Y113204D01*
X306121Y113222D01*
X306088Y113243D01*
X306052Y113269D01*
X306016Y113291D01*
X305972Y113313D01*
X305925Y113331D01*
X305874Y113349D01*
X305819Y113367D01*
X305761Y113382D01*
X305844Y113717D01*
X305848D01*
X305863Y113713D01*
D02*
G37*
G36*
X286031Y236958D02*
X286060Y236954D01*
X286093Y236951D01*
X286129Y236943D01*
X286169Y236936D01*
X286257Y236914D01*
X286348Y236878D01*
X286395Y236856D01*
X286439Y236830D01*
X286482Y236798D01*
X286526Y236765D01*
X286530Y236761D01*
X286537Y236754D01*
X286548Y236743D01*
X286559Y236729D01*
X286577Y236710D01*
X286595Y236685D01*
X286617Y236660D01*
X286639Y236627D01*
X286661Y236590D01*
X286683Y236554D01*
X286723Y236467D01*
X286755Y236365D01*
X286766Y236310D01*
X286774Y236252D01*
X286464Y236212D01*
Y236215D01*
X286460Y236223D01*
X286457Y236237D01*
X286453Y236255D01*
X286450Y236277D01*
X286442Y236303D01*
X286424Y236357D01*
X286399Y236423D01*
X286366Y236485D01*
X286330Y236543D01*
X286286Y236594D01*
X286279Y236598D01*
X286264Y236612D01*
X286235Y236630D01*
X286198Y236649D01*
X286155Y236670D01*
X286100Y236689D01*
X286038Y236703D01*
X285973Y236707D01*
X285951D01*
X285936Y236703D01*
X285896Y236700D01*
X285845Y236689D01*
X285787Y236670D01*
X285725Y236645D01*
X285663Y236609D01*
X285605Y236558D01*
X285598Y236550D01*
X285580Y236528D01*
X285558Y236496D01*
X285529Y236452D01*
X285500Y236397D01*
X285478Y236335D01*
X285459Y236263D01*
X285452Y236183D01*
Y236179D01*
Y236172D01*
Y236161D01*
X285456Y236146D01*
X285459Y236106D01*
X285471Y236059D01*
X285485Y236001D01*
X285510Y235942D01*
X285547Y235884D01*
X285594Y235829D01*
X285601Y235822D01*
X285620Y235808D01*
X285649Y235786D01*
X285689Y235760D01*
X285740Y235735D01*
X285802Y235713D01*
X285871Y235699D01*
X285947Y235691D01*
X285980D01*
X286005Y235695D01*
X286038Y235699D01*
X286075Y235706D01*
X286118Y235713D01*
X286166Y235724D01*
X286129Y235451D01*
X286111D01*
X286097Y235455D01*
X286049D01*
X286009Y235447D01*
X285962Y235440D01*
X285907Y235429D01*
X285845Y235411D01*
X285787Y235385D01*
X285725Y235353D01*
X285722D01*
X285718Y235349D01*
X285700Y235334D01*
X285674Y235309D01*
X285645Y235276D01*
X285616Y235229D01*
X285591Y235174D01*
X285572Y235112D01*
X285565Y235076D01*
Y235036D01*
Y235032D01*
Y235029D01*
Y235007D01*
X285572Y234978D01*
X285580Y234938D01*
X285594Y234894D01*
X285612Y234847D01*
X285642Y234799D01*
X285682Y234756D01*
X285685Y234752D01*
X285703Y234737D01*
X285729Y234719D01*
X285762Y234698D01*
X285805Y234679D01*
X285856Y234661D01*
X285914Y234647D01*
X285980Y234643D01*
X286009D01*
X286042Y234650D01*
X286086Y234658D01*
X286133Y234672D01*
X286180Y234690D01*
X286231Y234719D01*
X286279Y234756D01*
X286282Y234759D01*
X286297Y234778D01*
X286319Y234803D01*
X286344Y234839D01*
X286369Y234887D01*
X286395Y234945D01*
X286417Y235014D01*
X286431Y235094D01*
X286741Y235040D01*
Y235036D01*
X286737Y235025D01*
X286734Y235011D01*
X286730Y234989D01*
X286723Y234963D01*
X286712Y234934D01*
X286690Y234865D01*
X286653Y234785D01*
X286610Y234705D01*
X286555Y234628D01*
X286486Y234559D01*
X286482Y234556D01*
X286475Y234552D01*
X286464Y234545D01*
X286450Y234534D01*
X286431Y234519D01*
X286406Y234505D01*
X286381Y234490D01*
X286348Y234472D01*
X286275Y234443D01*
X286191Y234414D01*
X286093Y234395D01*
X286042Y234388D01*
X285951D01*
X285911Y234392D01*
X285864Y234399D01*
X285805Y234410D01*
X285740Y234428D01*
X285674Y234450D01*
X285609Y234479D01*
X285605D01*
X285601Y234483D01*
X285580Y234494D01*
X285547Y234516D01*
X285510Y234541D01*
X285467Y234577D01*
X285423Y234617D01*
X285380Y234665D01*
X285343Y234719D01*
X285339Y234727D01*
X285329Y234745D01*
X285314Y234778D01*
X285296Y234818D01*
X285278Y234865D01*
X285263Y234920D01*
X285252Y234981D01*
X285248Y235043D01*
Y235051D01*
Y235072D01*
X285252Y235102D01*
X285259Y235142D01*
X285270Y235189D01*
X285289Y235240D01*
X285310Y235291D01*
X285339Y235342D01*
X285343Y235349D01*
X285354Y235364D01*
X285376Y235389D01*
X285405Y235418D01*
X285441Y235451D01*
X285485Y235487D01*
X285536Y235520D01*
X285598Y235553D01*
X285594D01*
X285587Y235557D01*
X285576Y235560D01*
X285561Y235564D01*
X285521Y235578D01*
X285471Y235600D01*
X285412Y235629D01*
X285354Y235666D01*
X285299Y235713D01*
X285248Y235768D01*
X285245Y235775D01*
X285230Y235797D01*
X285208Y235833D01*
X285187Y235880D01*
X285165Y235939D01*
X285143Y236008D01*
X285128Y236088D01*
X285125Y236175D01*
Y236179D01*
Y236190D01*
Y236208D01*
X285128Y236230D01*
X285132Y236259D01*
X285139Y236292D01*
X285146Y236328D01*
X285154Y236368D01*
X285183Y236456D01*
X285205Y236503D01*
X285227Y236547D01*
X285256Y236594D01*
X285289Y236641D01*
X285325Y236689D01*
X285368Y236732D01*
X285372Y236736D01*
X285380Y236743D01*
X285394Y236754D01*
X285412Y236769D01*
X285434Y236787D01*
X285463Y236805D01*
X285496Y236827D01*
X285536Y236845D01*
X285576Y236867D01*
X285623Y236889D01*
X285671Y236907D01*
X285725Y236925D01*
X285784Y236940D01*
X285845Y236951D01*
X285907Y236958D01*
X285976Y236962D01*
X286009D01*
X286031Y236958D01*
D02*
G37*
G36*
X287960D02*
X287989Y236954D01*
X288018Y236951D01*
X288095Y236936D01*
X288175Y236914D01*
X288259Y236881D01*
X288302Y236860D01*
X288342Y236834D01*
X288379Y236805D01*
X288415Y236772D01*
X288419Y236769D01*
X288422Y236765D01*
X288430Y236751D01*
X288441Y236736D01*
X288455Y236718D01*
X288470Y236692D01*
X288484Y236663D01*
X288503Y236630D01*
X288517Y236594D01*
X288532Y236550D01*
X288546Y236507D01*
X288561Y236456D01*
X288568Y236401D01*
X288579Y236339D01*
X288583Y236277D01*
Y236208D01*
X288281Y236164D01*
Y236168D01*
Y236175D01*
Y236190D01*
X288277Y236212D01*
X288273Y236234D01*
Y236259D01*
X288262Y236321D01*
X288251Y236386D01*
X288230Y236452D01*
X288208Y236510D01*
X288193Y236536D01*
X288175Y236558D01*
X288171Y236561D01*
X288157Y236572D01*
X288135Y236590D01*
X288106Y236609D01*
X288066Y236630D01*
X288022Y236645D01*
X287967Y236660D01*
X287909Y236663D01*
X287887D01*
X287866Y236660D01*
X287833Y236656D01*
X287800Y236649D01*
X287764Y236641D01*
X287727Y236627D01*
X287691Y236609D01*
X287687Y236605D01*
X287676Y236598D01*
X287662Y236583D01*
X287640Y236568D01*
X287622Y236543D01*
X287600Y236518D01*
X287582Y236488D01*
X287567Y236452D01*
Y236448D01*
X287560Y236434D01*
X287556Y236408D01*
X287549Y236375D01*
X287542Y236332D01*
X287538Y236277D01*
X287531Y236212D01*
Y236135D01*
Y234399D01*
X287196D01*
Y236117D01*
Y236121D01*
Y236132D01*
Y236146D01*
Y236168D01*
X287199Y236197D01*
Y236226D01*
X287207Y236295D01*
X287214Y236375D01*
X287229Y236459D01*
X287250Y236536D01*
X287276Y236609D01*
Y236612D01*
X287280Y236616D01*
X287291Y236638D01*
X287309Y236667D01*
X287334Y236707D01*
X287370Y236747D01*
X287411Y236790D01*
X287461Y236834D01*
X287520Y236871D01*
X287527Y236874D01*
X287549Y236885D01*
X287582Y236900D01*
X287629Y236914D01*
X287687Y236932D01*
X287753Y236947D01*
X287825Y236958D01*
X287906Y236962D01*
X287938D01*
X287960Y236958D01*
D02*
G37*
%LPC*%
G36*
X207330Y44719D02*
X206580D01*
X206536Y44715D01*
X206485Y44712D01*
X206427Y44708D01*
X206369Y44701D01*
X206311Y44690D01*
X206260Y44675D01*
X206252Y44671D01*
X206238Y44664D01*
X206216Y44653D01*
X206187Y44639D01*
X206154Y44617D01*
X206121Y44591D01*
X206088Y44559D01*
X206063Y44522D01*
X206059Y44519D01*
X206052Y44504D01*
X206041Y44482D01*
X206027Y44453D01*
X206016Y44420D01*
X206005Y44384D01*
X205997Y44340D01*
X205994Y44297D01*
Y44293D01*
Y44289D01*
X205997Y44267D01*
X206001Y44235D01*
X206008Y44191D01*
X206027Y44147D01*
X206048Y44096D01*
X206081Y44049D01*
X206125Y44002D01*
X206132Y43998D01*
X206150Y43984D01*
X206179Y43965D01*
X206227Y43944D01*
X206281Y43922D01*
X206354Y43903D01*
X206438Y43889D01*
X206536Y43885D01*
X207330D01*
Y44719D01*
D02*
G37*
G36*
X243751Y69211D02*
X242957D01*
Y68378D01*
X243707D01*
X243751Y68381D01*
X243802Y68385D01*
X243860Y68389D01*
X243918Y68396D01*
X243976Y68407D01*
X244027Y68422D01*
X244035Y68425D01*
X244049Y68432D01*
X244071Y68443D01*
X244100Y68458D01*
X244133Y68480D01*
X244166Y68505D01*
X244198Y68538D01*
X244224Y68574D01*
X244228Y68578D01*
X244235Y68593D01*
X244246Y68614D01*
X244260Y68643D01*
X244271Y68676D01*
X244282Y68713D01*
X244289Y68756D01*
X244293Y68800D01*
Y68804D01*
Y68807D01*
X244289Y68829D01*
X244286Y68862D01*
X244279Y68906D01*
X244260Y68949D01*
X244238Y69000D01*
X244206Y69048D01*
X244162Y69095D01*
X244155Y69099D01*
X244137Y69113D01*
X244108Y69131D01*
X244060Y69153D01*
X244005Y69175D01*
X243933Y69193D01*
X243849Y69208D01*
X243751Y69211D01*
D02*
G37*
G36*
X165007Y37683D02*
X164999D01*
X164981D01*
X164948D01*
X164905Y37680D01*
X164857D01*
X164799Y37676D01*
X164737Y37672D01*
X164672Y37665D01*
X164530Y37647D01*
X164461Y37636D01*
X164395Y37622D01*
X164333Y37607D01*
X164275Y37585D01*
X164224Y37563D01*
X164180Y37538D01*
X164177D01*
X164173Y37530D01*
X164147Y37512D01*
X164115Y37479D01*
X164078Y37440D01*
X164042Y37385D01*
X164009Y37323D01*
X163984Y37254D01*
X163980Y37217D01*
X163976Y37177D01*
Y37156D01*
X163980Y37141D01*
X163987Y37105D01*
X164002Y37054D01*
X164027Y36999D01*
X164064Y36937D01*
X164086Y36908D01*
X164115Y36879D01*
X164144Y36850D01*
X164180Y36821D01*
X164184D01*
X164191Y36813D01*
X164202Y36806D01*
X164220Y36799D01*
X164246Y36784D01*
X164279Y36773D01*
X164315Y36759D01*
X164359Y36744D01*
X164413Y36733D01*
X164471Y36719D01*
X164541Y36704D01*
X164613Y36693D01*
X164701Y36686D01*
X164792Y36679D01*
X164894Y36671D01*
X165007D01*
X165010D01*
X165014D01*
X165032D01*
X165065D01*
X165109Y36675D01*
X165156D01*
X165214Y36679D01*
X165276Y36682D01*
X165345Y36690D01*
X165483Y36708D01*
X165553Y36719D01*
X165618Y36733D01*
X165680Y36748D01*
X165738Y36770D01*
X165789Y36792D01*
X165833Y36817D01*
X165837D01*
X165840Y36824D01*
X165851Y36832D01*
X165866Y36843D01*
X165898Y36875D01*
X165938Y36915D01*
X165975Y36970D01*
X166008Y37032D01*
X166022Y37064D01*
X166033Y37101D01*
X166037Y37141D01*
X166040Y37181D01*
Y37203D01*
X166037Y37217D01*
X166029Y37258D01*
X166018Y37305D01*
X165997Y37359D01*
X165964Y37418D01*
X165942Y37447D01*
X165920Y37476D01*
X165891Y37501D01*
X165858Y37527D01*
X165855D01*
X165847Y37534D01*
X165833Y37541D01*
X165815Y37552D01*
X165786Y37563D01*
X165753Y37578D01*
X165713Y37589D01*
X165665Y37603D01*
X165611Y37618D01*
X165549Y37632D01*
X165480Y37647D01*
X165403Y37658D01*
X165316Y37669D01*
X165221Y37676D01*
X165119Y37680D01*
X165007Y37683D01*
D02*
G37*
G36*
X84522Y140216D02*
X83688D01*
Y139467D01*
X83692Y139423D01*
X83696Y139372D01*
X83699Y139314D01*
X83707Y139255D01*
X83718Y139197D01*
X83732Y139146D01*
X83736Y139139D01*
X83743Y139124D01*
X83754Y139102D01*
X83768Y139073D01*
X83790Y139041D01*
X83816Y139008D01*
X83849Y138975D01*
X83885Y138950D01*
X83889Y138946D01*
X83903Y138939D01*
X83925Y138928D01*
X83954Y138913D01*
X83987Y138902D01*
X84023Y138891D01*
X84067Y138884D01*
X84111Y138881D01*
X84114D01*
X84118D01*
X84140Y138884D01*
X84173Y138888D01*
X84216Y138895D01*
X84260Y138913D01*
X84311Y138935D01*
X84358Y138968D01*
X84405Y139012D01*
X84409Y139019D01*
X84424Y139037D01*
X84442Y139066D01*
X84464Y139113D01*
X84486Y139168D01*
X84504Y139241D01*
X84518Y139324D01*
X84522Y139423D01*
Y140216D01*
D02*
G37*
G36*
X54467Y262132D02*
X54463D01*
X54456D01*
X54445D01*
X54427Y262129D01*
X54405D01*
X54383Y262125D01*
X54328Y262114D01*
X54267Y262096D01*
X54201Y262074D01*
X54135Y262038D01*
X54077Y261990D01*
X54070Y261983D01*
X54055Y261965D01*
X54030Y261932D01*
X54004Y261892D01*
X53975Y261838D01*
X53950Y261776D01*
X53935Y261706D01*
X53928Y261630D01*
Y261608D01*
X53932Y261594D01*
X53935Y261554D01*
X53946Y261506D01*
X53964Y261448D01*
X53990Y261390D01*
X54026Y261332D01*
X54077Y261277D01*
X54084Y261270D01*
X54106Y261255D01*
X54139Y261233D01*
X54186Y261204D01*
X54245Y261179D01*
X54314Y261157D01*
X54397Y261142D01*
X54492Y261135D01*
X54496D01*
X54503D01*
X54518D01*
X54536Y261139D01*
X54561D01*
X54587Y261142D01*
X54645Y261153D01*
X54714Y261168D01*
X54787Y261193D01*
X54856Y261230D01*
X54918Y261277D01*
X54922D01*
X54925Y261284D01*
X54944Y261302D01*
X54969Y261332D01*
X54998Y261372D01*
X55024Y261423D01*
X55049Y261481D01*
X55067Y261546D01*
X55075Y261583D01*
Y261641D01*
X55071Y261655D01*
X55067Y261696D01*
X55053Y261743D01*
X55035Y261801D01*
X55002Y261863D01*
X54962Y261925D01*
X54933Y261954D01*
X54904Y261983D01*
X54900D01*
X54896Y261990D01*
X54885Y261998D01*
X54874Y262005D01*
X54838Y262031D01*
X54787Y262056D01*
X54725Y262085D01*
X54649Y262110D01*
X54561Y262125D01*
X54467Y262132D01*
D02*
G37*
G36*
X71448Y270823D02*
X71419D01*
X71386Y270815D01*
X71342Y270808D01*
X71295Y270793D01*
X71244Y270775D01*
X71197Y270746D01*
X71150Y270706D01*
X71146Y270702D01*
X71131Y270688D01*
X71113Y270662D01*
X71095Y270630D01*
X71073Y270590D01*
X71055Y270542D01*
X71040Y270491D01*
X71037Y270433D01*
Y270429D01*
Y270426D01*
X71040Y270404D01*
X71044Y270371D01*
X71051Y270331D01*
X71066Y270284D01*
X71084Y270236D01*
X71113Y270186D01*
X71150Y270142D01*
X71153Y270138D01*
X71171Y270124D01*
X71197Y270106D01*
X71230Y270087D01*
X71273Y270065D01*
X71324Y270047D01*
X71383Y270033D01*
X71448Y270029D01*
X71455D01*
X71477Y270033D01*
X71510Y270036D01*
X71554Y270044D01*
X71601Y270058D01*
X71648Y270076D01*
X71699Y270106D01*
X71743Y270142D01*
X71747Y270146D01*
X71761Y270164D01*
X71779Y270186D01*
X71801Y270218D01*
X71823Y270258D01*
X71841Y270306D01*
X71856Y270360D01*
X71859Y270419D01*
Y270422D01*
Y270426D01*
Y270448D01*
X71852Y270480D01*
X71845Y270520D01*
X71830Y270564D01*
X71808Y270611D01*
X71779Y270659D01*
X71739Y270706D01*
X71736Y270710D01*
X71717Y270724D01*
X71692Y270743D01*
X71659Y270764D01*
X71615Y270786D01*
X71568Y270804D01*
X71510Y270819D01*
X71448Y270823D01*
D02*
G37*
G36*
X71437Y269778D02*
X71415D01*
X71401Y269774D01*
X71361Y269771D01*
X71310Y269760D01*
X71251Y269742D01*
X71193Y269716D01*
X71131Y269680D01*
X71077Y269632D01*
X71070Y269625D01*
X71055Y269607D01*
X71033Y269574D01*
X71008Y269534D01*
X70978Y269479D01*
X70957Y269418D01*
X70942Y269348D01*
X70935Y269272D01*
Y269265D01*
Y269250D01*
X70938Y269225D01*
X70942Y269192D01*
X70949Y269152D01*
X70960Y269108D01*
X70975Y269064D01*
X70993Y269017D01*
X70997Y269014D01*
X71004Y268995D01*
X71019Y268973D01*
X71040Y268948D01*
X71066Y268915D01*
X71099Y268882D01*
X71135Y268853D01*
X71179Y268824D01*
X71186Y268821D01*
X71201Y268813D01*
X71226Y268802D01*
X71259Y268791D01*
X71299Y268780D01*
X71346Y268770D01*
X71397Y268762D01*
X71448Y268759D01*
X71470D01*
X71485Y268762D01*
X71528Y268766D01*
X71579Y268777D01*
X71637Y268795D01*
X71699Y268817D01*
X71758Y268853D01*
X71816Y268901D01*
X71823Y268908D01*
X71838Y268926D01*
X71863Y268959D01*
X71889Y268999D01*
X71914Y269050D01*
X71939Y269112D01*
X71954Y269185D01*
X71961Y269261D01*
Y269265D01*
Y269272D01*
Y269283D01*
X71958Y269297D01*
X71954Y269337D01*
X71943Y269392D01*
X71925Y269447D01*
X71899Y269509D01*
X71863Y269570D01*
X71812Y269629D01*
X71805Y269636D01*
X71787Y269651D01*
X71754Y269676D01*
X71710Y269705D01*
X71656Y269731D01*
X71590Y269756D01*
X71517Y269771D01*
X71437Y269778D01*
D02*
G37*
G36*
X204143Y170303D02*
X204122D01*
X204107Y170299D01*
X204071Y170295D01*
X204020Y170284D01*
X203965Y170266D01*
X203903Y170237D01*
X203845Y170201D01*
X203787Y170150D01*
X203779Y170142D01*
X203765Y170124D01*
X203739Y170091D01*
X203714Y170044D01*
X203688Y169990D01*
X203663Y169920D01*
X203648Y169844D01*
X203641Y169757D01*
Y169749D01*
Y169731D01*
X203645Y169698D01*
X203648Y169658D01*
X203656Y169611D01*
X203670Y169560D01*
X203685Y169506D01*
X203707Y169451D01*
X203710Y169444D01*
X203721Y169425D01*
X203736Y169400D01*
X203758Y169367D01*
X203783Y169334D01*
X203816Y169294D01*
X203852Y169262D01*
X203896Y169229D01*
X203903Y169225D01*
X203918Y169218D01*
X203943Y169203D01*
X203976Y169192D01*
X204012Y169178D01*
X204056Y169163D01*
X204103Y169156D01*
X204154Y169152D01*
X204172D01*
X204187Y169156D01*
X204223Y169160D01*
X204271Y169171D01*
X204322Y169192D01*
X204380Y169218D01*
X204438Y169258D01*
X204467Y169280D01*
X204493Y169309D01*
Y169313D01*
X204500Y169316D01*
X204515Y169338D01*
X204537Y169374D01*
X204566Y169422D01*
X204591Y169484D01*
X204613Y169556D01*
X204627Y169640D01*
X204635Y169738D01*
Y169742D01*
Y169749D01*
Y169764D01*
X204631Y169782D01*
Y169804D01*
X204627Y169829D01*
X204617Y169888D01*
X204602Y169953D01*
X204577Y170022D01*
X204540Y170088D01*
X204493Y170150D01*
X204486Y170157D01*
X204467Y170175D01*
X204438Y170197D01*
X204398Y170226D01*
X204347Y170255D01*
X204289Y170277D01*
X204220Y170295D01*
X204143Y170303D01*
D02*
G37*
G36*
X204289Y202848D02*
X203496Y201719D01*
X204289D01*
Y202848D01*
D02*
G37*
%LPD*%
D13*
X215161Y42285D02*
Y49962D01*
X200168D02*
X215161D01*
X200168Y42285D02*
Y49962D01*
Y42285D02*
X215161D01*
X235126Y70768D02*
X250119D01*
Y63090D02*
Y70768D01*
X235126Y63090D02*
X250119D01*
X235126D02*
Y70768D01*
X102067Y41059D02*
X109744D01*
X102067Y25870D02*
Y41059D01*
Y25870D02*
X109744D01*
Y41059D01*
X159785Y50159D02*
X167659D01*
X159785Y34780D02*
Y50159D01*
Y34780D02*
X167659D01*
Y50159D01*
X250832Y43720D02*
X275950D01*
Y-40354D02*
Y43720D01*
X250832Y-40354D02*
X275950D01*
X250832D02*
Y43720D01*
X86024Y131890D02*
Y149213D01*
X78543Y131890D02*
X86024D01*
X78543D02*
Y149213D01*
X86024D01*
X278345Y-40354D02*
Y43799D01*
Y-40354D02*
X358266D01*
Y43799D01*
X278345D02*
X358266D01*
X43425Y276752D02*
Y373740D01*
X93583D01*
Y276752D02*
Y373740D01*
X43425Y276752D02*
X93583D01*
X48819Y272835D02*
X56693D01*
X48819Y257087D02*
Y272835D01*
Y257087D02*
X56693D01*
Y272835D01*
X79134Y272441D02*
X87008D01*
X79134Y256693D02*
Y272441D01*
Y256693D02*
X87008D01*
Y272441D01*
X60236Y264567D02*
Y272441D01*
Y264567D02*
X75984D01*
Y272441D01*
X60236D02*
X75984D01*
X91339Y160354D02*
X188327D01*
X91339D02*
Y210512D01*
X188327D01*
Y160354D02*
Y210512D01*
X192913Y177165D02*
X200787D01*
Y192913D01*
X192913D02*
X200787D01*
X192913Y177165D02*
Y192913D01*
Y164961D02*
Y172835D01*
Y164961D02*
X208661D01*
Y172835D01*
X192913D02*
X208661D01*
X192913Y196850D02*
Y204724D01*
Y196850D02*
X208661D01*
Y204724D01*
X192913D02*
X208661D01*
X298831Y86804D02*
Y136961D01*
X201843D02*
X298831D01*
X201843Y86804D02*
Y136961D01*
Y86804D02*
X298831D01*
X303142Y131568D02*
X318890D01*
Y123694D02*
Y131568D01*
X303142Y123694D02*
X318890D01*
X303142D02*
Y131568D01*
X302355Y91804D02*
Y99678D01*
Y91804D02*
X318103D01*
Y99678D01*
X302355D02*
X318103D01*
X302748Y103615D02*
X310622D01*
Y119363D01*
X302748D02*
X310622D01*
X302748Y103615D02*
Y119363D01*
X302756Y213386D02*
Y259055D01*
X274410D02*
X302756D01*
X274410Y213386D02*
Y259055D01*
Y213386D02*
X302756D01*
M02*
