M48
;Layer_Color=9474304
;FILE_FORMAT=2:5
INCH
;TYPE=PLATED
T01F00S00C0.01181
T02F00S00C0.03543
T03F00S00C0.05512
T04F00S00C0.05906
T05F00S00C0.07087
T06F00S00C0.11811
%
T01
X0340158Y0121954
X0391403Y0129478
X0397974Y0131524
X0457997Y0146063
X0557079Y0195741
X0556685Y0227631
X0445669Y0268898
X0445276Y0300787
X0459945Y0166929
X0316535Y0255118
X0287008Y0353937
X0317323
T02
X0522433Y0211883
Y0221883
X0529933Y0226883
Y0216883
Y0206883
X0419429Y0280433
Y0290433
Y0300433
X0411929Y0295433
Y0285433
X0307756Y0379902
X0297756
X0302756Y0387402
X0312756
X0317756Y0379902
T03
X0522835Y0323425
Y0345079
T04
X0471528Y0192592
X0483733
Y0231174
X0471528
X0459323
Y0192592
X0373228Y0266142
X0361024
X0348819
Y0304724
X0361024
X0373228
X0283465Y0426102
Y0438307
Y0450512
X0322047
Y0438307
Y0426102
T05
X0496855Y0116260
Y0137913
X0527755Y0137992
X0544290
X0560825
X0577361
Y0116339
X0560825
X0544290
X0527755
T06
X0247638Y0235827
M30
